<svg width="75" height="75" viewBox="0 0 75 75" fill="none" xmlns="http://www.w3.org/2000/svg">
<path d="M18.6447 40.4298L20.6744 39.258L8.24243 17.7248C8.20365 17.6575 8.19313 17.5777 8.21318 17.5027C8.23323 17.4277 8.28221 17.3638 8.34936 17.3249L20.5076 10.3053L19.3357 8.27563L7.17749 15.295C6.57197 15.6447 6.13015 16.2206 5.9492 16.896C5.76825 17.5714 5.86299 18.2911 6.2126 18.8966L18.6447 40.4298Z" fill="black"/>
<path d="M17.3878 14.8135L14.3433 16.5713C14.21 16.6482 14.0932 16.7507 13.9995 16.8727C13.9058 16.9948 13.8371 17.1342 13.7972 17.2828C13.7574 17.4315 13.7472 17.5865 13.7673 17.7391C13.7874 17.8917 13.8373 18.0388 13.9142 18.1721C14.0696 18.4412 14.1116 18.761 14.0312 19.0611C13.9508 19.3612 13.7545 19.6171 13.4855 19.7726C13.3522 19.8495 13.2353 19.9519 13.1416 20.074C13.0479 20.1961 12.9792 20.3355 12.9394 20.4842C12.8995 20.6328 12.8894 20.7879 12.9094 20.9405C12.9295 21.0931 12.9795 21.2402 13.0564 21.3735L15.9861 26.448L18.0158 25.2761L15.5714 21.044C15.9115 20.6446 16.1583 20.1744 16.2941 19.6677C16.4299 19.1609 16.4512 18.6303 16.3564 18.1144L18.5585 16.8429L17.3878 14.8135Z" fill="#1BC8A9"/>
<path d="M56.3549 40.4298L68.787 18.8966C69.1366 18.2911 69.2313 17.5715 69.0503 16.8961C68.8694 16.2207 68.4276 15.6449 67.8221 15.2952L55.6639 8.27563L54.492 10.3053L66.6502 17.325C66.7174 17.3639 66.7663 17.4278 66.7863 17.5028C66.8064 17.5777 66.7959 17.6575 66.7572 17.7248L54.3252 39.258L56.3549 40.4298Z" fill="black"/>
<path d="M61.2039 17.2828C61.1234 16.9826 60.927 16.7266 60.6578 16.5713L57.6133 14.8135L56.4414 16.843L58.6435 18.1145C58.5488 18.6305 58.5701 19.1611 58.7059 19.6678C58.8416 20.1745 59.0885 20.6447 59.4285 21.0442L56.9853 25.2763L59.015 26.4481L61.9447 21.3736C62.0217 21.2403 62.0716 21.0932 62.0917 20.9406C62.1118 20.788 62.1016 20.633 62.0618 20.4843C62.0219 20.3356 61.9532 20.1963 61.8595 20.0742C61.7658 19.9521 61.6489 19.8496 61.5156 19.7727C61.2466 19.6173 61.0503 19.3614 60.9699 19.0612C60.8895 18.7611 60.9316 18.4413 61.0869 18.1722C61.1638 18.0389 61.2138 17.8917 61.2339 17.7391C61.254 17.5865 61.2438 17.4314 61.2039 17.2828Z" fill="#1BC8A9"/>
<path d="M24.6094 4.98047C24.6094 4.90277 24.6402 4.82825 24.6952 4.77331C24.7501 4.71837 24.8246 4.6875 24.9023 4.6875H50.0977C50.1754 4.6875 50.2499 4.71837 50.3048 4.77331C50.3598 4.82825 50.3906 4.90277 50.3906 4.98047V39.8438H52.7344V4.98047C52.7336 4.28142 52.4555 3.61123 51.9612 3.11693C51.4669 2.62262 50.7967 2.34456 50.0977 2.34375H24.9023C24.2033 2.34456 23.5331 2.62262 23.0388 3.11693C22.5445 3.61123 22.2664 4.28142 22.2656 4.98047V16.4062H24.6094V4.98047Z" fill="black"/>
<path d="M22.2656 18.75H24.6094V39.8438H22.2656V18.75Z" fill="black"/>
<path d="M37.5 39.8438C39.3542 39.8438 41.1668 39.2939 42.7085 38.2638C44.2502 37.2336 45.4518 35.7695 46.1614 34.0564C46.8709 32.3434 47.0566 30.4584 46.6949 28.6398C46.3331 26.8212 45.4402 25.1507 44.1291 23.8396C42.818 22.5285 41.1475 21.6356 39.329 21.2739C37.5104 20.9122 35.6254 21.0978 33.9123 21.8074C32.1993 22.517 30.7351 23.7186 29.705 25.2603C28.6748 26.802 28.125 28.6146 28.125 30.4688C28.1278 32.9543 29.1164 35.3372 30.874 37.0948C32.6315 38.8523 35.0145 39.841 37.5 39.8438ZM37.5 23.4375C38.8906 23.4375 40.2501 23.8499 41.4064 24.6225C42.5626 25.3951 43.4639 26.4932 43.996 27.778C44.5282 29.0628 44.6674 30.4766 44.3961 31.8405C44.1248 33.2044 43.4552 34.4573 42.4718 35.4406C41.4885 36.4239 40.2357 37.0936 38.8717 37.3649C37.5078 37.6362 36.094 37.497 34.8093 36.9648C33.5245 36.4326 32.4263 35.5314 31.6537 34.3751C30.8811 33.2188 30.4688 31.8594 30.4688 30.4688C30.4708 28.6046 31.2123 26.8174 32.5305 25.4992C33.8486 24.1811 35.6358 23.4396 37.5 23.4375Z" fill="#1BC8A9"/>
<path d="M31.4398 9.375H33.9844V7.03125H30.4688C30.1579 7.03125 29.8599 7.15472 29.6401 7.37448C29.4203 7.59425 29.2969 7.89232 29.2969 8.20312C29.2965 8.51382 29.1729 8.81169 28.9533 9.03138C28.7336 9.25107 28.4357 9.37465 28.125 9.375C27.8142 9.375 27.5161 9.49847 27.2964 9.71823C27.0766 9.938 26.9531 10.2361 26.9531 10.5469V16.4062H29.2969V11.5179C29.7907 11.3421 30.2392 11.0586 30.6098 10.6879C30.9805 10.3173 31.264 9.8688 31.4398 9.375Z" fill="#1BC8A9"/>
<path d="M48.0469 10.5469C48.0469 10.2361 47.9234 9.938 47.7036 9.71823C47.4839 9.49847 47.1858 9.375 46.875 9.375C46.5643 9.37465 46.2664 9.25107 46.0467 9.03138C45.827 8.81169 45.7035 8.51382 45.7031 8.20312C45.7031 7.89232 45.5797 7.59425 45.3599 7.37448C45.1401 7.15472 44.8421 7.03125 44.5312 7.03125H41.0156V9.375H43.5602C43.736 9.8688 44.0195 10.3173 44.3902 10.6879C44.7608 11.0586 45.2093 11.3421 45.7031 11.5179V16.4062H48.0469V10.5469Z" fill="#1BC8A9"/>
<path d="M36.3281 16.4062H38.6719V18.75H36.3281V16.4062Z" fill="#1BC8A9"/>
<path d="M58.5938 59.7656H60.9375V62.1094H58.5938V59.7656Z" fill="#1BC8A9"/>
<path d="M55.0781 59.7656H57.4219V62.1094H55.0781V59.7656Z" fill="#1BC8A9"/>
<path d="M62.1094 59.7656H64.4531V62.1094H62.1094V59.7656Z" fill="#1BC8A9"/>
<path d="M31.6406 64.4531H37.5V66.7969H31.6406V64.4531Z" fill="#1BC8A9"/>
<path d="M39.8438 64.4531H48.0469V66.7969H39.8438V64.4531Z" fill="#1BC8A9"/>
<path d="M66.5039 42.1875H24.9023C24.3953 42.1869 23.8989 42.3334 23.4734 42.6093C21.2255 41.301 18.6062 40.7777 16.0282 41.1219C13.4502 41.466 11.0599 42.658 9.23384 44.5101C7.40781 46.3622 6.2498 48.7691 5.94223 51.3518C5.63467 53.9344 6.19501 56.546 7.53501 58.7751C7.04153 58.9689 6.61781 59.3068 6.31896 59.7447C6.02011 60.1826 5.85997 60.7003 5.85938 61.2305V64.1602C5.85878 64.6819 6.01383 65.1919 6.30469 65.625C6.01383 66.0581 5.85878 66.5682 5.85938 67.0899V70.0196C5.86019 70.7186 6.13825 71.3888 6.63255 71.8831C7.12686 72.3774 7.79704 72.6555 8.4961 72.6563H66.5039C67.2029 72.6555 67.8731 72.3774 68.3674 71.8831C68.8617 71.3888 69.1398 70.7186 69.1406 70.0196V64.4532H66.7969V70.0196C66.7969 70.0973 66.766 70.1718 66.7111 70.2267C66.6561 70.2817 66.5816 70.3125 66.5039 70.3125H29.2806C29.2914 70.2153 29.2969 70.1175 29.2969 70.0196V67.0899C29.2975 66.5682 29.1424 66.0581 28.8516 65.625C29.1424 65.1919 29.2975 64.6819 29.2969 64.1602V61.2305C29.2963 60.7003 29.1361 60.1826 28.8373 59.7447C28.5384 59.3068 28.1147 58.9689 27.6212 58.7751C27.8834 58.3398 28.1168 57.8877 28.3201 57.4219H66.7969V62.1094H69.1406V44.8243C69.1398 44.1252 68.8617 43.455 68.3674 42.9607C67.8731 42.4664 67.2029 42.1884 66.5039 42.1875ZM26.9531 70.0196C26.9531 70.0973 26.9223 70.1718 26.8673 70.2267C26.8124 70.2817 26.7379 70.3125 26.6602 70.3125H8.4961C8.4184 70.3125 8.34388 70.2817 8.28893 70.2267C8.23399 70.1718 8.20313 70.0973 8.20313 70.0196V67.0899C8.20313 67.0122 8.23399 66.9377 8.28893 66.8827C8.34388 66.8278 8.4184 66.7969 8.4961 66.7969H26.6602C26.7379 66.7969 26.8124 66.8278 26.8673 66.8827C26.9223 66.9377 26.9531 67.0122 26.9531 67.0899V70.0196ZM26.9531 64.1602C26.9531 64.2379 26.9223 64.3124 26.8673 64.3674C26.8124 64.4223 26.7379 64.4532 26.6602 64.4532H8.4961C8.4184 64.4532 8.34388 64.4223 8.28893 64.3674C8.23399 64.3124 8.20313 64.2379 8.20313 64.1602V61.2305C8.20313 61.1528 8.23399 61.0783 8.28893 61.0233C8.34388 60.9684 8.4184 60.9375 8.4961 60.9375H26.6602C26.7379 60.9375 26.8124 60.9684 26.8673 61.0233C26.9223 61.0783 26.9531 61.1528 26.9531 61.2305V64.1602ZM12.8906 52.7344C12.8906 51.8073 13.1655 50.901 13.6806 50.1302C14.1957 49.3593 14.9278 48.7585 15.7843 48.4037C16.6408 48.0489 17.5833 47.9561 18.4926 48.137C19.4019 48.3179 20.2371 48.7643 20.8927 49.4199C21.5482 50.0754 21.9947 50.9106 22.1756 51.8199C22.3564 52.7292 22.2636 53.6717 21.9088 54.5282C21.554 55.3848 20.9532 56.1169 20.1824 56.6319C19.4115 57.147 18.5052 57.4219 17.5781 57.4219C16.3354 57.4205 15.1439 56.9262 14.2651 56.0474C13.3863 55.1687 12.892 53.9772 12.8906 52.7344ZM24.8969 58.5938H21.4608C22.7205 57.7595 23.6778 56.5416 24.1912 55.1206C24.7045 53.6996 24.7464 52.151 24.3107 50.7043C23.8751 49.2576 22.985 47.9897 21.7723 47.0885C20.5597 46.1872 19.089 45.7005 17.5781 45.7005C16.0672 45.7005 14.5966 46.1872 13.3839 47.0885C12.1713 47.9897 11.2812 49.2576 10.8455 50.7043C10.4099 52.151 10.4518 53.6996 10.9651 55.1206C11.4784 56.5416 12.4358 57.7595 13.6954 58.5938H10.2593C9.15557 57.215 8.46374 55.5524 8.26355 53.7976C8.06335 52.0428 8.36293 50.2671 9.12777 48.6752C9.89261 47.0832 11.0916 45.7396 12.5866 44.7992C14.0817 43.8589 15.8119 43.36 17.5781 43.36C19.3443 43.36 21.0746 43.8589 22.5696 44.7992C24.0646 45.7396 25.2636 47.0832 26.0285 48.6752C26.7933 50.2671 27.0929 52.0428 26.8927 53.7976C26.6925 55.5524 26.0007 57.215 24.8969 58.5938ZM66.7969 55.0782H29.061C29.218 54.3068 29.297 53.5216 29.2969 52.7344C29.2969 52.3389 29.2773 51.9483 29.2383 51.5625H66.7969V55.0782ZM66.7969 49.2188H28.7583C28.201 47.456 27.2351 45.8499 25.9393 44.5313H66.5039C66.5816 44.5313 66.6561 44.5622 66.7111 44.6171C66.766 44.672 66.7969 44.7466 66.7969 44.8243V49.2188Z" fill="black"/>
</svg>
