<svg width="75" height="75" viewBox="0 0 75 75" fill="none" xmlns="http://www.w3.org/2000/svg">
<g clip-path="url(#clip0)">
<path d="M13.1375 34.0125C13.65 35.925 12.325 38.9 13.6875 41.2375C15.05 43.575 18.35 43.9875 19.6625 45.3125C20.4918 46.4878 21.1996 47.7442 21.775 49.0625L15.15 68.4C14.8377 69.4058 15.1892 70.4995 16.029 71.135C16.8689 71.7705 18.017 71.8115 18.9 71.2375L23.05 68.3L24.5125 73.1625C24.8213 74.2058 25.7694 74.9296 26.8572 74.9524C27.945 74.9753 28.9227 74.2919 29.275 73.2625L35.75 54.625C36.8683 55.1002 38.1317 55.1002 39.25 54.625L45.675 73.3125C46.0273 74.3419 47.005 75.0253 48.0928 75.0024C49.1806 74.9796 50.1287 74.2558 50.4375 73.2125L51.9 68.35L56.05 71.25C56.933 71.824 58.0811 71.783 58.921 71.1475C59.7608 70.512 60.1123 69.4183 59.8 68.4125L53.225 49.1125C53.8026 47.7978 54.5059 46.542 55.325 45.3625C56.6875 43.9625 60 43.5875 61.3125 41.25C62.625 38.9125 61.375 35.875 61.8625 34.025C62.35 32.175 65 30.2375 65 27.5C65 24.7625 62.325 22.725 61.8625 20.975C61.4 19.225 62.675 16.0875 61.3125 13.75C59.95 11.4125 56.65 11 55.3375 9.675C54.025 8.35 53.6125 5 51.25 3.675C48.8875 2.35 45.875 3.675 44.025 3.1375C42.175 2.6 40.25 0 37.5 0C34.75 0 32.7375 2.6625 30.975 3.1375C29.025 3.65 26.1 2.3125 23.75 3.675C21.4 5.0375 21.0125 8.325 19.675 9.6625C18.3375 11 15 11.3875 13.75 13.75C12.5 16.1125 13.75 19.125 13.2 20.975C12.65 22.825 10 24.7375 10 27.5C10 30.2625 12.6625 32.2375 13.1375 34.0125ZM26.9625 72.5L25.5 67.6125C25.253 66.8504 24.6558 66.2529 23.8938 66.0055C23.1319 65.7581 22.2975 65.8909 21.65 66.3625L17.5 69.2625C24.2 49.75 23.625 51.25 23.75 51.25C26.05 52.5875 29.125 51.25 30.975 51.7875C31.8766 52.1745 32.7184 52.688 33.475 53.3125L26.9625 72.5ZM53.35 66.25C52.6854 65.7812 51.8342 65.6651 51.0683 65.9386C50.3023 66.2122 49.7173 66.8412 49.5 67.625L48.0375 72.5L41.4625 53.3625C42.213 52.7326 43.0562 52.2224 43.9625 51.85C45.925 51.325 48.8375 52.6625 51.1875 51.3C51.3125 51.225 50.75 49.775 57.4375 69.25L53.35 66.25ZM13.9 24.625C15.6875 22.125 15.9375 21.3 15.65 18.0625C15.3625 14.825 15.5375 14.6 18.45 13.2625C21.3625 11.925 21.9375 11.3375 23.2625 8.4375C24.5875 5.5375 25 5.3625 28.075 5.65C31.15 5.9375 32.1125 5.65 34.6375 3.9C37.1625 2.15 37.725 2.0375 40.3625 3.9C43 5.7625 43.75 5.925 46.925 5.65C50.1 5.375 50.4 5.5375 51.7375 8.4375C53.075 11.3375 53.675 11.925 56.55 13.2625C59.425 14.6 59.6375 14.9375 59.35 18.0625C59.0625 21.1875 59.35 22.1125 61.1 24.625C62.85 27.1375 62.9625 27.7125 61.1 30.35C59.2375 32.9875 59.0625 33.675 59.35 36.9125C59.6375 40.15 59.4625 40.375 56.55 41.725C53.6375 43.075 53.075 43.6375 51.7375 46.5375C50.4 49.4375 50.0625 49.6125 46.925 49.3375C43.7875 49.0625 42.8875 49.3375 40.3625 51.075C37.8375 52.8125 37.275 52.9375 34.6375 51.075C33.3346 49.8967 31.6441 49.2383 29.8875 49.225C28.0875 49.225 26.05 49.7375 25 49.1375C23.5625 48.3 23.175 45.275 21.4375 43.55C19.7 41.825 16.6625 41.4 15.85 40C15.0375 38.6 16.1875 35.75 15.55 33.3875C14.9125 31.025 12.5 29.1625 12.5 27.5C12.6893 26.4298 13.1743 25.434 13.9 24.625Z" fill="black"/>
<path d="M37.5 46.25C47.8553 46.25 56.25 37.8553 56.25 27.5C56.25 17.1447 47.8553 8.75 37.5 8.75C27.1447 8.75 18.75 17.1447 18.75 27.5C18.75 37.8553 27.1447 46.25 37.5 46.25ZM37.5 11.25C46.4746 11.25 53.75 18.5254 53.75 27.5C53.75 36.4746 46.4746 43.75 37.5 43.75C28.5254 43.75 21.25 36.4746 21.25 27.5C21.25 23.1902 22.962 19.057 26.0095 16.0095C29.057 12.962 33.1902 11.25 37.5 11.25Z" fill="#1BC8A9"/>
<path d="M28.8123 31.5374C29.4782 31.5041 30.0007 30.9541 29.9998 30.2874C29.9411 28.0719 30.8112 25.9328 32.3998 24.3874C34.2873 22.5124 36.5123 22.0124 39.2498 21.5499C41.1389 21.2251 42.9447 20.5282 44.5623 19.4999C46.1873 25.7499 43.2248 33.4999 37.0623 35.5499C35.6177 36.0254 34.1081 36.2741 32.5873 36.2874C34.4014 32.9054 36.9672 29.9846 40.0873 27.7499C40.3564 27.5547 40.5367 27.2604 40.5883 26.932C40.6399 26.6036 40.5586 26.2682 40.3623 25.9999C39.9566 25.4472 39.1814 25.3246 38.6248 25.7249C34.5738 28.5325 31.4047 32.4343 29.4873 36.9749C29.3587 37.3364 29.4032 37.737 29.6081 38.0614C29.813 38.3859 30.1556 38.5982 30.5373 38.6374C37.0748 39.3374 42.9498 36.6874 45.8623 30.3874C47.8117 26.1813 48.0007 21.371 46.3873 17.0249C46.2442 16.669 45.9456 16.3985 45.5773 16.2911C45.2089 16.1838 44.8117 16.2516 44.4998 16.4749C42.838 17.7746 40.8868 18.6537 38.8123 19.0374C35.7498 19.5499 33.0248 20.1749 30.6123 22.5624C28.5363 24.6068 27.408 27.4251 27.4998 30.3374C27.5128 30.6713 27.6588 30.9861 27.9054 31.2115C28.152 31.437 28.4786 31.5544 28.8123 31.5374Z" fill="#1BC8A9"/>
</g>
<defs>
<clipPath id="clip0">
<rect width="75" height="75" fill="white"/>
</clipPath>
</defs>
</svg>
