<svg width="75" height="75" viewBox="0 0 75 75" fill="none" xmlns="http://www.w3.org/2000/svg">
<path d="M37.5123 30.0002C33.378 30.0009 30.0269 33.3529 30.0273 37.4873C30.0278 41.6217 33.3796 44.973 37.514 44.9727C41.6484 44.9725 44.9998 41.6209 44.9998 37.4865C44.9923 33.3546 41.6442 30.0071 37.5123 30.0002ZM37.5123 42.4715C34.7585 42.4708 32.5267 40.2378 32.5273 37.484C32.528 34.7302 34.761 32.4983 37.5148 32.499C40.2687 32.4997 42.5005 34.7327 42.4998 37.4865C42.4964 40.2392 40.265 42.4694 37.5123 42.4715Z" fill="#1BC8A9"/>
<path d="M24.5 13.2851C24.1992 13.4489 23.9788 13.7288 23.8902 14.0596C23.8016 14.3904 23.8526 14.743 24.0313 15.0351L32.0313 28.0151C32.3817 28.5705 33.1004 28.7627 33.6812 28.4564C36.1149 27.4374 38.8541 27.4293 41.2937 28.4339C41.8804 28.7824 42.6382 28.596 42.9962 28.0151L50.9962 15.0351C51.1749 14.743 51.2259 14.3904 51.1373 14.0596C51.0487 13.7288 50.8283 13.4489 50.5275 13.2851C42.4049 8.90333 32.6226 8.90333 24.5 13.2851ZM41.4125 25.8176C38.8779 24.977 36.1396 24.977 33.605 25.8176L26.875 14.8851C33.622 11.7583 41.403 11.7583 48.15 14.8851L41.4125 25.8176Z" fill="#1BC8A9"/>
<path d="M50.1676 60.2826C50.3175 60.6346 50.6205 60.8986 50.9897 60.9991C51.3589 61.0995 51.7538 61.0252 52.0614 60.7976C59.8628 55.9457 64.7147 47.5082 64.9839 38.3251C64.9944 37.9812 64.8626 37.6482 64.6196 37.4045C64.3767 37.1609 64.0441 37.0281 63.7001 37.0376L48.5214 37.4638C47.8701 37.4464 47.3146 37.9322 47.2451 38.5801C46.954 41.2615 45.5612 43.7012 43.4001 45.3151C42.8367 45.6637 42.6431 46.3913 42.9589 46.9738L50.1676 60.2826ZM49.5626 39.9351L62.4101 39.5751C61.7983 46.9986 57.8956 53.7584 51.7726 58.0001L45.6476 46.7026C47.6554 44.9338 49.0302 42.5574 49.5626 39.9351Z" fill="#1BC8A9"/>
<path d="M24.825 60.3401L32.0662 46.9738C32.3649 46.4232 32.21 45.7365 31.7037 45.3676C29.5037 43.7538 28.0806 41.2919 27.78 38.5801C27.7308 38.132 27.4442 37.7452 27.03 37.5676C26.7 37.4251 27.235 37.4838 11.32 37.0376C10.976 37.0281 10.6434 37.1609 10.4005 37.4045C10.1575 37.6482 10.0258 37.9812 10.0362 38.3251C10.3057 47.4945 15.1442 55.9212 22.9275 60.7763C23.2247 61.0103 23.612 61.097 23.9806 61.0123C24.3493 60.9275 24.6597 60.6804 24.825 60.3401ZM12.615 39.5751L25.4625 39.9351C25.9985 42.5508 27.3724 44.9204 29.3762 46.6851L23.25 58.0001C17.128 53.7579 13.2262 46.9981 12.615 39.5751Z" fill="#1BC8A9"/>
<path d="M37.5 0C16.7893 0 0 16.7893 0 37.5C0 58.2107 16.7893 75 37.5 75C58.2107 75 75 58.2107 75 37.5C74.9766 16.799 58.201 0.0234213 37.5 0ZM37.5 72.5C18.17 72.5 2.5 56.83 2.5 37.5C2.5 18.17 18.17 2.5 37.5 2.5C56.83 2.5 72.5 18.17 72.5 37.5C72.478 56.8208 56.8208 72.478 37.5 72.5Z" fill="black"/>
<path d="M60.4702 14.5298C60.1563 14.2049 59.6916 14.0746 59.2545 14.189C58.8175 14.3034 58.4762 14.6447 58.3618 15.0817C58.2474 15.5187 58.3777 15.9835 58.7027 16.2973C64.3492 21.9063 67.517 29.541 67.5002 37.4998C67.5002 61.6248 40.4252 75.6823 20.7402 62.3748C20.1682 61.9882 19.3911 62.1385 19.0045 62.7105C18.6179 63.2824 18.7682 64.0595 19.3402 64.4461C40.6864 78.8748 70.0002 63.6248 70.0002 37.4998C70.0187 28.8777 66.5871 20.6065 60.4702 14.5298Z" fill="black"/>
<path d="M7.50025 37.5001C7.51678 27.4518 12.5575 18.0774 20.9311 12.5228C29.3046 6.96819 39.9012 5.96931 49.1653 9.86136C49.5766 10.0355 50.0495 9.97704 50.406 9.70793C50.7625 9.43881 50.9483 8.99996 50.8935 8.55668C50.8387 8.11339 50.5516 7.73303 50.1403 7.55886C36.8929 1.9588 21.5402 5.73472 12.4015 16.8405C3.26289 27.9462 2.51332 43.7387 10.559 55.6601C10.8091 56.0301 11.2376 56.2386 11.683 56.207C12.1285 56.1754 12.5233 55.9086 12.7187 55.507C12.914 55.1054 12.8803 54.6301 12.6302 54.2601C9.27936 49.3138 7.49209 43.4746 7.50025 37.5001Z" fill="black"/>
</svg>
