<svg width="75" height="75" viewBox="0 0 75 75" fill="none" xmlns="http://www.w3.org/2000/svg">
<path d="M39.4593 39.5729H32.4992V32.6129C32.4992 31.9587 31.9688 31.4282 31.3145 31.4282H24.7988C24.1445 31.4282 23.6141 31.9587 23.6141 32.6129V39.5729H16.506C15.8517 39.5729 15.3213 40.1034 15.3213 40.7576V47.4215C15.3213 48.0757 15.8517 48.6061 16.506 48.6061H23.6141V55.5662C23.6141 56.2204 24.1445 56.7508 24.7988 56.7508H31.3145C31.9688 56.7508 32.4992 56.2204 32.4992 55.5662V48.6061H39.4593C40.1135 48.6061 40.6439 48.0757 40.6439 47.4215V40.7576C40.6439 40.1034 40.1135 39.5729 39.4593 39.5729ZM38.2746 46.2368H31.3145C30.6603 46.2368 30.1299 46.7672 30.1299 47.4215V54.3815H25.9835V47.4215C25.9835 46.7672 25.453 46.2368 24.7988 46.2368H17.6907V41.9423H24.7988C25.453 41.9423 25.9835 41.4118 25.9835 40.7576V33.7976H30.1299V40.7576C30.1299 41.4118 30.6603 41.9423 31.3145 41.9423H38.2746V46.2368Z" fill="#1BC8A9"/>
<path d="M52.2669 6.80151C44.8499 6.81019 38.8392 12.821 38.8311 20.238C38.8311 20.8332 39.2736 21.3359 39.8636 21.4122C40.4542 21.4886 41.0095 21.1149 41.1611 20.5393C41.2658 20.1419 41.529 19.4518 41.7436 19.2002C42.1057 18.8607 42.5824 18.6698 43.0787 18.6657C43.5727 18.6622 44.0488 18.8502 44.4062 19.1915C44.7556 19.556 44.9523 20.0396 44.9569 20.544C44.9569 21.1982 45.4874 21.7287 46.1416 21.7287C46.7959 21.7287 47.3263 21.1982 47.3263 20.544C47.3153 20.043 47.5103 19.5589 47.8643 19.2043C48.2189 18.8497 48.703 18.6553 49.204 18.6657C49.6876 18.6622 50.1527 18.8514 50.4963 19.1915C50.8329 19.5606 51.0169 20.0442 51.0099 20.544V29.7368C51.0232 29.8716 50.9781 30.0047 50.8861 30.1036C50.7942 30.2025 50.664 30.2575 50.5292 30.254C50.3927 30.258 50.2608 30.2042 50.1654 30.1059C50.0705 30.0076 50.0213 29.8734 50.0306 29.7368C50.0352 29.3128 49.8119 28.9195 49.4452 28.706C49.079 28.4926 48.6261 28.4926 48.2599 28.706C47.8932 28.9195 47.6699 29.3128 47.6745 29.7368C47.6641 30.763 48.2056 31.7158 49.0923 32.2317C49.9791 32.7477 51.0747 32.7477 51.9615 32.2317C52.8489 31.7158 53.3897 30.763 53.3793 29.7368V20.544C53.3943 20.0407 53.5997 19.5617 53.9543 19.2043C54.3239 18.8618 54.8081 18.6698 55.3119 18.6657C55.8088 18.6617 56.2878 18.8502 56.6488 19.1915C56.9993 19.5548 57.1977 20.039 57.2035 20.544C57.211 21.1942 57.7397 21.7171 58.3899 21.7171C59.0401 21.7171 59.5694 21.1942 59.5763 20.544C59.5659 20.0424 59.7609 19.5589 60.1155 19.2043C60.4701 18.8497 60.9542 18.6553 61.4552 18.6657C61.9486 18.6617 62.4235 18.8497 62.781 19.1886C62.9794 19.4119 63.2455 20.0621 63.3733 20.5393C63.5249 21.1149 64.0802 21.4892 64.6708 21.4128C65.262 21.3365 65.704 20.8332 65.704 20.2374C65.6953 12.8204 59.6845 6.80961 52.2669 6.80151ZM61.4558 16.2963C60.3416 16.3015 59.2715 16.7337 58.4657 17.503C58.4483 17.5198 58.4316 17.5366 58.4148 17.5539L58.3928 17.5776L58.3708 17.5539C58.3627 17.5452 58.3541 17.5366 58.346 17.5285C57.5419 16.7371 56.4584 16.294 55.3299 16.2963C54.2158 16.3015 53.1456 16.7337 52.3398 17.503C52.3225 17.5198 52.3057 17.5366 52.2889 17.5539L52.2669 17.5776L52.2449 17.5539C52.2368 17.5452 52.2282 17.5366 52.2201 17.5285C51.416 16.7371 50.3326 16.294 49.204 16.2963C48.0899 16.3015 47.0197 16.7337 46.2145 17.503C46.1966 17.5198 46.1798 17.5366 46.1636 17.5539L46.1416 17.5776L46.1191 17.5539C46.111 17.5452 46.1029 17.5366 46.0942 17.5285C44.9795 16.4323 43.3575 16.0291 41.8593 16.4757C43.4437 12.0927 47.6045 9.17204 52.2652 9.17146C56.9258 9.1703 61.0879 12.0892 62.674 16.4716C62.2783 16.3553 61.8682 16.2963 61.4558 16.2958V16.2963Z" fill="#1BC8A9"/>
<path d="M52.267 0C43.0284 0 35.2557 6.38908 33.1304 14.9798L28.6682 12.7886C28.3396 12.6272 27.9543 12.6272 27.6252 12.7886L3.72327 24.4792C3.31025 24.6753 3.04242 25.0866 3.03027 25.5436V47.912C3.03027 50.6638 3.93614 53.8384 5.52806 56.851C7.12114 59.8676 9.26896 62.3851 11.5492 63.9394L27.4713 74.7942C27.8757 75.0684 28.4073 75.0684 28.8116 74.7942L44.7412 63.94C49.4939 60.6995 53.2313 53.6596 53.2313 47.912V39.4018C63.5973 38.9118 71.9942 30.2679 71.9942 19.7122C71.9942 8.84291 63.1362 0 52.267 0V0ZM43.4073 61.9819L28.1533 72.3809L12.8728 61.9819C8.84032 59.2325 5.39964 52.789 5.39964 47.912V26.2823L28.1163 15.1713L32.6763 17.4047C32.593 18.1711 32.5548 18.9417 32.5618 19.7127C32.5618 30.0996 40.644 38.6353 50.8619 39.3717V47.912C50.8619 52.8729 47.5103 59.1851 43.4073 61.9819ZM52.267 37.0555C42.6889 37.0555 34.9242 29.2909 34.9242 19.7127C34.9236 10.1346 42.6883 2.36995 52.2664 2.36995C61.8445 2.36937 69.6098 10.134 69.6098 19.7122C69.5988 29.2862 61.8411 37.0445 52.267 37.0555Z" fill="black"/>
</svg>
