<svg width="75" height="75" viewBox="0 0 75 75" fill="none" xmlns="http://www.w3.org/2000/svg">
<g clip-path="url(#clip0)">
<path d="M19.2024 58.6713C18.8246 54.551 16.9288 51.5359 15.0051 48.4439C11.1996 42.4069 7.17018 36.013 16.2643 19.6367C16.5936 19.0127 16.3557 18.2398 15.7326 17.9088C15.1149 17.5648 14.3353 17.7867 13.9913 18.4044C13.9911 18.4048 13.9909 18.4051 13.9908 18.4055C4.15514 36.097 8.60425 43.1414 12.8015 49.8081C14.5854 52.6062 16.2992 55.4044 16.649 58.9021C16.7129 59.6073 17.336 60.1272 18.0411 60.0634C18.7463 59.9996 19.2662 59.3764 19.2024 58.6713Z" fill="black"/>
<path d="M50.1083 19.6857C49.7008 20.8062 49.1253 21.8583 48.4014 22.8057C47.126 24.5241 45.2727 25.724 43.1828 26.1845C40.9582 26.6671 38.286 26.3663 35.236 24.9882C30.8218 22.9945 25.6802 18.8112 20.0279 11.6129C23.2458 11.2841 28.961 10.2488 33.2213 7.00992C36.8239 4.2677 40.0768 3.26035 42.7701 3.51219C43.9273 3.60418 45.0501 3.95046 46.0579 4.52653C47.0525 5.10296 47.921 5.87386 48.6113 6.79306C49.7178 8.29988 50.4514 10.0475 50.7519 11.8927C51.6644 12.0645 52.5644 12.2981 53.4451 12.5923C53.1978 9.92422 52.2307 7.37333 50.6469 5.21209C49.7444 4.01569 48.6093 3.01394 47.3101 2.267C45.9742 1.50345 44.4859 1.04489 42.9519 0.923873C39.6641 0.651051 35.8026 1.8053 31.6403 4.97424C26.4217 8.94066 18.5658 9.17151 17.6004 9.17151C16.8911 9.12499 16.2783 9.66224 16.2318 10.3716C16.2118 10.6754 16.3001 10.9763 16.4812 11.2212C23.0289 19.9725 29.024 24.9672 34.1727 27.3107C37.7683 28.9267 40.9792 29.2695 43.7145 28.7098C46.4088 28.118 48.7972 26.5697 50.4371 24.3516C51.298 23.2124 51.9843 21.951 52.4728 20.6091L52.2699 20.5111C51.5735 20.1764 50.8505 19.9003 50.1083 19.6857Z" fill="#1BC8A9"/>
<path d="M68.6743 30.7595C58.251 13.3897 49.9265 13.7115 42.0566 14.0193C38.7128 14.1522 35.4599 14.2782 32.2629 12.8021C31.5956 12.5687 30.8653 12.9205 30.632 13.5879C30.431 14.1626 30.6626 14.7993 31.1856 15.1106C34.9422 16.8385 38.4959 16.7056 42.1475 16.5587C49.2829 16.3068 56.838 16.013 66.4707 32.0746C66.8339 32.683 67.6216 32.882 68.2301 32.5188C68.8385 32.1557 69.0375 31.3681 68.6743 30.7595Z" fill="black"/>
<path d="M28.2616 49.983C27.8699 46.0655 26.5547 43.1134 24.673 41.0358C22.8197 39.0001 20.2929 37.7033 17.5586 37.3842C16.1436 37.2072 14.71 37.2425 13.3054 37.4891C13.3054 37.566 13.3054 37.636 13.3054 37.713C13.3659 38.4917 13.4923 39.264 13.6831 40.0215C14.8536 39.81 16.0495 39.777 17.2298 39.9235C19.3508 40.1601 21.3155 41.1537 22.7632 42.7217C24.2882 44.4076 25.3655 46.87 25.7013 50.1998C26.184 55.0127 25.1347 61.5535 21.7419 70.0809C19.8461 67.4506 16.0895 63.0155 11.1577 60.9449C6.96048 59.189 4.47709 56.8875 3.32984 54.4461C2.82634 53.4097 2.55649 52.2754 2.53935 51.1232C2.54512 49.9707 2.78314 48.831 3.23889 47.7724C3.99003 46.0599 5.13589 44.5498 6.58272 43.3653C6.28839 42.4821 6.05456 41.58 5.88318 40.665C3.69465 42.2124 1.96817 44.3259 0.888422 46.7791C0.303428 48.1526 0.0012242 49.6302 0 51.1232C0.00629591 52.6629 0.352571 54.1822 1.01434 55.5723C2.41343 58.5594 5.35852 61.3296 10.1714 63.3513C16.5932 66.0375 20.8604 73.3898 20.9024 73.4667C21.2518 74.0814 22.0332 74.2964 22.648 73.9471C22.8945 73.8069 23.0878 73.5888 23.1969 73.3268C27.4991 63.2883 28.8283 55.6003 28.2616 49.983Z" fill="#1BC8A9"/>
<path d="M64.6835 47.6011C64.2759 47.0216 63.4758 46.8822 62.8962 47.2898C59.5174 49.6753 57.8595 52.8302 56.1526 56.0691C52.8228 62.365 49.3041 69.0737 30.5772 69.3605C29.8702 69.372 29.3065 69.9546 29.318 70.6617C29.3296 71.3687 29.9121 71.9324 30.6192 71.9208C50.871 71.5851 54.7535 64.2258 58.4261 57.2304C59.9791 54.2853 61.4971 51.4032 64.3722 49.3885C64.9518 48.981 65.0912 48.1807 64.6835 47.6011Z" fill="black"/>
<path d="M74.3507 36.6144C74.1123 36.4783 73.8367 36.422 73.5643 36.4537L73.5992 36.4886C62.7493 37.7758 55.425 40.476 50.808 43.7919C47.6111 46.0934 45.7083 48.6887 44.8549 51.368C44.0184 53.9886 44.1575 56.8235 45.2466 59.3498C45.803 60.6642 46.5527 61.8879 47.4712 62.9804L47.6531 62.8545C48.2977 62.412 48.9039 61.9161 49.4649 61.3715C48.6993 60.4676 48.0744 59.4537 47.6111 58.3634C46.7615 56.3926 46.6547 54.1808 47.3103 52.1375C48.0099 49.9689 49.5978 47.8143 52.3191 45.8416C56.2435 43.0434 62.4275 40.6579 71.5076 39.3358C70.1854 42.2949 68.2197 47.7303 68.8983 53.0609C69.4719 57.5589 68.7234 60.8748 67.1774 63.0993C66.52 64.054 65.6601 64.8517 64.659 65.4358C63.6604 66.0093 62.5564 66.3757 61.4131 66.5131C59.5531 66.717 57.6713 66.4773 55.9217 65.8136C55.3075 66.5133 54.6461 67.1702 53.942 67.7793C56.3748 68.8986 59.0658 69.3361 61.7279 69.0455C63.2066 68.8646 64.6338 68.3889 65.9252 67.6464C67.2552 66.8702 68.3971 65.8095 69.269 64.5404C71.1508 61.8262 72.0672 57.9087 71.4236 52.7251C70.5422 45.7996 74.8164 38.3914 74.8304 38.3704C75.1828 37.7531 74.9681 36.967 74.3507 36.6144Z" fill="#1BC8A9"/>
</g>
<defs>
<clipPath id="clip0">
<rect width="75" height="75" fill="white"/>
</clipPath>
</defs>
</svg>
