<svg width="75" height="75" viewBox="0 0 75 75" fill="none" xmlns="http://www.w3.org/2000/svg">
<path d="M30.1758 25.4544H33.5449V28.8235C33.5449 29.0954 33.653 29.3563 33.8453 29.5486C34.0375 29.7409 34.2984 29.8489 34.5703 29.8489H40.4297C40.7016 29.8489 40.9624 29.7409 41.1547 29.5486C41.347 29.3563 41.4551 29.0954 41.4551 28.8235V25.4544H44.8242C45.0962 25.4544 45.357 25.3463 45.5493 25.154C45.7416 24.9617 45.8496 24.7009 45.8496 24.429V18.5696C45.8496 18.2976 45.7416 18.0368 45.5493 17.8445C45.357 17.6522 45.0962 17.5442 44.8242 17.5442H41.4551V14.175C41.4551 13.9031 41.347 13.6423 41.1547 13.45C40.9624 13.2577 40.7016 13.1497 40.4297 13.1497H34.5703C34.2984 13.1497 34.0375 13.2577 33.8453 13.45C33.653 13.6423 33.5449 13.9031 33.5449 14.175V17.5442H30.1758C29.9038 17.5442 29.643 17.6522 29.4507 17.8445C29.2584 18.0368 29.1504 18.2976 29.1504 18.5696V24.429C29.1504 24.7009 29.2584 24.9617 29.4507 25.154C29.643 25.3463 29.9038 25.4544 30.1758 25.4544ZM31.2012 19.595H34.5703C34.8423 19.595 35.1031 19.4869 35.2954 19.2946C35.4877 19.1023 35.5957 18.8415 35.5957 18.5696V15.2004H39.4043V18.5696C39.4043 18.8415 39.5123 19.1023 39.7046 19.2946C39.8969 19.4869 40.1577 19.595 40.4297 19.595H43.7988V23.4036H40.4297C40.1577 23.4036 39.8969 23.5116 39.7046 23.7039C39.5123 23.8962 39.4043 24.157 39.4043 24.429V27.7981H35.5957V24.429C35.5957 24.157 35.4877 23.8962 35.2954 23.7039C35.1031 23.5116 34.8423 23.4036 34.5703 23.4036H31.2012V19.595Z" fill="#1BC8A9"/>
<path d="M33.6553 40.7227C33.9272 40.7227 34.188 40.6146 34.3803 40.4223C34.5726 40.23 34.6807 39.9692 34.6807 39.6973V33.8379C34.6807 33.5659 34.5726 33.3051 34.3803 33.1128C34.188 32.9205 33.9272 32.8125 33.6553 32.8125H27.7959C27.5239 32.8125 27.2631 32.9205 27.0708 33.1128C26.8785 33.3051 26.7705 33.5659 26.7705 33.8379V39.6973C26.7705 39.9692 26.8785 40.23 27.0708 40.4223C27.2631 40.6146 27.5239 40.7227 27.7959 40.7227H33.6553ZM28.8213 34.8633H32.6299V38.6719H28.8213V34.8633Z" fill="#1BC8A9"/>
<path d="M40.3203 33.8379V39.6973C40.3203 39.9692 40.4283 40.23 40.6206 40.4223C40.8129 40.6146 41.0738 40.7227 41.3457 40.7227H47.2051C47.477 40.7227 47.7378 40.6146 47.9301 40.4223C48.1224 40.23 48.2305 39.9692 48.2305 39.6973V33.8379C48.2305 33.5659 48.1224 33.3051 47.9301 33.1128C47.7378 32.9205 47.477 32.8125 47.2051 32.8125H41.3457C41.0738 32.8125 40.8129 32.9205 40.6206 33.1128C40.4283 33.3051 40.3203 33.5659 40.3203 33.8379ZM42.3711 34.8633H46.1797V38.6719H42.3711V34.8633Z" fill="#1BC8A9"/>
<path d="M71.1914 23.5166H55.3711V3.80859C55.3711 3.53664 55.2631 3.27583 55.0708 3.08353C54.8785 2.89124 54.6177 2.7832 54.3457 2.7832H20.6543C20.3823 2.7832 20.1215 2.89124 19.9292 3.08353C19.7369 3.27583 19.6289 3.53664 19.6289 3.80859V23.5166H3.80859C3.53664 23.5166 3.27583 23.6246 3.08353 23.8169C2.89124 24.0092 2.7832 24.27 2.7832 24.542V71.1914C2.7832 71.4634 2.89124 71.7242 3.08353 71.9165C3.27583 72.1088 3.53664 72.2168 3.80859 72.2168H71.1914C71.4634 72.2168 71.7242 72.1088 71.9165 71.9165C72.1088 71.7242 72.2168 71.4634 72.2168 71.1914V24.542C72.2168 24.27 72.1088 24.0092 71.9165 23.8169C71.7242 23.6246 71.4634 23.5166 71.1914 23.5166ZM4.83398 25.5674H19.6289V70.166H4.83398V25.5674ZM21.6797 24.542V4.83398H53.3203V70.166H46.5996V47.8664C46.5996 47.5945 46.4916 47.3336 46.2993 47.1413C46.107 46.949 45.8462 46.841 45.5742 46.841H29.4258C29.1538 46.841 28.893 46.949 28.7007 47.1413C28.5084 47.3336 28.4004 47.5945 28.4004 47.8664V70.166H21.6797V24.542ZM30.4512 48.8918H36.4746V70.166H30.4512V48.8918ZM38.5254 70.166V48.8918H44.5488V70.166H38.5254ZM70.166 70.166H55.3711V25.5674H70.166V70.166Z" fill="black"/>
<path d="M59.8389 40.7227H65.6982C65.9702 40.7227 66.231 40.6146 66.4233 40.4223C66.6156 40.23 66.7236 39.9692 66.7236 39.6973V33.8379C66.7236 33.5659 66.6156 33.3051 66.4233 33.1128C66.231 32.9205 65.9702 32.8125 65.6982 32.8125H59.8389C59.5669 32.8125 59.3061 32.9205 59.1138 33.1128C58.9215 33.3051 58.8135 33.5659 58.8135 33.8379V39.6973C58.8135 39.9692 58.9215 40.23 59.1138 40.4223C59.3061 40.6146 59.5669 40.7227 59.8389 40.7227ZM60.8643 34.8633H64.6729V38.6719H60.8643V34.8633Z" fill="#1BC8A9"/>
<path d="M59.8389 53.4329H65.6982C65.9702 53.4329 66.231 53.3248 66.4233 53.1325C66.6156 52.9402 66.7236 52.6794 66.7236 52.4075V46.5481C66.7236 46.2761 66.6156 46.0153 66.4233 45.823C66.231 45.6307 65.9702 45.5227 65.6982 45.5227H59.8389C59.5669 45.5227 59.3061 45.6307 59.1138 45.823C58.9215 46.0153 58.8135 46.2761 58.8135 46.5481V52.4075C58.8135 52.6794 58.9215 52.9402 59.1138 53.1325C59.3061 53.3248 59.5669 53.4329 59.8389 53.4329ZM60.8643 47.5735H64.6729V51.3821H60.8643V47.5735Z" fill="#1BC8A9"/>
<path d="M59.8389 66.1436H65.6982C65.8329 66.1436 65.9662 66.117 66.0906 66.0655C66.215 66.014 66.3281 65.9384 66.4233 65.8432C66.5185 65.748 66.594 65.635 66.6456 65.5106C66.6971 65.3862 66.7236 65.2528 66.7236 65.1182V59.2588C66.7236 58.9868 66.6156 58.726 66.4233 58.5337C66.231 58.3414 65.9702 58.2334 65.6982 58.2334H59.8389C59.5669 58.2334 59.3061 58.3414 59.1138 58.5337C58.9215 58.726 58.8135 58.9868 58.8135 59.2588V65.1182C58.8135 65.2528 58.84 65.3862 58.8915 65.5106C58.9431 65.635 59.0186 65.748 59.1138 65.8432C59.209 65.9384 59.3221 66.014 59.4465 66.0655C59.5709 66.117 59.7042 66.1436 59.8389 66.1436ZM60.8643 60.2842H64.6729V64.0928H60.8643V60.2842Z" fill="#1BC8A9"/>
<path d="M15.1611 32.8125H9.30176C9.02981 32.8125 8.76899 32.9205 8.5767 33.1128C8.3844 33.3051 8.27637 33.5659 8.27637 33.8379V39.6973C8.27637 39.9692 8.3844 40.23 8.5767 40.4223C8.76899 40.6146 9.02981 40.7227 9.30176 40.7227H15.1611C15.4331 40.7227 15.6939 40.6146 15.8862 40.4223C16.0785 40.23 16.1865 39.9692 16.1865 39.6973V33.8379C16.1865 33.5659 16.0785 33.3051 15.8862 33.1128C15.6939 32.9205 15.4331 32.8125 15.1611 32.8125ZM14.1357 38.6719H10.3271V34.8633H14.1357V38.6719Z" fill="#1BC8A9"/>
<path d="M15.1611 45.5227H9.30176C9.02981 45.5227 8.76899 45.6307 8.5767 45.823C8.3844 46.0153 8.27637 46.2761 8.27637 46.5481V52.4075C8.27637 52.6794 8.3844 52.9402 8.5767 53.1325C8.76899 53.3248 9.02981 53.4329 9.30176 53.4329H15.1611C15.4331 53.4329 15.6939 53.3248 15.8862 53.1325C16.0785 52.9402 16.1865 52.6794 16.1865 52.4075V46.5481C16.1865 46.2761 16.0785 46.0153 15.8862 45.823C15.6939 45.6307 15.4331 45.5227 15.1611 45.5227ZM14.1357 51.3821H10.3271V47.5735H14.1357V51.3821Z" fill="#1BC8A9"/>
<path d="M15.1611 58.2334H9.30176C9.02981 58.2334 8.76899 58.3414 8.5767 58.5337C8.3844 58.726 8.27637 58.9868 8.27637 59.2588V65.1182C8.27637 65.2528 8.30289 65.3862 8.35442 65.5106C8.40595 65.635 8.48148 65.748 8.5767 65.8432C8.67191 65.9384 8.78495 66.014 8.90936 66.0655C9.03376 66.117 9.1671 66.1436 9.30176 66.1436H15.1611C15.2958 66.1436 15.4291 66.117 15.5535 66.0655C15.6779 66.014 15.791 65.9384 15.8862 65.8432C15.9814 65.748 16.0569 65.635 16.1085 65.5106C16.16 65.3862 16.1865 65.2528 16.1865 65.1182V59.2588C16.1865 58.9868 16.0785 58.726 15.8862 58.5337C15.6939 58.3414 15.4331 58.2334 15.1611 58.2334ZM14.1357 64.0928H10.3271V60.2842H14.1357V64.0928Z" fill="#1BC8A9"/>
</svg>
