<svg width="17" height="20" viewBox="0 0 17 20" fill="none" xmlns="http://www.w3.org/2000/svg">
<path d="M8.42756 10.5341C8.44826 10.5341 8.46895 10.5341 8.49378 10.5341C8.50206 10.5341 8.51034 10.5341 8.51861 10.5341C8.53103 10.5341 8.54758 10.5341 8.56 10.5341C9.77265 10.5138 10.7535 10.0968 11.4778 9.2993C13.0712 7.54227 12.8063 4.53022 12.7774 4.24278C12.6739 2.08495 11.6309 1.0526 10.7701 0.570832C10.1286 0.21052 9.37947 0.0161938 8.54345 0H8.51447C8.51034 0 8.50206 0 8.49792 0H8.47309C8.01369 0 7.11145 0.0728722 6.24645 0.554638C5.37732 1.0364 4.31781 2.06876 4.21434 4.24278C4.18537 4.53022 3.92049 7.54227 5.5139 9.2993C6.23404 10.0968 7.21492 10.5138 8.42756 10.5341ZM5.31938 4.34399C5.31938 4.33185 5.32352 4.3197 5.32352 4.31161C5.4601 1.40886 7.56671 1.09713 8.46895 1.09713H8.4855C8.49378 1.09713 8.5062 1.09713 8.51861 1.09713C9.63607 1.12142 11.5357 1.56675 11.664 4.31161C11.664 4.32375 11.664 4.3359 11.6682 4.34399C11.6723 4.37233 11.962 7.12528 10.6459 8.57463C10.1244 9.14951 9.42913 9.4329 8.51447 9.441C8.5062 9.441 8.50206 9.441 8.49378 9.441C8.4855 9.441 8.48137 9.441 8.47309 9.441C7.56257 9.4329 6.86312 9.14951 6.34578 8.57463C5.03381 7.13338 5.31524 4.36828 5.31938 4.34399Z" fill="#2A2D33"/>
<path d="M16.9988 15.5299C16.9988 15.5258 16.9988 15.5218 16.9988 15.5177C16.9988 15.4853 16.9947 15.453 16.9947 15.4165C16.9699 14.6149 16.9161 12.7405 15.1199 12.1413C15.1074 12.1373 15.0909 12.1332 15.0785 12.1292C13.2119 11.6636 11.6599 10.611 11.6433 10.5989C11.3909 10.4248 11.0432 10.4855 10.8653 10.7325C10.6873 10.9794 10.7494 11.3195 11.0018 11.4936C11.0722 11.5421 12.7194 12.6636 14.7805 13.1818C15.7448 13.5178 15.8524 14.5259 15.8814 15.4489C15.8814 15.4853 15.8814 15.5177 15.8855 15.5501C15.8897 15.9145 15.8648 16.4772 15.7986 16.8011C15.1281 17.1736 12.5001 18.461 8.50205 18.461C4.52061 18.461 1.87597 17.1695 1.20135 16.797C1.13514 16.4732 1.10616 15.9104 1.11444 15.5461C1.11444 15.5137 1.11858 15.4813 1.11858 15.4449C1.14755 14.5218 1.25516 13.5137 2.21948 13.1777C4.28056 12.6595 5.92777 11.534 5.99813 11.4895C6.25059 11.3154 6.31267 10.9754 6.13471 10.7284C5.95674 10.4815 5.60909 10.4207 5.35663 10.5948C5.34007 10.607 3.79633 11.6596 1.92149 12.1251C1.90494 12.1292 1.89252 12.1332 1.8801 12.1373C0.0839008 12.7405 0.0300975 14.6149 0.00526522 15.4125C0.00526522 15.4489 0.00526513 15.4813 0.00112641 15.5137C0.00112641 15.5177 0.00112641 15.5218 0.00112641 15.5258C-0.00301231 15.7364 -0.00715095 16.8173 0.212201 17.3598C0.253588 17.465 0.328085 17.5541 0.427415 17.6148C0.551576 17.6958 3.52731 19.55 8.50619 19.55C13.4851 19.55 16.4608 17.6918 16.585 17.6148C16.6802 17.5541 16.7588 17.465 16.8002 17.3598C17.0071 16.8213 17.003 15.7404 16.9988 15.5299Z" fill="#2A2D33"/>
</svg>
