<svg width="60" height="60" viewBox="0 0 60 60" fill="none" xmlns="http://www.w3.org/2000/svg">
<path d="M40.3125 1.875C30.4907 1.875 22.5 9.86566 22.5 19.6875V19.9897C22.5002 20.9162 22.5697 21.8414 22.7079 22.7575C21.7102 22.5867 20.6998 22.5005 19.6875 22.5C9.86566 22.5 1.875 30.4907 1.875 40.3125C1.875 50.1343 9.86566 58.125 19.6875 58.125C29.5093 58.125 37.5 50.1343 37.5 40.3125V40.0103C37.4998 39.0838 37.4303 38.1586 37.2921 37.2425C38.2898 37.4133 39.3002 37.4995 40.3125 37.5C50.1343 37.5 58.125 29.5093 58.125 19.6875C58.125 9.86566 50.1343 1.875 40.3125 1.875ZM40.3125 35.625C39.1578 35.6251 38.0064 35.5005 36.8784 35.2533C36.576 34.1192 36.1638 33.0172 35.6478 31.9629C38.2649 32.9587 41.1319 33.0917 43.8299 32.3424C46.528 31.5931 48.9158 30.0009 50.6447 27.7982C52.3736 25.5955 53.353 22.8977 53.4398 20.0989C53.5266 17.3001 52.7164 14.5468 51.1273 12.2412C49.5383 9.93554 47.2537 8.19835 44.6073 7.2833C41.9608 6.36826 39.0911 6.32329 36.4173 7.15496C33.7435 7.98664 31.4056 9.65139 29.7451 11.9061C28.0846 14.1608 27.1884 16.8873 27.1875 19.6875V19.9426C27.1833 21.4716 27.4825 22.9862 28.0676 24.3988C28.6527 25.8114 29.5122 27.0939 30.5963 28.1721L30.81 28.3858C32.3413 29.9088 33.5553 31.7204 34.3819 33.7157C35.2084 35.7111 35.6309 37.8506 35.625 40.0103V40.3125C35.625 49.1005 28.4755 56.25 19.6875 56.25C10.8995 56.25 3.75 49.1005 3.75 40.3125C3.75 31.5245 10.8995 24.375 19.6875 24.375C20.8422 24.3749 21.9936 24.4995 23.1215 24.7467C23.424 25.8808 23.8362 26.9828 24.3522 28.0371C21.7351 27.0413 18.8681 26.9083 16.1701 27.6576C13.472 28.4069 11.0842 29.9991 9.35526 32.2018C7.62636 34.4045 6.64699 37.1023 6.56017 39.9011C6.47335 42.6999 7.28363 45.4532 8.87268 47.7588C10.4617 50.0645 12.7463 51.8017 15.3928 52.7167C18.0392 53.6317 20.9089 53.6767 23.5827 52.845C26.2565 52.0134 28.5944 50.3486 30.2549 48.0939C31.9154 45.8392 32.8116 43.1127 32.8125 40.3125V40.0574C32.8167 38.5284 32.5175 37.0138 31.9324 35.6012C31.3473 34.1886 30.4878 32.9061 29.4037 31.8279L29.19 31.6142C27.6587 30.0912 26.4447 28.2796 25.6182 26.2843C24.7916 24.2889 24.3691 22.1494 24.375 19.9897V19.6875C24.375 10.8995 31.5245 3.75 40.3125 3.75C49.1005 3.75 56.25 10.8995 56.25 19.6875C56.25 28.4755 49.1005 35.625 40.3125 35.625ZM34.8131 27.3378L33.8954 28.9273C33.8017 28.862 33.7081 28.7967 33.616 28.7283C33.1564 28.1431 32.6621 27.586 32.1358 27.06L31.9221 26.8463C31.6655 26.5888 31.4232 26.3173 31.1964 26.0332L32.6622 25.1869L31.7247 23.5631L30.168 24.4619C29.5461 23.2716 29.1785 21.965 29.0887 20.625H30.9375V18.75H29.1019C29.2122 17.4132 29.5625 16.1072 30.1361 14.8947L31.7247 15.8119L32.6622 14.1881L31.0763 13.2724C31.8426 12.1727 32.7977 11.2176 33.8974 10.4513L34.8131 12.0372L36.4369 11.0997L35.5197 9.51107C36.7322 8.93751 38.0382 8.58719 39.375 8.4769V10.3125H41.25V8.4769C42.5868 8.5872 43.8928 8.93752 45.1053 9.51108L44.1881 11.0997L45.8119 12.0372L46.7276 10.4513C47.8273 11.2176 48.7824 12.1727 49.5487 13.2724L47.9628 14.1881L48.9003 15.8119L50.4889 14.8947C51.0625 16.1072 51.4128 17.4132 51.5231 18.75H49.6875V20.625H51.5231C51.4128 21.9618 51.0625 23.2678 50.4889 24.4803L48.9003 23.5631L47.9628 25.1869L49.5487 26.1026C48.7824 27.2023 47.8273 28.1574 46.7276 28.9237L45.8119 27.3378L44.1881 28.2753L45.1053 29.8639C43.8928 30.4375 42.5868 30.7878 41.25 30.8981V29.0625H39.375V30.8989C38.0372 30.7915 36.73 30.4426 35.5166 29.8692L36.4369 28.2753L34.8131 27.3378ZM25.1869 32.6622L26.1046 31.0727C26.1983 31.138 26.292 31.2033 26.384 31.2717C26.8436 31.8569 27.3379 32.414 27.8642 32.94L28.0779 33.1537C28.3345 33.4112 28.5768 33.6827 28.8036 33.9668L27.3378 34.8131L28.2753 36.4369L29.832 35.5381C30.4539 36.7284 30.8215 38.035 30.9113 39.375H29.0625V41.25H30.8981C30.7878 42.5868 30.4375 43.8928 29.8639 45.1053L28.2753 44.1881L27.3378 45.8119L28.9237 46.7276C28.1574 47.8273 27.2023 48.7824 26.1026 49.5487L25.1869 47.9628L23.5631 48.9003L24.4803 50.4889C23.2678 51.0625 21.9618 51.4128 20.625 51.5231V49.6875H18.75V51.5231C17.4132 51.4128 16.1072 51.0625 14.8947 50.4889L15.8119 48.9003L14.1881 47.9628L13.2724 49.5487C12.1727 48.7824 11.2176 47.8273 10.4513 46.7276L12.0372 45.8119L11.0997 44.1881L9.51106 45.1053C8.93751 43.8928 8.58718 42.5868 8.47689 41.25H10.3125V39.375H8.47689C8.58719 38.0382 8.93752 36.7322 9.51108 35.5197L11.0997 36.4369L12.0372 34.8131L10.4513 33.8974C11.2176 32.7977 12.1727 31.8426 13.2724 31.0763L14.1881 32.6622L15.8119 31.7247L14.8947 30.1361C16.1072 29.5625 17.4132 29.2122 18.75 29.1019V30.9375H20.625V29.1011C21.9628 29.2085 23.27 29.5574 24.4834 30.1308L23.5631 31.7247L25.1869 32.6622Z" fill="url(#paint0_linear)"/>
<path d="M20.6246 37.6613V32.8125H18.7496V37.6613C18.3777 37.7926 18.0377 38.0007 17.7515 38.272C17.4653 38.5434 17.2395 38.8719 17.0886 39.2362C16.9376 39.6005 16.8651 39.9925 16.8756 40.3867C16.886 40.781 16.9794 41.1686 17.1494 41.5243L15.2742 43.3996L16.6 44.7254L18.4752 42.8501C18.8198 43.0147 19.1942 43.1074 19.5757 43.1226C19.9572 43.1377 20.3379 43.075 20.6944 42.9383C21.0509 42.8016 21.3758 42.5937 21.6493 42.3273C21.9229 42.0609 22.1393 41.7416 22.2854 41.3888C22.4315 41.0361 22.5043 40.6572 22.4992 40.2754C22.4942 39.8937 22.4114 39.5169 22.256 39.1681C22.1006 38.8194 21.8758 38.5059 21.5954 38.2468C21.3149 37.9877 20.9846 37.7885 20.6246 37.6613ZM19.6871 41.25C19.5016 41.25 19.3204 41.195 19.1662 41.092C19.012 40.989 18.8919 40.8426 18.8209 40.6713C18.75 40.5 18.7314 40.3115 18.7676 40.1296C18.8038 39.9477 18.893 39.7807 19.0242 39.6496C19.1553 39.5185 19.3223 39.4292 19.5042 39.393C19.686 39.3568 19.8745 39.3754 20.0458 39.4464C20.2171 39.5173 20.3636 39.6375 20.4666 39.7917C20.5696 39.9458 20.6246 40.1271 20.6246 40.3125C20.6243 40.5611 20.5254 40.7993 20.3497 40.9751C20.1739 41.1509 19.9356 41.2497 19.6871 41.25Z" fill="url(#paint1_linear)"/>
<path d="M39.1002 22.2251C39.4448 22.3897 39.8192 22.4824 40.2007 22.4976C40.5823 22.5127 40.9629 22.45 41.3194 22.3133C41.6759 22.1766 42.0008 21.9687 42.2744 21.7023C42.5479 21.4359 42.7643 21.1166 42.9104 20.7638C43.0566 20.4111 43.1293 20.0322 43.1243 19.6504C43.1192 19.2687 43.0365 18.8919 42.8811 18.5431C42.7257 18.1943 42.5009 17.8809 42.2204 17.6218C41.9399 17.3627 41.6096 17.1635 41.2496 17.0363V12.1875H39.3746V17.0363C39.0027 17.1676 38.6627 17.3757 38.3765 17.647C38.0903 17.9184 37.8645 18.2469 37.7136 18.6112C37.5626 18.9755 37.4901 19.3675 37.5006 19.7617C37.511 20.156 37.6044 20.5436 37.7744 20.8993L35.8992 22.7746L37.225 24.1004L39.1002 22.2251ZM40.3121 18.75C40.4975 18.75 40.6787 18.805 40.8329 18.908C40.9871 19.011 41.1072 19.1574 41.1782 19.3287C41.2492 19.5 41.2677 19.6885 41.2316 19.8704C41.1954 20.0523 41.1061 20.2193 40.975 20.3504C40.8439 20.4815 40.6768 20.5708 40.495 20.607C40.3131 20.6432 40.1246 20.6246 39.9533 20.5536C39.782 20.4827 39.6356 20.3625 39.5326 20.2083C39.4296 20.0542 39.3746 19.8729 39.3746 19.6875C39.3749 19.4389 39.4737 19.2007 39.6495 19.0249C39.8252 18.8491 40.0635 18.7503 40.3121 18.75Z" fill="url(#paint2_linear)"/>
<defs>
<linearGradient id="paint0_linear" x1="1.875" y1="30" x2="58.125" y2="30" gradientUnits="userSpaceOnUse">
<stop stop-color="#0FD9B1"/>
<stop offset="1" stop-color="#15B8BE"/>
</linearGradient>
<linearGradient id="paint1_linear" x1="1.875" y1="30" x2="58.125" y2="30" gradientUnits="userSpaceOnUse">
<stop stop-color="#0FD9B1"/>
<stop offset="1" stop-color="#15B8BE"/>
</linearGradient>
<linearGradient id="paint2_linear" x1="1.875" y1="30" x2="58.125" y2="30" gradientUnits="userSpaceOnUse">
<stop stop-color="#0FD9B1"/>
<stop offset="1" stop-color="#15B8BE"/>
</linearGradient>
</defs>
</svg>
