<svg width="60" height="60" viewBox="0 0 60 60" fill="none" xmlns="http://www.w3.org/2000/svg">
<g clip-path="url(#clip0)">
<path d="M24.1561 29.2773C24.4857 29.2773 24.78 29.1434 24.9849 28.9005C25.215 28.6276 25.3018 28.2447 25.2294 27.8223L24.5064 23.6061C24.4649 23.3638 24.6071 22.926 24.7832 22.7543L27.846 19.7687C28.2314 19.3932 28.3725 18.9321 28.2334 18.5038C28.0943 18.0755 27.709 17.7855 27.1764 17.7081L22.9437 17.0929C22.7003 17.0575 22.3279 16.787 22.2191 16.5665L20.3261 12.7313C20.088 12.2487 19.693 11.9719 19.2426 11.9719C18.7922 11.9719 18.3972 12.2488 18.1591 12.7313L16.2662 16.5666C16.1574 16.787 15.785 17.0575 15.5418 17.0929L11.3088 17.7081C10.7762 17.7855 10.391 18.0755 10.2518 18.5039C10.1127 18.9321 10.254 19.3932 10.6393 19.7689L13.7022 22.7543C13.8782 22.926 14.0205 23.3637 13.9789 23.606L13.2558 27.8222C13.1834 28.2447 13.2702 28.6276 13.5002 28.9005C13.843 29.3071 14.4399 29.3949 15.0088 29.0958L18.7949 27.1053C18.8744 27.0635 19.0338 27.0188 19.2426 27.0188C19.4514 27.0188 19.6108 27.0635 19.6904 27.1053L23.4762 29.0958C23.7053 29.2163 23.934 29.2773 24.1561 29.2773ZM19.2427 25.4967C18.8177 25.4967 18.4072 25.5894 18.0867 25.7581L14.8637 27.4526L15.4794 23.8633C15.6052 23.1294 15.298 22.1841 14.7649 21.6643L12.1575 19.1229L15.7609 18.5991C16.4979 18.492 17.3019 17.9076 17.6313 17.24L19.2429 13.9751L20.8544 17.24C21.1838 17.9077 21.988 18.492 22.7249 18.5991L26.3282 19.1229L23.7209 21.6644C23.1878 22.1841 22.8806 23.1293 23.0064 23.8632L23.6219 27.4526L20.399 25.7581C20.0782 25.5895 19.6677 25.4967 19.2427 25.4967Z" fill="url(#paint0_linear)"/>
<path d="M45.1791 29.2773C45.5089 29.2773 45.803 29.1434 46.0079 28.9005C46.238 28.6276 46.3248 28.2446 46.2523 27.8222L45.529 23.606C45.4876 23.3637 45.6299 22.926 45.8059 22.7543L48.8688 19.7687C49.2541 19.3932 49.3953 18.9321 49.2563 18.5038C49.117 18.0755 48.7318 17.7855 48.1993 17.7081L43.9667 17.0929C43.7233 17.0575 43.3509 16.787 43.2421 16.5665L41.3491 12.7313C41.1109 12.2487 40.716 11.9719 40.2656 11.9719C39.8152 11.9719 39.4203 12.2488 39.1821 12.7313L37.2892 16.5664C37.1805 16.7868 36.8079 17.0575 36.5646 17.0929L32.3317 17.7081C31.7991 17.7855 31.4139 18.0755 31.2747 18.5039C31.1356 18.9321 31.277 19.3932 31.6622 19.7689L34.7251 22.7543C34.9011 22.926 35.0434 23.3637 35.0018 23.606L34.2788 27.8222C34.2064 28.2447 34.293 28.6276 34.5233 28.9005C34.8661 29.3071 35.4626 29.3949 36.0319 29.0958L39.8179 27.1053C39.8974 27.0635 40.0568 27.0188 40.2656 27.0188C40.4744 27.0188 40.6337 27.0635 40.7132 27.1053L44.4995 29.0958C44.7285 29.2163 44.9571 29.2773 45.1791 29.2773ZM40.2656 25.4967C39.8404 25.4967 39.43 25.5894 39.1095 25.7581L35.8867 27.4526L36.5022 23.8633C36.6281 23.1294 36.3208 22.1841 35.7877 21.6643L33.1804 19.1229L36.7838 18.5991C37.5206 18.492 38.3246 17.9077 38.6542 17.24L40.2657 13.9751L41.8771 17.24C42.2067 17.9077 43.0109 18.492 43.7478 18.5991L47.351 19.1229L44.7438 21.6644C44.2105 22.1841 43.9034 23.1294 44.0293 23.8633L44.645 27.4526L41.4219 25.7581C41.1011 25.5895 40.6907 25.4967 40.2656 25.4967Z" fill="url(#paint1_linear)"/>
<path d="M16.9764 36.4591L12.7434 35.8436C12.5003 35.8083 12.1279 35.5376 12.0191 35.3173L10.1261 31.4819C9.88786 30.9995 9.49301 30.7229 9.04259 30.7229C8.59218 30.7229 8.19732 30.9996 7.95911 31.4821L6.06625 35.3171C5.95742 35.5376 5.58502 35.8083 5.34174 35.8436L1.1089 36.4591C0.576423 36.5363 0.191079 36.8265 0.0519334 37.2546C-0.0873386 37.683 0.0539629 38.1442 0.439308 38.5201L3.50215 41.5053C3.67821 41.677 3.82052 42.115 3.77892 42.3573L3.05592 46.5725C2.9835 46.995 3.07026 47.3782 3.30047 47.6509C3.64333 48.0574 4.24024 48.1453 4.809 47.8462L8.59484 45.8561C8.67437 45.8142 8.83381 45.7694 9.04259 45.7694C9.25137 45.7694 9.41081 45.8142 9.49034 45.8561L13.2762 47.8462C13.5051 47.9666 13.7338 48.0277 13.9558 48.0277C14.2855 48.0277 14.5799 47.8938 14.7847 47.6508C15.0148 47.3779 15.1017 46.9949 15.0291 46.5726L14.3063 42.3573C14.2647 42.115 14.407 41.677 14.583 41.5055L17.646 38.5198C18.0313 38.144 18.1725 37.6828 18.0333 37.2544C17.894 36.8265 17.5088 36.5364 16.9764 36.4591ZM13.5205 40.4157C12.9874 40.9356 12.6803 41.881 12.8061 42.6146L13.4215 46.2032L10.1986 44.509C9.8781 44.3406 9.46751 44.2476 9.04259 44.2476C8.61767 44.2476 8.20709 44.3402 7.88656 44.509L4.66364 46.2031L5.2792 42.6146C5.40503 41.8807 5.09795 40.9354 4.5647 40.4155L1.95709 37.8739L5.56054 37.35C6.29736 37.243 7.10154 36.6588 7.4312 35.9907L9.04259 32.7261L10.6541 35.991C10.9838 36.6588 11.788 37.243 12.5246 37.35L16.1282 37.8739L13.5205 40.4157Z" fill="url(#paint2_linear)"/>
<path d="M37.9335 36.4591L33.7006 35.8436C33.4574 35.8083 33.085 35.5376 32.9762 35.3173L31.0833 31.4819C30.8451 30.9995 30.4502 30.7229 29.9998 30.7229C29.5494 30.7229 29.1546 30.9996 28.9164 31.4821L27.0235 35.3171C26.9147 35.5376 26.5423 35.8083 26.299 35.8436L22.0661 36.4591C21.5337 36.5363 21.1483 36.8265 21.0092 37.2546C20.8699 37.683 21.0112 38.1442 21.3965 38.5201L24.4594 41.5053C24.6354 41.677 24.7778 42.115 24.7362 42.3573L24.0132 46.5725C23.9407 46.995 24.0275 47.3779 24.2576 47.6509C24.6004 48.0574 25.1968 48.1453 25.7661 47.8462L29.552 45.8561C29.6315 45.8142 29.791 45.7694 30 45.7694C30.2087 45.7694 30.3681 45.8142 30.4476 45.8561L34.2336 47.8462C34.4625 47.9666 34.6911 48.0277 34.913 48.0277C35.2428 48.0277 35.5372 47.8938 35.742 47.6508C35.972 47.3779 36.0589 46.9949 35.9865 46.5725L35.2635 42.3573C35.2219 42.115 35.3642 41.677 35.5403 41.5055L38.6031 38.5201C38.9886 38.1442 39.1296 37.683 38.9905 37.2546C38.8513 36.8265 38.466 36.5364 37.9335 36.4591ZM34.4776 40.4157C33.9445 40.9356 33.6373 41.8809 33.7632 42.6148L34.3787 46.2032L31.1559 44.509C30.8355 44.3406 30.4248 44.2476 29.9998 44.2476C29.5749 44.2476 29.1643 44.3402 28.8437 44.509L25.6208 46.2032L26.2363 42.6148C26.3621 41.8809 26.0551 40.9356 25.5218 40.4156L22.9142 37.8741L26.5176 37.3501C27.2545 37.243 28.0586 36.6589 28.3883 35.991L29.9997 32.7261L31.6114 35.9911C31.941 36.6589 32.7451 37.243 33.4819 37.3501L37.0855 37.8741L34.4776 40.4157Z" fill="url(#paint3_linear)"/>
<path d="M59.5601 38.5199C59.9454 38.1443 60.0866 37.6831 59.9475 37.2547C59.8082 36.8263 59.423 36.5364 58.8905 36.4592L54.6575 35.8437C54.4143 35.8084 54.0419 35.5377 53.933 35.3174L52.0402 31.4819C51.802 30.9995 51.407 30.7227 50.9567 30.7227C50.5063 30.7227 50.1114 30.9996 49.8732 31.4821L47.9802 35.3173C47.8715 35.5376 47.499 35.8083 47.2556 35.8436L43.023 36.4591C42.4905 36.5362 42.1054 36.8265 41.966 37.2545C41.8268 37.6829 41.9679 38.1441 42.3534 38.5202L45.4161 41.5054C45.5922 41.6771 45.7345 42.1151 45.693 42.3574L44.97 46.5726C44.8977 46.9951 44.9844 47.378 45.2147 47.651C45.4195 47.8939 45.7139 48.0278 46.0436 48.0278C46.2656 48.0278 46.4943 47.967 46.7231 47.8463L50.5091 45.8562C50.5886 45.8143 50.7479 45.7696 50.9566 45.7696C51.1655 45.7696 51.325 45.8143 51.4044 45.8562L55.1905 47.8465C55.7595 48.1452 56.3562 48.0577 56.6991 47.6509C56.929 47.378 57.016 46.9951 56.9435 46.5726L56.2205 42.3574C56.1789 42.1151 56.3212 41.6771 56.4974 41.5055L59.5601 38.5199ZM55.4348 40.4157C54.9016 40.9356 54.5945 41.8808 54.7202 42.6147L55.3359 46.2032L52.1129 44.509C51.7923 44.3406 51.3817 44.2476 50.9568 44.2476C50.5319 44.2476 50.1213 44.3404 49.801 44.509L46.5781 46.2032L47.1936 42.6147C47.3194 41.881 47.0123 40.9356 46.4791 40.4156L43.8716 37.8739L47.4748 37.3501C48.2118 37.243 49.0159 36.6588 49.3454 35.9909L50.9569 32.726L52.5685 35.9911C52.8983 36.6589 53.7023 37.243 54.439 37.3501L58.0427 37.874L55.4348 40.4157Z" fill="url(#paint4_linear)"/>
</g>
<defs>
<linearGradient id="paint0_linear" x1="-0.000488281" y1="29.9999" x2="59.9999" y2="29.9999" gradientUnits="userSpaceOnUse">
<stop stop-color="#0FD9B1"/>
<stop offset="1" stop-color="#15B8BE"/>
</linearGradient>
<linearGradient id="paint1_linear" x1="-0.000488281" y1="29.9999" x2="59.9999" y2="29.9999" gradientUnits="userSpaceOnUse">
<stop stop-color="#0FD9B1"/>
<stop offset="1" stop-color="#15B8BE"/>
</linearGradient>
<linearGradient id="paint2_linear" x1="-0.000488281" y1="29.9999" x2="59.9999" y2="29.9999" gradientUnits="userSpaceOnUse">
<stop stop-color="#0FD9B1"/>
<stop offset="1" stop-color="#15B8BE"/>
</linearGradient>
<linearGradient id="paint3_linear" x1="-0.000488281" y1="29.9999" x2="59.9999" y2="29.9999" gradientUnits="userSpaceOnUse">
<stop stop-color="#0FD9B1"/>
<stop offset="1" stop-color="#15B8BE"/>
</linearGradient>
<linearGradient id="paint4_linear" x1="-0.000488281" y1="29.9999" x2="59.9999" y2="29.9999" gradientUnits="userSpaceOnUse">
<stop stop-color="#0FD9B1"/>
<stop offset="1" stop-color="#15B8BE"/>
</linearGradient>
<clipPath id="clip0">
<rect width="60" height="60" fill="white"/>
</clipPath>
</defs>
</svg>
