<svg width="60" height="60" viewBox="0 0 60 60" fill="none" xmlns="http://www.w3.org/2000/svg">
<path d="M52 0H8C7.44775 0 7 0.44775 7 1V59C7 59.5522 7.44775 60 8 60H52C52.5522 60 53 59.5522 53 59V1C53 0.44775 52.5522 0 52 0ZM51 58H9V2H51V58Z" fill="url(#paint0_linear)"/>
<path d="M47.2494 35.0005C45.7309 33.102 43.4309 31.9977 40.9999 32C36.5855 31.9959 33.0035 35.5711 32.9994 39.9855C32.9972 42.4165 34.1014 44.7165 35.9999 46.235V55C35.9999 55.5522 36.4477 56 36.9999 56C37.2163 56 37.4268 55.9299 37.5999 55.8L40.9999 53.25L44.3999 55.8C44.8418 56.1314 45.4685 56.0419 45.7999 55.6C45.9298 55.4269 45.9999 55.2164 45.9999 55V46.235C49.4473 43.4777 50.0067 38.4479 47.2494 35.0005ZM43.9999 53L41.5999 51.2C41.2444 50.9334 40.7554 50.9334 40.3999 51.2L37.9999 53V47.411C39.9228 48.1962 42.077 48.1962 43.9999 47.411V53ZM40.9999 46C37.6862 46 34.9999 43.3137 34.9999 40C34.9999 36.6862 37.6862 34 40.9999 34C44.3137 34 46.9999 36.6862 46.9999 40C46.9967 43.3124 44.3123 45.9967 40.9999 46Z" fill="url(#paint1_linear)"/>
<path d="M37 6H23V8H37V6Z" fill="url(#paint2_linear)"/>
<path d="M34 10H26V12H34V10Z" fill="url(#paint3_linear)"/>
<path d="M46 15H13V17H46V15Z" fill="url(#paint4_linear)"/>
<path d="M46 19H13V21H46V19Z" fill="url(#paint5_linear)"/>
<path d="M46 23H13V25H46V23Z" fill="url(#paint6_linear)"/>
<path d="M46 27H13V29H46V27Z" fill="url(#paint7_linear)"/>
<path d="M30 31H13V33H30V31Z" fill="url(#paint8_linear)"/>
<path d="M20 43H14V45H20V43Z" fill="url(#paint9_linear)"/>
<path d="M20 47H14V49H20V47Z" fill="url(#paint10_linear)"/>
<path d="M20 51H14V53H20V51Z" fill="url(#paint11_linear)"/>
<defs>
<linearGradient id="paint0_linear" x1="7" y1="30" x2="53" y2="30" gradientUnits="userSpaceOnUse">
<stop stop-color="#0FD9B1"/>
<stop offset="1" stop-color="#15B8BE"/>
</linearGradient>
<linearGradient id="paint1_linear" x1="7" y1="30" x2="53" y2="30" gradientUnits="userSpaceOnUse">
<stop stop-color="#0FD9B1"/>
<stop offset="1" stop-color="#15B8BE"/>
</linearGradient>
<linearGradient id="paint2_linear" x1="7" y1="30" x2="53" y2="30" gradientUnits="userSpaceOnUse">
<stop stop-color="#0FD9B1"/>
<stop offset="1" stop-color="#15B8BE"/>
</linearGradient>
<linearGradient id="paint3_linear" x1="7" y1="30" x2="53" y2="30" gradientUnits="userSpaceOnUse">
<stop stop-color="#0FD9B1"/>
<stop offset="1" stop-color="#15B8BE"/>
</linearGradient>
<linearGradient id="paint4_linear" x1="7" y1="30" x2="53" y2="30" gradientUnits="userSpaceOnUse">
<stop stop-color="#0FD9B1"/>
<stop offset="1" stop-color="#15B8BE"/>
</linearGradient>
<linearGradient id="paint5_linear" x1="7" y1="30" x2="53" y2="30" gradientUnits="userSpaceOnUse">
<stop stop-color="#0FD9B1"/>
<stop offset="1" stop-color="#15B8BE"/>
</linearGradient>
<linearGradient id="paint6_linear" x1="7" y1="30" x2="53" y2="30" gradientUnits="userSpaceOnUse">
<stop stop-color="#0FD9B1"/>
<stop offset="1" stop-color="#15B8BE"/>
</linearGradient>
<linearGradient id="paint7_linear" x1="7" y1="30" x2="53" y2="30" gradientUnits="userSpaceOnUse">
<stop stop-color="#0FD9B1"/>
<stop offset="1" stop-color="#15B8BE"/>
</linearGradient>
<linearGradient id="paint8_linear" x1="7" y1="30" x2="53" y2="30" gradientUnits="userSpaceOnUse">
<stop stop-color="#0FD9B1"/>
<stop offset="1" stop-color="#15B8BE"/>
</linearGradient>
<linearGradient id="paint9_linear" x1="7" y1="30" x2="53" y2="30" gradientUnits="userSpaceOnUse">
<stop stop-color="#0FD9B1"/>
<stop offset="1" stop-color="#15B8BE"/>
</linearGradient>
<linearGradient id="paint10_linear" x1="7" y1="30" x2="53" y2="30" gradientUnits="userSpaceOnUse">
<stop stop-color="#0FD9B1"/>
<stop offset="1" stop-color="#15B8BE"/>
</linearGradient>
<linearGradient id="paint11_linear" x1="7" y1="30" x2="53" y2="30" gradientUnits="userSpaceOnUse">
<stop stop-color="#0FD9B1"/>
<stop offset="1" stop-color="#15B8BE"/>
</linearGradient>
</defs>
</svg>
