<svg width="60" height="60" viewBox="0 0 60 60" fill="none" xmlns="http://www.w3.org/2000/svg">
<path d="M40.9687 45.8811L29.1291 40.1324C28.5055 39.8352 27.7949 39.7761 27.1308 39.966C26.4666 40.1558 25.8947 40.5818 25.5225 41.1636L22.8141 45.4686C22.6921 45.6659 22.5017 45.8113 22.2794 45.8772C22.057 45.943 21.8182 45.9248 21.6084 45.8258C20.0185 45.0292 18.5506 44.0095 17.2491 42.7977C16.0216 41.4883 14.9888 40.009 14.1825 38.4055C14.0799 38.1949 14.0591 37.9537 14.124 37.7286C14.189 37.5035 14.3351 37.3104 14.5341 37.1868L18.8466 34.4736C19.4273 34.0999 19.8516 33.5271 20.0397 32.8626C20.2279 32.1982 20.167 31.4879 19.8684 30.8652L14.1187 19.0311C13.9575 18.6964 13.7308 18.3973 13.4521 18.1516C13.1734 17.9059 12.8483 17.7185 12.4959 17.6005C12.1389 17.4798 11.7614 17.4315 11.3855 17.4586C11.0096 17.4856 10.6429 17.5874 10.3069 17.758C9.44344 18.1874 1.875 22.1099 1.875 27.1874V28.1249C2.01092 36.0389 5.21526 43.5908 10.8122 49.1877C16.4091 54.7846 23.961 57.989 31.875 58.1249H32.8125C37.8891 58.1249 41.8125 50.5564 42.2372 49.6977C42.4089 49.3614 42.5115 48.9941 42.5389 48.6174C42.5663 48.2408 42.5179 47.8625 42.3966 47.5049C42.279 47.1526 42.0921 46.8275 41.8469 46.5486C41.6017 46.2697 41.3031 46.0428 40.9687 45.8811ZM28.3125 41.8208L40.1437 47.5677C40.2545 47.6212 40.3534 47.6963 40.4347 47.7885C40.516 47.8808 40.578 47.9883 40.6172 48.1049C40.6579 48.2275 40.6737 48.357 40.6637 48.4857C40.6537 48.6145 40.6181 48.74 40.5591 48.8549C40.4259 49.1211 40.2712 49.4089 40.1062 49.7061L26.5444 43.0583L27.1069 42.1677C27.2324 41.9744 27.4235 41.8329 27.6449 41.7692C27.8664 41.7055 28.1034 41.7238 28.3125 41.8208ZM11.1478 19.4361C11.285 19.3666 11.4365 19.33 11.5903 19.3293C11.694 19.3292 11.7969 19.3463 11.895 19.3799C12.0112 19.4184 12.1186 19.4797 12.2108 19.5601C12.303 19.6406 12.3783 19.7387 12.4322 19.8486L18.1763 31.6743C18.2765 31.883 18.2974 32.121 18.2352 32.344C18.1729 32.5671 18.0317 32.7598 17.8378 32.8864L16.9416 33.4489L10.2928 19.8918C10.5937 19.7249 10.8797 19.5702 11.1478 19.4361ZM32.8125 56.2499H31.875C24.4582 56.1142 17.383 53.1075 12.1377 47.8622C6.89235 42.6168 3.88565 35.5417 3.75 28.1249V27.1874C3.75 24.8286 6.2625 22.4924 8.68594 20.8743L15.3422 34.4605L13.53 35.6014C12.9397 35.9724 12.5077 36.5488 12.3172 37.2194C12.1268 37.8901 12.1915 38.6075 12.4987 39.2333C13.3967 41.0186 14.5494 42.6639 15.9206 44.1177C17.3664 45.4733 19.0005 46.6129 20.7722 47.5011C21.3974 47.8074 22.114 47.8709 22.7833 47.6794C23.4526 47.4879 24.0271 47.0549 24.3956 46.4643L25.5356 44.6539L39.1219 51.3102C37.5084 53.7364 35.1712 56.2499 32.8125 56.2499Z" fill="url(#paint0_linear)"/>
<path d="M40.3124 1.87501C37.1536 1.8729 34.0511 2.71143 31.3234 4.3045C28.5957 5.89758 26.3411 8.18782 24.791 10.9401C23.2408 13.6925 22.451 16.8077 22.5026 19.9661C22.5542 23.1245 23.4454 26.2123 25.0846 28.9125L23.4656 35.3981C23.4265 35.5551 23.4287 35.7195 23.4719 35.8753C23.5152 36.0312 23.598 36.1732 23.7124 36.2876C23.8267 36.4019 23.9688 36.4848 24.1246 36.528C24.2805 36.5713 24.4449 36.5735 24.6018 36.5344L31.0874 34.9153C33.4378 36.3417 36.0865 37.2046 38.826 37.4365C41.5656 37.6684 44.3216 37.2631 46.8783 36.2521C49.435 35.2412 51.723 33.6521 53.5631 31.6094C55.4033 29.5666 56.7456 27.1257 57.4849 24.4776C58.2243 21.8296 58.3406 19.0463 57.8248 16.3458C57.309 13.6453 56.1751 11.1008 54.5119 8.91165C52.8486 6.72248 50.7012 4.94803 48.2378 3.72725C45.7744 2.50648 43.0618 1.87252 40.3124 1.87501ZM40.3124 35.625C37.2781 35.6281 34.3069 34.7586 31.7531 33.12C31.6455 33.0511 31.525 33.0049 31.3989 32.9843C31.2728 32.9637 31.1439 32.969 31.0199 33L25.6631 34.3369L26.9999 28.98C27.0309 28.8561 27.0363 28.7271 27.0157 28.601C26.995 28.475 26.9488 28.3545 26.8799 28.2469C24.9814 25.2632 24.1297 21.7327 24.459 18.2116C24.7883 14.6905 26.2799 11.3791 28.6988 8.79929C31.1176 6.21944 34.3262 4.51781 37.8187 3.96257C41.3113 3.40734 44.8894 4.03006 47.989 5.73261C51.0886 7.43516 53.5336 10.1207 54.9386 13.3661C56.3436 16.6114 56.6288 20.2321 55.7492 23.6574C54.8695 27.0827 52.8751 30.1179 50.0802 32.2847C47.2853 34.4515 43.8489 35.6266 40.3124 35.625Z" fill="url(#paint1_linear)"/>
<path d="M32.625 20.0625C33.0085 19.7749 33.3122 19.394 33.5071 18.956C33.702 18.518 33.7817 18.0374 33.7386 17.56C33.6956 17.0825 33.5312 16.624 33.2611 16.2279C32.991 15.8318 32.6241 15.5114 32.1953 15.297C31.7665 15.0826 31.29 14.9813 30.8111 15.0029C30.3322 15.0244 29.8667 15.1681 29.4589 15.4201C29.0511 15.6721 28.7145 16.0242 28.481 16.443C28.2475 16.8617 28.125 17.3331 28.125 17.8125C28.125 18.0612 28.2238 18.2996 28.3996 18.4755C28.5754 18.6513 28.8139 18.75 29.0625 18.75C29.3111 18.75 29.5496 18.6513 29.7254 18.4755C29.9012 18.2996 30 18.0612 30 17.8125C30 17.6527 30.0408 17.4956 30.1187 17.356C30.1965 17.2164 30.3087 17.0991 30.4446 17.0151C30.5806 16.9311 30.7357 16.8832 30.8954 16.876C31.055 16.8688 31.2138 16.9026 31.3568 16.974C31.4997 17.0455 31.622 17.1523 31.712 17.2843C31.8021 17.4164 31.8569 17.5692 31.8712 17.7284C31.8856 17.8875 31.859 18.0477 31.794 18.1937C31.729 18.3397 31.6278 18.4667 31.5 18.5625L29.25 20.25C28.9016 20.5128 28.6187 20.8527 28.4235 21.243C28.2283 21.6334 28.1262 22.0636 28.125 22.5V23.4375C28.125 23.6862 28.2238 23.9246 28.3996 24.1005C28.5754 24.2763 28.8139 24.375 29.0625 24.375H32.8125C33.0611 24.375 33.2996 24.2763 33.4754 24.1005C33.6512 23.9246 33.75 23.6862 33.75 23.4375C33.75 23.1889 33.6512 22.9505 33.4754 22.7746C33.2996 22.5988 33.0611 22.5 32.8125 22.5H30C30 22.3545 30.0339 22.211 30.099 22.0808C30.1641 21.9506 30.2586 21.8374 30.375 21.75L32.625 20.0625Z" fill="url(#paint2_linear)"/>
<path d="M52.3331 15.4032C52.2468 15.2787 52.1316 15.177 51.9974 15.1068C51.8632 15.0366 51.714 15 51.5625 15H47.8125C47.5639 15 47.3254 15.0988 47.1496 15.2746C46.9738 15.4505 46.875 15.6889 46.875 15.9375C46.875 16.1862 46.9738 16.4246 47.1496 16.6005C47.3254 16.7763 47.5639 16.875 47.8125 16.875H50.2097L47.8716 23.1085C47.8282 23.2238 47.8081 23.3465 47.8122 23.4696C47.8163 23.5927 47.8447 23.7137 47.8956 23.8259C47.9465 23.938 48.0191 24.039 48.109 24.1231C48.199 24.2072 48.3047 24.2727 48.42 24.316C48.5257 24.3546 48.6374 24.3746 48.75 24.375C48.941 24.3752 49.1274 24.317 49.2844 24.2082C49.4414 24.0995 49.5614 23.9454 49.6284 23.7666L52.4409 16.2666C52.4941 16.1247 52.512 15.972 52.4933 15.8216C52.4745 15.6713 52.4195 15.5277 52.3331 15.4032Z" fill="url(#paint3_linear)"/>
<path d="M46.1946 12.224C45.9557 12.1557 45.6994 12.1851 45.4821 12.3057C45.2649 12.4263 45.1043 12.6282 45.0359 12.8671L41.2859 25.9921C41.2521 26.1105 41.242 26.2345 41.2562 26.3568C41.2703 26.4792 41.3084 26.5975 41.3683 26.7051C41.4282 26.8127 41.5087 26.9075 41.6052 26.984C41.7018 27.0604 41.8124 27.1172 41.9309 27.1509C42.0143 27.1754 42.1008 27.1877 42.1877 27.1874C42.3914 27.1873 42.5894 27.121 42.7519 26.9983C42.9145 26.8757 43.0327 26.7035 43.0887 26.5077L46.8387 13.3827C46.9069 13.1437 46.8774 12.8873 46.7566 12.67C46.6358 12.4527 46.4337 12.2923 46.1946 12.224Z" fill="url(#paint4_linear)"/>
<path d="M40.3123 20.6252H39.3748V15.9377C39.3749 15.7364 39.3102 15.5405 39.1903 15.3789C39.0704 15.2173 38.9017 15.0986 38.7091 15.0402C38.5166 14.9819 38.3103 14.987 38.1209 15.055C37.9315 15.1229 37.769 15.2499 37.6573 15.4173L33.9073 21.0423C33.8131 21.1835 33.759 21.3476 33.7508 21.5172C33.7426 21.6867 33.7805 21.8553 33.8606 22.0049C33.9406 22.1546 34.0598 22.2797 34.2054 22.3669C34.3511 22.4541 34.5176 22.5002 34.6873 22.5002H37.4998V23.4377C37.4998 23.6863 37.5986 23.9248 37.7744 24.1006C37.9502 24.2764 38.1887 24.3752 38.4373 24.3752C38.686 24.3752 38.9244 24.2764 39.1002 24.1006C39.2761 23.9248 39.3748 23.6863 39.3748 23.4377V22.5002H40.3123C40.561 22.5002 40.7994 22.4014 40.9752 22.2256C41.1511 22.0498 41.2498 21.8113 41.2498 21.5627C41.2498 21.314 41.1511 21.0756 40.9752 20.8997C40.7994 20.7239 40.561 20.6252 40.3123 20.6252ZM37.4998 20.6252H36.4386L37.4998 19.0314V20.6252Z" fill="url(#paint5_linear)"/>
<defs>
<linearGradient id="paint0_linear" x1="1.875" y1="29.9999" x2="58.1411" y2="29.9999" gradientUnits="userSpaceOnUse">
<stop stop-color="#0FD9B1"/>
<stop offset="1" stop-color="#15B8BE"/>
</linearGradient>
<linearGradient id="paint1_linear" x1="1.875" y1="29.9999" x2="58.1411" y2="29.9999" gradientUnits="userSpaceOnUse">
<stop stop-color="#0FD9B1"/>
<stop offset="1" stop-color="#15B8BE"/>
</linearGradient>
<linearGradient id="paint2_linear" x1="1.875" y1="29.9999" x2="58.1411" y2="29.9999" gradientUnits="userSpaceOnUse">
<stop stop-color="#0FD9B1"/>
<stop offset="1" stop-color="#15B8BE"/>
</linearGradient>
<linearGradient id="paint3_linear" x1="1.875" y1="29.9999" x2="58.1411" y2="29.9999" gradientUnits="userSpaceOnUse">
<stop stop-color="#0FD9B1"/>
<stop offset="1" stop-color="#15B8BE"/>
</linearGradient>
<linearGradient id="paint4_linear" x1="1.875" y1="29.9999" x2="58.1411" y2="29.9999" gradientUnits="userSpaceOnUse">
<stop stop-color="#0FD9B1"/>
<stop offset="1" stop-color="#15B8BE"/>
</linearGradient>
<linearGradient id="paint5_linear" x1="1.875" y1="29.9999" x2="58.1411" y2="29.9999" gradientUnits="userSpaceOnUse">
<stop stop-color="#0FD9B1"/>
<stop offset="1" stop-color="#15B8BE"/>
</linearGradient>
</defs>
</svg>
