<svg width="60" height="60" viewBox="0 0 60 60" fill="none" xmlns="http://www.w3.org/2000/svg">
<path d="M14.916 32.3438L16.5397 31.4063L6.59413 14.1798C6.5631 14.126 6.55469 14.0621 6.57073 14.0021C6.58677 13.9421 6.62595 13.891 6.67968 13.8598L16.4062 8.24421L15.4687 6.62046L5.74218 12.236C5.25776 12.5157 4.9043 12.9764 4.75954 13.5168C4.61478 14.0571 4.69058 14.6328 4.97026 15.1173L14.916 32.3438Z" fill="url(#paint0_linear)"/>
<path d="M13.9101 11.8509L11.4745 13.2571C11.3679 13.3187 11.2744 13.4006 11.1995 13.4983C11.1245 13.5959 11.0695 13.7074 11.0377 13.8263C11.0058 13.9452 10.9977 14.0693 11.0137 14.1913C11.0298 14.3134 11.0697 14.4311 11.1313 14.5377C11.2555 14.753 11.2892 15.0088 11.2249 15.2489C11.1606 15.489 11.0035 15.6938 10.7883 15.8181C10.6816 15.8797 10.5882 15.9616 10.5132 16.0593C10.4382 16.157 10.3832 16.2685 10.3514 16.3874C10.3195 16.5063 10.3114 16.6304 10.3274 16.7524C10.3435 16.8745 10.3835 16.9922 10.445 17.0989L12.7888 21.1585L14.4125 20.221L12.457 16.8353C12.729 16.5157 12.9265 16.1396 13.0352 15.7342C13.1438 15.3288 13.1608 14.9043 13.085 14.4916L14.8467 13.4744L13.9101 11.8509Z" fill="url(#paint1_linear)"/>
<path d="M45.084 32.3438L55.0297 15.1173C55.3094 14.6328 55.3852 14.0571 55.2404 13.5168C55.0956 12.9765 54.7422 12.5158 54.2578 12.2361L44.5313 6.62046L43.5938 8.24421L53.3203 13.86C53.374 13.8911 53.4132 13.9422 53.4292 14.0022C53.4453 14.0621 53.4369 14.126 53.4059 14.1798L43.4603 31.4063L45.084 32.3438Z" fill="url(#paint2_linear)"/>
<path d="M48.963 13.8263C48.8986 13.5861 48.7414 13.3814 48.5261 13.2571L46.0905 11.8509L45.153 13.4745L46.9147 14.4917C46.8389 14.9045 46.8559 15.3289 46.9645 15.7343C47.0732 16.1397 47.2706 16.5158 47.5427 16.8354L45.5881 20.2211L47.2118 21.1586L49.5556 17.099C49.6172 16.9923 49.6571 16.8746 49.6732 16.7526C49.6893 16.6305 49.6811 16.5064 49.6493 16.3875C49.6174 16.2686 49.5624 16.1571 49.4874 16.0594C49.4125 15.9617 49.319 15.8798 49.2124 15.8182C48.9971 15.6939 48.8401 15.4892 48.7757 15.2491C48.7114 15.009 48.7451 14.7531 48.8693 14.5378C48.9309 14.4312 48.9709 14.3135 48.9869 14.1914C49.003 14.0693 48.9949 13.9452 48.963 13.8263Z" fill="url(#paint3_linear)"/>
<path d="M19.6875 3.98438C19.6875 3.92221 19.7122 3.8626 19.7562 3.81865C19.8001 3.77469 19.8597 3.75 19.9219 3.75H40.0781C40.1403 3.75 40.1999 3.77469 40.2439 3.81865C40.2878 3.8626 40.3125 3.92221 40.3125 3.98438V31.875H42.1875V3.98438C42.1869 3.42513 41.9644 2.88898 41.569 2.49354C41.1735 2.0981 40.6374 1.87565 40.0781 1.875H19.9219C19.3626 1.87565 18.8265 2.0981 18.4311 2.49354C18.0356 2.88898 17.8132 3.42513 17.8125 3.98438V13.125H19.6875V3.98438Z" fill="url(#paint4_linear)"/>
<path d="M17.8125 15H19.6875V31.875H17.8125V15Z" fill="url(#paint5_linear)"/>
<path d="M30 31.875C31.4834 31.875 32.9334 31.4351 34.1668 30.611C35.4002 29.7869 36.3615 28.6156 36.9291 27.2451C37.4968 25.8747 37.6453 24.3667 37.3559 22.9118C37.0665 21.4569 36.3522 20.1206 35.3033 19.0717C34.2544 18.0228 32.918 17.3085 31.4632 17.0191C30.0083 16.7297 28.5003 16.8782 27.1299 17.4459C25.7594 18.0135 24.5881 18.9748 23.764 20.2082C22.9399 21.4416 22.5 22.8916 22.5 24.375C22.5022 26.3634 23.2931 28.2698 24.6992 29.6758C26.1052 31.0819 28.0116 31.8727 30 31.875ZM30 18.75C31.1125 18.75 32.2001 19.0799 33.1251 19.698C34.0501 20.316 34.7711 21.1946 35.1968 22.2224C35.6226 23.2502 35.734 24.3812 35.5169 25.4724C35.2999 26.5635 34.7642 27.5658 33.9775 28.3525C33.1908 29.1391 32.1885 29.6749 31.0974 29.8919C30.0063 30.1089 28.8753 29.9975 27.8474 29.5718C26.8196 29.1461 25.9411 28.4251 25.323 27.5001C24.7049 26.575 24.375 25.4875 24.375 24.375C24.3767 22.8837 24.9699 21.4539 26.0244 20.3994C27.0789 19.3448 28.5087 18.7517 30 18.75Z" fill="url(#paint6_linear)"/>
<path d="M25.1518 7.5H27.1875V5.625H24.375C24.1264 5.625 23.8879 5.72377 23.7121 5.89959C23.5363 6.0754 23.4375 6.31386 23.4375 6.5625C23.4372 6.81105 23.3384 7.04935 23.1626 7.2251C22.9869 7.40086 22.7486 7.49972 22.5 7.5C22.2514 7.5 22.0129 7.59877 21.8371 7.77459C21.6613 7.9504 21.5625 8.18886 21.5625 8.4375V13.125H23.4375V9.21434C23.8326 9.07368 24.1913 8.84687 24.4879 8.55035C24.7844 8.25383 25.0112 7.89504 25.1518 7.5Z" fill="url(#paint7_linear)"/>
<path d="M38.4375 8.4375C38.4375 8.18886 38.3387 7.9504 38.1629 7.77459C37.9871 7.59877 37.7486 7.5 37.5 7.5C37.2515 7.49972 37.0132 7.40086 36.8374 7.2251C36.6616 7.04935 36.5628 6.81105 36.5625 6.5625C36.5625 6.31386 36.4637 6.0754 36.2879 5.89959C36.1121 5.72377 35.8737 5.625 35.625 5.625H32.8125V7.5H34.8482C34.9888 7.89504 35.2156 8.25383 35.5122 8.55035C35.8087 8.84687 36.1675 9.07368 36.5625 9.21434V13.125H38.4375V8.4375Z" fill="url(#paint8_linear)"/>
<path d="M29.0625 13.125H30.9375V15H29.0625V13.125Z" fill="url(#paint9_linear)"/>
<path d="M46.875 47.8125H48.75V49.6875H46.875V47.8125Z" fill="url(#paint10_linear)"/>
<path d="M44.0625 47.8125H45.9375V49.6875H44.0625V47.8125Z" fill="url(#paint11_linear)"/>
<path d="M49.6875 47.8125H51.5625V49.6875H49.6875V47.8125Z" fill="url(#paint12_linear)"/>
<path d="M25.3125 51.5625H30V53.4375H25.3125V51.5625Z" fill="url(#paint13_linear)"/>
<path d="M31.875 51.5625H38.4375V53.4375H31.875V51.5625Z" fill="url(#paint14_linear)"/>
<path d="M53.2031 33.7499H19.9219C19.5162 33.7494 19.1191 33.8666 18.7787 34.0873C16.9804 33.0407 14.885 32.6221 12.8226 32.8974C10.7601 33.1727 8.8479 34.1263 7.38707 35.608C5.92625 37.0896 4.99984 39.0152 4.75379 41.0813C4.50773 43.1474 4.95601 45.2367 6.02801 47.02C5.63323 47.1751 5.29425 47.4453 5.05517 47.7957C4.81609 48.146 4.68797 48.5602 4.6875 48.9843V51.3281C4.68702 51.7454 4.81106 52.1535 5.04375 52.4999C4.81106 52.8464 4.68702 53.2544 4.6875 53.6718V56.0156C4.68815 56.5748 4.9106 57.111 5.30604 57.5064C5.70149 57.9018 6.23763 58.1243 6.79688 58.1249H53.2031C53.7624 58.1243 54.2985 57.9018 54.6939 57.5064C55.0894 57.111 55.3118 56.5748 55.3125 56.0156V51.5624H53.4375V56.0156C53.4375 56.0777 53.4128 56.1373 53.3688 56.1813C53.3249 56.2252 53.2653 56.2499 53.2031 56.2499H23.4245C23.4332 56.1721 23.4375 56.0939 23.4375 56.0156V53.6718C23.438 53.2544 23.3139 52.8464 23.0812 52.4999C23.3139 52.1535 23.438 51.7454 23.4375 51.3281V48.9843C23.437 48.5602 23.3089 48.146 23.0698 47.7957C22.8308 47.4453 22.4918 47.1751 22.097 47.02C22.3067 46.6717 22.4935 46.3101 22.6561 45.9374H53.4375V49.6874H55.3125V35.8593C55.3118 35.3001 55.0894 34.7639 54.6939 34.3685C54.2985 33.973 53.7624 33.7506 53.2031 33.7499ZM21.5625 56.0156C21.5625 56.0777 21.5378 56.1373 21.4939 56.1813C21.4499 56.2252 21.3903 56.2499 21.3281 56.2499H6.79688C6.73472 56.2499 6.6751 56.2252 6.63115 56.1813C6.58719 56.1373 6.5625 56.0777 6.5625 56.0156V53.6718C6.5625 53.6097 6.58719 53.55 6.63115 53.5061C6.6751 53.4621 6.73472 53.4374 6.79688 53.4374H21.3281C21.3903 53.4374 21.4499 53.4621 21.4939 53.5061C21.5378 53.55 21.5625 53.6097 21.5625 53.6718V56.0156ZM21.5625 51.3281C21.5625 51.3902 21.5378 51.4498 21.4939 51.4938C21.4499 51.5377 21.3903 51.5624 21.3281 51.5624H6.79688C6.73472 51.5624 6.6751 51.5377 6.63115 51.4938C6.58719 51.4498 6.5625 51.3902 6.5625 51.3281V48.9843C6.5625 48.9222 6.58719 48.8625 6.63115 48.8186C6.6751 48.7746 6.73472 48.7499 6.79688 48.7499H21.3281C21.3903 48.7499 21.4499 48.7746 21.4939 48.8186C21.5378 48.8625 21.5625 48.9222 21.5625 48.9843V51.3281ZM10.3125 42.1874C10.3125 41.4458 10.5324 40.7207 10.9445 40.104C11.3565 39.4874 11.9422 39.0067 12.6274 38.7229C13.3127 38.4391 14.0667 38.3648 14.7941 38.5095C15.5215 38.6542 16.1897 39.0113 16.7141 39.5358C17.2386 40.0602 17.5957 40.7284 17.7404 41.4559C17.8851 42.1833 17.8109 42.9373 17.527 43.6225C17.2432 44.3077 16.7626 44.8934 16.1459 45.3055C15.5292 45.7175 14.8042 45.9374 14.0625 45.9374C13.0683 45.9363 12.1151 45.5409 11.4121 44.8379C10.7091 44.1348 10.3136 43.1817 10.3125 42.1874ZM19.9175 46.8749H17.1687C18.1764 46.2075 18.9423 45.2332 19.3529 44.0964C19.7636 42.9596 19.7971 41.7207 19.4486 40.5634C19.1 39.406 18.388 38.3917 17.4179 37.6707C16.4478 36.9497 15.2712 36.5603 14.0625 36.5603C12.8538 36.5603 11.6772 36.9497 10.7071 37.6707C9.73702 38.3917 9.02496 39.406 8.67643 40.5634C8.32789 41.7207 8.36143 42.9596 8.77208 44.0964C9.18272 45.2332 9.94863 46.2075 10.9563 46.8749H8.20746C7.32445 45.7719 6.77099 44.4418 6.61084 43.038C6.45068 41.6342 6.69034 40.2136 7.30221 38.94C7.91409 37.6664 8.87328 36.5916 10.0693 35.8393C11.2653 35.087 12.6496 34.6879 14.0625 34.6879C15.4754 34.6879 16.8597 35.087 18.0557 35.8393C19.2517 36.5916 20.2109 37.6664 20.8228 38.94C21.4347 40.2136 21.6743 41.6342 21.5142 43.038C21.354 44.4418 20.8005 45.7719 19.9175 46.8749ZM53.4375 44.0624H23.2488C23.3744 43.4453 23.4376 42.8172 23.4375 42.1874C23.4375 41.871 23.4219 41.5585 23.3906 41.2499H53.4375V44.0624ZM53.4375 39.3749H23.0066C22.5608 37.9647 21.7881 36.6798 20.7514 35.6249H53.2031C53.2653 35.6249 53.3249 35.6496 53.3688 35.6936C53.4128 35.7375 53.4375 35.7972 53.4375 35.8593V39.3749Z" fill="url(#paint15_linear)"/>
<defs>
<linearGradient id="paint0_linear" x1="4.6875" y1="30" x2="55.3125" y2="30" gradientUnits="userSpaceOnUse">
<stop stop-color="#0FD9B1"/>
<stop offset="1" stop-color="#15B8BE"/>
</linearGradient>
<linearGradient id="paint1_linear" x1="4.6875" y1="30" x2="55.3125" y2="30" gradientUnits="userSpaceOnUse">
<stop stop-color="#0FD9B1"/>
<stop offset="1" stop-color="#15B8BE"/>
</linearGradient>
<linearGradient id="paint2_linear" x1="4.6875" y1="30" x2="55.3125" y2="30" gradientUnits="userSpaceOnUse">
<stop stop-color="#0FD9B1"/>
<stop offset="1" stop-color="#15B8BE"/>
</linearGradient>
<linearGradient id="paint3_linear" x1="4.6875" y1="30" x2="55.3125" y2="30" gradientUnits="userSpaceOnUse">
<stop stop-color="#0FD9B1"/>
<stop offset="1" stop-color="#15B8BE"/>
</linearGradient>
<linearGradient id="paint4_linear" x1="4.6875" y1="30" x2="55.3125" y2="30" gradientUnits="userSpaceOnUse">
<stop stop-color="#0FD9B1"/>
<stop offset="1" stop-color="#15B8BE"/>
</linearGradient>
<linearGradient id="paint5_linear" x1="4.6875" y1="30" x2="55.3125" y2="30" gradientUnits="userSpaceOnUse">
<stop stop-color="#0FD9B1"/>
<stop offset="1" stop-color="#15B8BE"/>
</linearGradient>
<linearGradient id="paint6_linear" x1="4.6875" y1="30" x2="55.3125" y2="30" gradientUnits="userSpaceOnUse">
<stop stop-color="#0FD9B1"/>
<stop offset="1" stop-color="#15B8BE"/>
</linearGradient>
<linearGradient id="paint7_linear" x1="4.6875" y1="30" x2="55.3125" y2="30" gradientUnits="userSpaceOnUse">
<stop stop-color="#0FD9B1"/>
<stop offset="1" stop-color="#15B8BE"/>
</linearGradient>
<linearGradient id="paint8_linear" x1="4.6875" y1="30" x2="55.3125" y2="30" gradientUnits="userSpaceOnUse">
<stop stop-color="#0FD9B1"/>
<stop offset="1" stop-color="#15B8BE"/>
</linearGradient>
<linearGradient id="paint9_linear" x1="4.6875" y1="30" x2="55.3125" y2="30" gradientUnits="userSpaceOnUse">
<stop stop-color="#0FD9B1"/>
<stop offset="1" stop-color="#15B8BE"/>
</linearGradient>
<linearGradient id="paint10_linear" x1="4.6875" y1="30" x2="55.3125" y2="30" gradientUnits="userSpaceOnUse">
<stop stop-color="#0FD9B1"/>
<stop offset="1" stop-color="#15B8BE"/>
</linearGradient>
<linearGradient id="paint11_linear" x1="4.6875" y1="30" x2="55.3125" y2="30" gradientUnits="userSpaceOnUse">
<stop stop-color="#0FD9B1"/>
<stop offset="1" stop-color="#15B8BE"/>
</linearGradient>
<linearGradient id="paint12_linear" x1="4.6875" y1="30" x2="55.3125" y2="30" gradientUnits="userSpaceOnUse">
<stop stop-color="#0FD9B1"/>
<stop offset="1" stop-color="#15B8BE"/>
</linearGradient>
<linearGradient id="paint13_linear" x1="4.6875" y1="30" x2="55.3125" y2="30" gradientUnits="userSpaceOnUse">
<stop stop-color="#0FD9B1"/>
<stop offset="1" stop-color="#15B8BE"/>
</linearGradient>
<linearGradient id="paint14_linear" x1="4.6875" y1="30" x2="55.3125" y2="30" gradientUnits="userSpaceOnUse">
<stop stop-color="#0FD9B1"/>
<stop offset="1" stop-color="#15B8BE"/>
</linearGradient>
<linearGradient id="paint15_linear" x1="4.6875" y1="30" x2="55.3125" y2="30" gradientUnits="userSpaceOnUse">
<stop stop-color="#0FD9B1"/>
<stop offset="1" stop-color="#15B8BE"/>
</linearGradient>
</defs>
</svg>
