<svg width="60" height="60" viewBox="0 0 60 60" fill="none" xmlns="http://www.w3.org/2000/svg">
<g clip-path="url(#clip0)">
<path d="M59 53.278V30C58.9972 29.8453 58.9578 29.6935 58.885 29.557H58.895L56.447 24.662C55.943 23.6415 54.9022 22.9968 53.764 23H47V22C46.9999 21.7348 46.8946 21.4805 46.707 21.293L41.293 15.879C40.9331 15.5228 40.488 15.265 40 15.13V8.38498L42 7.84798V10.277C41.9989 11.3039 42.5121 12.2631 43.367 12.832C43.6642 13.0303 44.0447 13.0549 44.365 12.8966C44.6854 12.7383 44.8969 12.4212 44.92 12.0646C44.9431 11.7081 44.7742 11.3663 44.477 11.168C44.1786 10.9698 43.9995 10.6352 44 10.277V7.22298C44.7 6.81867 45.0878 6.03275 44.9827 5.23125C44.8777 4.42975 44.3005 3.77028 43.52 3.55998L30.514 0.0679797C30.1772 -0.0220089 29.8228 -0.0220089 29.486 0.0679797L16.48 3.55998C15.6053 3.79877 14.9986 4.59331 14.9986 5.49998C14.9986 6.40664 15.6053 7.20119 16.48 7.43998L20 8.38498V15H19.937C19.048 15.0004 18.2051 15.3961 17.637 16.08L13.237 21.36C13.0854 21.5389 13.0015 21.7654 13 22V23H6.236C5.09873 22.996 4.05815 23.639 3.553 24.658L1.105 29.553H1.115C1.04155 29.6907 1.00212 29.8439 1 30V53.278C0.383249 53.6324 0.002145 54.2886 0 55V57C0 58.1045 0.895431 59 2 59H15.278C15.6324 59.6167 16.2887 59.9978 17 60H43C43.7113 59.9978 44.3676 59.6167 44.722 59H58C59.1046 59 60 58.1045 60 57V55C59.9979 54.2886 59.6168 53.6324 59 53.278ZM43 53V31H57V53H43ZM33 53H27V42H33V53ZM34 40H26C25.4477 40 25 40.4477 25 41V53H19V31H41V53H35V41C35 40.4477 34.5523 40 34 40ZM45 23V25H15V23H45ZM43 27V29H17V27H43ZM53.764 25C54.1431 24.9988 54.4898 25.2132 54.658 25.553L56.382 29H45V27C46.1046 27 47 26.1045 47 25H53.764ZM30 1.99998L43.014 5.49998H43.001L30.005 8.99998L17 5.49198L30 1.99998ZM22 8.92198L29.486 10.932C29.8227 11.0226 30.1773 11.0226 30.514 10.932L38 8.92198V15H22V8.92198ZM19.169 17.36C19.3589 17.132 19.6403 17.0001 19.937 17H39.171C39.4365 16.9998 39.6913 17.1052 39.879 17.293L43.586 21H16.135L19.169 17.36ZM5.342 25.553C5.51018 25.2132 5.85693 24.9988 6.236 25H13C13 26.1045 13.8954 27 15 27V29H3.618L5.342 25.553ZM2 55H15V57H2V55ZM3 53V31H17V53H3ZM17 58V55H43V58H17ZM58 57H45V55H58V57Z" fill="url(#paint0_linear)"/>
<path d="M27.0003 33C26.448 33 26.0003 33.4477 26.0003 34V36C26.0003 36.5522 26.448 37 27.0003 37C27.5526 37 28.0003 36.5522 28.0003 36V34C28.0003 33.4477 27.5526 33 27.0003 33Z" fill="url(#paint1_linear)"/>
<path d="M12.9997 34C12.4475 34 11.9997 34.4478 11.9997 35V37C11.9997 37.5523 12.4475 38 12.9997 38C13.552 38 13.9997 37.5523 13.9997 37V35C13.9997 34.4478 13.552 34 12.9997 34Z" fill="url(#paint2_linear)"/>
<path d="M6.99987 34C6.44759 34 5.99987 34.4478 5.99987 35V37C5.99987 37.5523 6.44759 38 6.99987 38C7.55216 38 7.99987 37.5523 7.99987 37V35C7.99987 34.4478 7.55216 34 6.99987 34Z" fill="url(#paint3_linear)"/>
<path d="M12.9997 39.9999C12.4475 39.9999 11.9997 40.4476 11.9997 40.9999V42.9999C11.9997 43.5522 12.4475 43.9999 12.9997 43.9999C13.552 43.9999 13.9997 43.5522 13.9997 42.9999V40.9999C13.9997 40.4476 13.552 39.9999 12.9997 39.9999Z" fill="url(#paint4_linear)"/>
<path d="M6.99987 39.9999C6.44759 39.9999 5.99987 40.4476 5.99987 40.9999V42.9999C5.99987 43.5522 6.44759 43.9999 6.99987 43.9999C7.55216 43.9999 7.99987 43.5522 7.99987 42.9999V40.9999C7.99987 40.4476 7.55216 39.9999 6.99987 39.9999Z" fill="url(#paint5_linear)"/>
<path d="M12.9997 46.0001C12.4475 46.0001 11.9997 46.4478 11.9997 47.0001V49.0001C11.9997 49.5524 12.4475 50.0001 12.9997 50.0001C13.552 50.0001 13.9997 49.5524 13.9997 49.0001V47.0001C13.9997 46.4478 13.552 46.0001 12.9997 46.0001Z" fill="url(#paint6_linear)"/>
<path d="M6.99987 46.0001C6.44759 46.0001 5.99987 46.4478 5.99987 47.0001V49.0001C5.99987 49.5524 6.44759 50.0001 6.99987 50.0001C7.55216 50.0001 7.99987 49.5524 7.99987 49.0001V47.0001C7.99987 46.4478 7.55216 46.0001 6.99987 46.0001Z" fill="url(#paint7_linear)"/>
<path d="M53 34C52.4477 34 52 34.4478 52 35V37C52 37.5523 52.4477 38 53 38C53.5522 38 54 37.5523 54 37V35C54 34.4478 53.5522 34 53 34Z" fill="url(#paint8_linear)"/>
<path d="M47.0001 34C46.4478 34 46.0001 34.4478 46.0001 35V37C46.0001 37.5523 46.4478 38 47.0001 38C47.5524 38 48.0001 37.5523 48.0001 37V35C48.0001 34.4478 47.5524 34 47.0001 34Z" fill="url(#paint9_linear)"/>
<path d="M53 39.9999C52.4477 39.9999 52 40.4476 52 40.9999V42.9999C52 43.5522 52.4477 43.9999 53 43.9999C53.5522 43.9999 54 43.5522 54 42.9999V40.9999C54 40.4476 53.5522 39.9999 53 39.9999Z" fill="url(#paint10_linear)"/>
<path d="M47.0001 39.9999C46.4478 39.9999 46.0001 40.4476 46.0001 40.9999V42.9999C46.0001 43.5522 46.4478 43.9999 47.0001 43.9999C47.5524 43.9999 48.0001 43.5522 48.0001 42.9999V40.9999C48.0001 40.4476 47.5524 39.9999 47.0001 39.9999Z" fill="url(#paint11_linear)"/>
<path d="M53 46.0001C52.4477 46.0001 52 46.4478 52 47.0001V49.0001C52 49.5524 52.4477 50.0001 53 50.0001C53.5522 50.0001 54 49.5524 54 49.0001V47.0001C54 46.4478 53.5522 46.0001 53 46.0001Z" fill="url(#paint12_linear)"/>
<path d="M47.0001 46.0001C46.4478 46.0001 46.0001 46.4478 46.0001 47.0001V49.0001C46.0001 49.5524 46.4478 50.0001 47.0001 50.0001C47.5524 50.0001 48.0001 49.5524 48.0001 49.0001V47.0001C48.0001 46.4478 47.5524 46.0001 47.0001 46.0001Z" fill="url(#paint13_linear)"/>
<path d="M33.0002 33C32.4479 33 32.0002 33.4477 32.0002 34V36C32.0002 36.5522 32.4479 37 33.0002 37C33.5525 37 34.0002 36.5522 34.0002 36V34C34.0002 33.4477 33.5525 33 33.0002 33Z" fill="url(#paint14_linear)"/>
</g>
<defs>
<linearGradient id="paint0_linear" x1="0" y1="30.0002" x2="60" y2="30.0002" gradientUnits="userSpaceOnUse">
<stop stop-color="#0FD9B1"/>
<stop offset="1" stop-color="#15B8BE"/>
</linearGradient>
<linearGradient id="paint1_linear" x1="0" y1="30.0002" x2="60" y2="30.0002" gradientUnits="userSpaceOnUse">
<stop stop-color="#0FD9B1"/>
<stop offset="1" stop-color="#15B8BE"/>
</linearGradient>
<linearGradient id="paint2_linear" x1="0" y1="30.0002" x2="60" y2="30.0002" gradientUnits="userSpaceOnUse">
<stop stop-color="#0FD9B1"/>
<stop offset="1" stop-color="#15B8BE"/>
</linearGradient>
<linearGradient id="paint3_linear" x1="0" y1="30.0002" x2="60" y2="30.0002" gradientUnits="userSpaceOnUse">
<stop stop-color="#0FD9B1"/>
<stop offset="1" stop-color="#15B8BE"/>
</linearGradient>
<linearGradient id="paint4_linear" x1="0" y1="30.0002" x2="60" y2="30.0002" gradientUnits="userSpaceOnUse">
<stop stop-color="#0FD9B1"/>
<stop offset="1" stop-color="#15B8BE"/>
</linearGradient>
<linearGradient id="paint5_linear" x1="0" y1="30.0002" x2="60" y2="30.0002" gradientUnits="userSpaceOnUse">
<stop stop-color="#0FD9B1"/>
<stop offset="1" stop-color="#15B8BE"/>
</linearGradient>
<linearGradient id="paint6_linear" x1="0" y1="30.0002" x2="60" y2="30.0002" gradientUnits="userSpaceOnUse">
<stop stop-color="#0FD9B1"/>
<stop offset="1" stop-color="#15B8BE"/>
</linearGradient>
<linearGradient id="paint7_linear" x1="0" y1="30.0002" x2="60" y2="30.0002" gradientUnits="userSpaceOnUse">
<stop stop-color="#0FD9B1"/>
<stop offset="1" stop-color="#15B8BE"/>
</linearGradient>
<linearGradient id="paint8_linear" x1="0" y1="30.0002" x2="60" y2="30.0002" gradientUnits="userSpaceOnUse">
<stop stop-color="#0FD9B1"/>
<stop offset="1" stop-color="#15B8BE"/>
</linearGradient>
<linearGradient id="paint9_linear" x1="0" y1="30.0002" x2="60" y2="30.0002" gradientUnits="userSpaceOnUse">
<stop stop-color="#0FD9B1"/>
<stop offset="1" stop-color="#15B8BE"/>
</linearGradient>
<linearGradient id="paint10_linear" x1="0" y1="30.0002" x2="60" y2="30.0002" gradientUnits="userSpaceOnUse">
<stop stop-color="#0FD9B1"/>
<stop offset="1" stop-color="#15B8BE"/>
</linearGradient>
<linearGradient id="paint11_linear" x1="0" y1="30.0002" x2="60" y2="30.0002" gradientUnits="userSpaceOnUse">
<stop stop-color="#0FD9B1"/>
<stop offset="1" stop-color="#15B8BE"/>
</linearGradient>
<linearGradient id="paint12_linear" x1="0" y1="30.0002" x2="60" y2="30.0002" gradientUnits="userSpaceOnUse">
<stop stop-color="#0FD9B1"/>
<stop offset="1" stop-color="#15B8BE"/>
</linearGradient>
<linearGradient id="paint13_linear" x1="0" y1="30.0002" x2="60" y2="30.0002" gradientUnits="userSpaceOnUse">
<stop stop-color="#0FD9B1"/>
<stop offset="1" stop-color="#15B8BE"/>
</linearGradient>
<linearGradient id="paint14_linear" x1="0" y1="30.0002" x2="60" y2="30.0002" gradientUnits="userSpaceOnUse">
<stop stop-color="#0FD9B1"/>
<stop offset="1" stop-color="#15B8BE"/>
</linearGradient>
<clipPath id="clip0">
<rect width="60" height="60" fill="white"/>
</clipPath>
</defs>
</svg>
