<svg width="60" height="60" viewBox="0 0 60 60" fill="none" xmlns="http://www.w3.org/2000/svg">
<g clip-path="url(#clip0)">
<path d="M10.51 27.21C10.92 28.74 9.86 31.12 10.95 32.99C12.04 34.86 14.68 35.19 15.73 36.25C16.3934 37.1902 16.9597 38.1954 17.42 39.25L12.12 54.72C11.8701 55.5247 12.1514 56.3996 12.8232 56.908C13.4951 57.4164 14.4136 57.4492 15.12 56.99L18.44 54.64L19.61 58.53C19.857 59.3646 20.6155 59.9437 21.4858 59.9619C22.356 59.9802 23.1381 59.4335 23.42 58.61L28.6 43.7C29.4946 44.0801 30.5054 44.0801 31.4 43.7L36.54 58.65C36.8219 59.4735 37.604 60.0202 38.4742 60.0019C39.3445 59.9837 40.103 59.4046 40.35 58.57L41.52 54.68L44.84 57C45.5464 57.4592 46.4649 57.4264 47.1368 56.918C47.8086 56.4096 48.0899 55.5347 47.84 54.73L42.58 39.29C43.0421 38.2382 43.6047 37.2336 44.26 36.29C45.35 35.17 48 34.87 49.05 33C50.1 31.13 49.1 28.7 49.49 27.22C49.88 25.74 52 24.19 52 22C52 19.81 49.86 18.18 49.49 16.78C49.12 15.38 50.14 12.87 49.05 11C47.96 9.13 45.32 8.8 44.27 7.74C43.22 6.68 42.89 4 41 2.94C39.11 1.88 36.7 2.94 35.22 2.51C33.74 2.08 32.2 0 30 0C27.8 0 26.19 2.13 24.78 2.51C23.22 2.92 20.88 1.85 19 2.94C17.12 4.03 16.81 6.66 15.74 7.73C14.67 8.8 12 9.11 11 11C10 12.89 11 15.3 10.56 16.78C10.12 18.26 8 19.79 8 22C8 24.21 10.13 25.79 10.51 27.21ZM21.57 58L20.4 54.09C20.2024 53.4804 19.7246 53.0023 19.1151 52.8044C18.5055 52.6065 17.838 52.7127 17.32 53.09L14 55.41C19.36 39.8 18.9 41 19 41C20.84 42.07 23.3 41 24.78 41.43C25.5012 41.7396 26.1747 42.1504 26.78 42.65L21.57 58ZM42.68 53C42.1483 52.625 41.4674 52.5321 40.8546 52.7509C40.2419 52.9698 39.7739 53.473 39.6 54.1L38.43 58L33.17 42.69C33.7704 42.1861 34.445 41.7779 35.17 41.48C36.74 41.06 39.07 42.13 40.95 41.04C41.05 40.98 40.6 39.82 45.95 55.4L42.68 53ZM11.12 19.7C12.55 17.7 12.75 17.04 12.52 14.45C12.29 11.86 12.43 11.68 14.76 10.61C17.09 9.54 17.55 9.07 18.61 6.75C19.67 4.43 20 4.29 22.46 4.52C24.92 4.75 25.69 4.52 27.71 3.12C29.73 1.72 30.18 1.63 32.29 3.12C34.4 4.61 35 4.74 37.54 4.52C40.08 4.3 40.32 4.43 41.39 6.75C42.46 9.07 42.94 9.54 45.24 10.61C47.54 11.68 47.71 11.95 47.48 14.45C47.25 16.95 47.48 17.69 48.88 19.7C50.28 21.71 50.37 22.17 48.88 24.28C47.39 26.39 47.25 26.94 47.48 29.53C47.71 32.12 47.57 32.3 45.24 33.38C42.91 34.46 42.46 34.91 41.39 37.23C40.32 39.55 40.05 39.69 37.54 39.47C35.03 39.25 34.31 39.47 32.29 40.86C30.27 42.25 29.82 42.35 27.71 40.86C26.6677 39.9174 25.3153 39.3907 23.91 39.38C22.47 39.38 20.84 39.79 20 39.31C18.85 38.64 18.54 36.22 17.15 34.84C15.76 33.46 13.33 33.12 12.68 32C12.03 30.88 12.95 28.6 12.44 26.71C11.93 24.82 10 23.33 10 22C10.1515 21.1439 10.5394 20.3472 11.12 19.7Z" fill="url(#paint0_linear)"/>
<path d="M30 37C38.2843 37 45 30.2843 45 22C45 13.7157 38.2843 7 30 7C21.7157 7 15 13.7157 15 22C15 30.2843 21.7157 37 30 37ZM30 9C37.1797 9 43 14.8203 43 22C43 29.1797 37.1797 35 30 35C22.8203 35 17 29.1797 17 22C17 18.5522 18.3696 15.2456 20.8076 12.8076C23.2456 10.3696 26.5522 9 30 9Z" fill="url(#paint1_linear)"/>
<path d="M23.0498 25.2299C23.5824 25.2032 24.0004 24.7632 23.9998 24.2299C23.9528 22.4575 24.6489 20.7462 25.9198 19.5099C27.4298 18.0099 29.2098 17.6099 31.3998 17.2399C32.911 16.98 34.3557 16.4225 35.6498 15.5999C36.9498 20.5999 34.5798 26.7999 29.6498 28.4399C28.4941 28.8202 27.2864 29.0193 26.0698 29.0299C27.521 26.3242 29.5737 23.9876 32.0698 22.1999C32.2851 22.0437 32.4293 21.8083 32.4706 21.5456C32.5119 21.2828 32.4468 21.0145 32.2898 20.7999C31.9652 20.3578 31.345 20.2596 30.8998 20.5799C27.6589 22.8259 25.1236 25.9474 23.5898 29.5799C23.4869 29.8691 23.5225 30.1895 23.6864 30.4491C23.8503 30.7086 24.1244 30.8785 24.4298 30.9099C29.6598 31.4699 34.3598 29.3499 36.6898 24.3099C38.2492 20.945 38.4004 17.0967 37.1098 13.6199C36.9953 13.3351 36.7564 13.1187 36.4617 13.0329C36.1671 12.947 35.8493 13.0012 35.5998 13.1799C34.2703 14.2196 32.7094 14.9229 31.0498 15.2299C28.5998 15.6399 26.4198 16.1399 24.4898 18.0499C22.8289 19.6854 21.9263 21.9401 21.9998 24.2699C22.0101 24.537 22.127 24.7888 22.3242 24.9692C22.5215 25.1496 22.7828 25.2434 23.0498 25.2299Z" fill="url(#paint2_linear)"/>
</g>
<defs>
<linearGradient id="paint0_linear" x1="8" y1="30.0012" x2="52" y2="30.0012" gradientUnits="userSpaceOnUse">
<stop stop-color="#0FD9B1"/>
<stop offset="1" stop-color="#15B8BE"/>
</linearGradient>
<linearGradient id="paint1_linear" x1="15" y1="22" x2="45" y2="22" gradientUnits="userSpaceOnUse">
<stop stop-color="#0FD9B1"/>
<stop offset="1" stop-color="#15B8BE"/>
</linearGradient>
<linearGradient id="paint2_linear" x1="21.9956" y1="21.9951" x2="37.9793" y2="21.9951" gradientUnits="userSpaceOnUse">
<stop stop-color="#0FD9B1"/>
<stop offset="1" stop-color="#15B8BE"/>
</linearGradient>
<clipPath id="clip0">
<rect width="60" height="60" fill="white"/>
</clipPath>
</defs>
</svg>
