<svg width="60" height="60" viewBox="0 0 60 60" fill="none" xmlns="http://www.w3.org/2000/svg">
<path d="M46.6016 20.3554C46.0676 16.3698 44.1043 12.7033 41.0733 10.0309C38.0144 7.33424 34.082 5.84912 30 5.84912C25.9187 5.84912 21.9867 7.33377 18.9283 10.0297C15.8975 12.7011 13.9339 16.3668 13.399 20.3514C13.3345 20.8323 13.6721 21.2747 14.1531 21.3393C14.6332 21.4047 15.0764 21.0662 15.141 20.5852C16.1342 13.1862 22.5221 7.60681 30 7.60681C37.4797 7.60681 43.8678 13.1879 44.8595 20.5888C44.9187 21.0303 45.2959 21.351 45.7295 21.351C45.7684 21.351 45.8076 21.3484 45.8472 21.3432C46.3283 21.2787 46.666 20.8364 46.6016 20.3554Z" fill="url(#paint0_linear)"/>
<path d="M45.8591 23.6968C45.3767 23.6372 44.9386 23.9793 44.8789 24.461C43.9523 31.9471 37.5559 37.5924 30.0002 37.5924C22.4391 37.5924 16.0421 31.9425 15.1203 24.4503C15.061 23.9686 14.6233 23.626 14.1407 23.6854C13.6589 23.7447 13.3165 24.1832 13.3758 24.665C14.4059 33.0368 21.5528 39.3501 30.0004 39.3501C38.4416 39.3501 45.5879 33.042 46.6232 24.6769C46.6829 24.1952 46.3407 23.7564 45.8591 23.6968Z" fill="url(#paint1_linear)"/>
<path d="M35.0845 28.1419H33.1146V13.0671C33.1146 12.4426 32.6066 11.9346 31.9821 11.9346H29.0186C28.7527 11.9346 28.4941 12.0287 28.2907 12.1995L22.9066 16.7178C22.4368 17.1121 22.3646 17.7994 22.7423 18.2826L24.5081 20.5424C24.6954 20.782 24.9761 20.9382 25.2784 20.971C25.5809 21.0038 25.8883 20.9113 26.1226 20.7174L27.3494 19.7016V28.1418H24.8624V28.1419C24.2379 28.1419 23.7299 28.65 23.7299 29.2744V31.962C23.7299 32.5865 24.2379 33.0945 24.8624 33.0945H35.0845C35.709 33.0945 36.217 32.5864 36.217 31.962V29.2744C36.217 28.6499 35.709 28.1419 35.0845 28.1419ZM34.4594 31.337H25.4877V29.8997H27.9747C28.5992 29.8997 29.1072 29.3917 29.1072 28.7672V18.3725C29.1071 17.929 28.858 17.5364 28.4567 17.3477C28.0554 17.1589 27.5941 17.2173 27.2524 17.5001L25.497 18.9535L24.499 17.6763L29.2462 13.6924H31.357V28.7672C31.357 29.3917 31.865 29.8997 32.4895 29.8997H34.4594V31.337Z" fill="url(#paint2_linear)"/>
<path d="M53.8341 50.2851L45.9158 37.8992C46.8071 37.7145 47.6108 37.2111 48.1643 36.4782C48.8023 35.6333 49.0569 34.5516 48.8625 33.5109C48.6979 32.6299 49.1434 31.7354 49.9456 31.3356C50.8933 30.8636 51.603 30.0087 51.8928 28.9904C52.1825 27.972 52.0292 26.8715 51.472 25.9712C51.0003 25.2091 51.0925 24.2142 51.6962 23.5517C52.4092 22.7691 52.7623 21.7156 52.6646 20.6614C52.5669 19.6071 52.0264 18.6364 51.1815 17.9981C50.4663 17.4579 50.1929 16.4968 50.5166 15.6609C50.8988 14.6735 50.8474 13.5637 50.3755 12.6158C49.9035 11.668 49.0488 10.9582 48.0304 10.6681C47.1684 10.4226 46.5662 9.62529 46.5661 8.72905C46.5658 7.67026 46.1169 6.65389 45.3344 5.94057C44.552 5.22726 43.4983 4.87417 42.4442 4.97155C41.5515 5.05429 40.7022 4.528 40.3782 3.69234C39.9955 2.70503 39.2097 1.91953 38.2224 1.53703C37.2351 1.15465 36.1252 1.20574 35.1774 1.67754C34.3751 2.07679 33.3927 1.89328 32.7888 1.23105C32.0755 0.44871 31.059 0 30.0002 0C28.9414 0 27.9251 0.44871 27.2115 1.23094C26.6077 1.89304 25.6252 2.07679 24.8229 1.67742C23.875 1.20562 22.7652 1.15453 21.7779 1.53691C20.7906 1.91941 20.0049 2.70492 19.6221 3.69222C19.2982 4.52788 18.4476 5.05394 17.5562 4.97144C16.5017 4.87394 15.4485 5.22702 14.666 5.94046C13.8836 6.65378 13.4346 7.67014 13.4344 8.72893C13.4343 9.62518 12.8321 10.4226 11.97 10.668C10.9517 10.9579 10.0969 11.6679 9.62499 12.6157C9.15308 13.5635 9.10164 14.6734 9.4839 15.6608C9.80745 16.4966 9.53406 17.4577 8.81898 17.998C7.97418 18.6363 7.43359 19.607 7.33586 20.6613C7.23824 21.7155 7.59121 22.769 8.30429 23.5516C8.90793 24.2141 9.00015 25.209 8.52847 25.9712C7.97125 26.8715 7.81797 27.972 8.10765 28.9904C8.39746 30.0087 9.10714 30.8636 10.0548 31.3356C10.8571 31.7354 11.3025 32.6299 11.138 33.5109C10.9436 34.5517 11.1981 35.6333 11.8362 36.4782C12.3897 37.2109 13.1933 37.7145 14.0847 37.8992L6.16633 50.2851C5.87488 50.741 5.86809 51.3117 6.14852 51.7745C6.42895 52.2373 6.93906 52.4951 7.47707 52.4479L15.2053 51.7678L17.8319 59.0678C18.0151 59.577 18.4629 59.9307 19.0007 59.991C19.0545 59.997 19.108 60 19.1612 60C19.6392 60 20.0827 59.7599 20.3449 59.3497L30.0002 44.2469L39.6554 59.3495C39.9177 59.7598 40.361 59.9998 40.8391 59.9998C40.8923 59.9998 40.946 59.9968 40.9998 59.9907C41.5375 59.9304 41.9853 59.5767 42.1686 59.0674L44.7952 51.7675L52.5234 52.4475C53.0626 52.4947 53.5716 52.2369 53.8521 51.7743C54.1324 51.3116 54.1256 50.7409 53.8341 50.2851ZM8.0289 50.6348L15.749 38.5589C16.0237 38.8382 16.2196 39.1963 16.2949 39.5988C16.4369 40.3572 16.8097 41.0489 17.3496 41.5846L11.8518 50.2983L8.0289 50.6348ZM17.1021 51.8479L16.7683 50.9199C16.5518 50.3183 15.9559 49.9368 15.3188 49.9933L14.0522 50.1047L18.8523 42.4968C19.5551 42.7217 20.3163 42.7397 21.037 42.5348C21.6452 42.3618 22.2874 42.4916 22.779 42.8501L17.1021 51.8479ZM19.2458 57.8058L17.8569 53.9455L23.9875 44.2289C24.4988 44.6885 25.1309 45.0067 25.8178 45.1351C26.3361 45.2319 26.8646 45.2174 27.3689 45.0998L19.2458 57.8058ZM30.5478 42.3178C30.4916 42.3054 30.4342 42.2987 30.3765 42.2975C30.2514 42.285 30.126 42.2766 30.0002 42.2766C29.8746 42.2766 29.7493 42.285 29.6242 42.2975C29.5662 42.2986 29.5086 42.3054 29.4521 42.3178C28.8385 42.4069 28.2427 42.6448 27.7262 43.0347C27.2681 43.3804 26.7049 43.5126 26.1407 43.4073C25.5764 43.3019 25.0992 42.975 24.7969 42.4869C24.7329 42.3837 24.6632 42.2855 24.5905 42.1902C24.5794 42.1757 24.5681 42.1613 24.5559 42.1475C23.6209 40.958 22.0347 40.4237 20.5561 40.8441C20.004 41.0011 19.4311 40.9212 18.943 40.619C18.4549 40.3168 18.128 39.8396 18.0224 39.2753C17.7973 38.0724 16.9995 37.0788 15.9365 36.5678C15.8821 36.5361 15.8258 36.5107 15.7682 36.4918C15.4211 36.3454 15.0496 36.2474 14.6615 36.2115C14.0899 36.1584 13.5846 35.8769 13.2387 35.4188C12.8928 34.9607 12.7602 34.3976 12.8657 33.8333C13.1735 32.1843 12.34 30.5103 10.8385 29.7623C10.3247 29.5063 9.95523 29.0613 9.79808 28.5092C9.64105 27.957 9.72085 27.3841 10.023 26.896C10.9059 25.4697 10.7332 23.6075 9.60331 22.3675C9.2166 21.9433 9.03296 21.3948 9.08582 20.8232C9.13878 20.2516 9.42015 19.7463 9.87824 19.4002C11.2166 18.389 11.7285 16.5903 11.1228 15.026C10.9155 14.4907 10.9423 13.9129 11.1982 13.3991C11.4541 12.8852 11.899 12.5156 12.4512 12.3585C14.0645 11.899 15.1915 10.4066 15.1919 8.72916C15.192 8.15506 15.4256 7.62608 15.8499 7.23924C16.2741 6.85253 16.8225 6.66842 17.3942 6.72151C19.0651 6.87631 20.6544 5.89147 21.2608 4.32737C21.4683 3.79218 21.8774 3.38308 22.4127 3.17578C22.9479 2.96847 23.5259 2.99507 24.0396 3.25089C25.5415 3.9982 27.3797 3.6546 28.5101 2.41523C28.8969 1.99113 29.426 1.75757 30.0001 1.75757C30.5742 1.75757 31.1033 1.99113 31.4901 2.41523C32.6204 3.6546 34.4589 3.9982 35.9606 3.25089C36.4745 2.99519 37.0522 2.96847 37.5875 3.17578C38.1228 3.38308 38.5319 3.79218 38.7393 4.32737C39.3457 5.89136 40.9347 6.87608 42.6061 6.72151C43.1773 6.66842 43.7259 6.85253 44.1502 7.23924C44.5745 7.62608 44.8081 8.15506 44.8082 8.72916C44.8085 10.4066 45.9355 11.899 47.5489 12.3585C48.101 12.5156 48.5459 12.8852 48.8018 13.3991C49.0577 13.9129 49.0844 14.4907 48.8771 15.026C48.2714 16.5903 48.7832 18.389 50.1216 19.4002C50.5797 19.7463 50.8611 20.2516 50.9141 20.8232C50.967 21.3949 50.7833 21.9433 50.3966 22.3675C49.2666 23.6075 49.0941 25.4696 49.9769 26.8959C50.279 27.3841 50.3588 27.9569 50.2017 28.5091C50.0446 29.0613 49.6751 29.5062 49.1613 29.7622C47.6599 30.5102 46.8263 32.1843 47.1342 33.8331C47.2395 34.3975 47.1071 34.9605 46.7612 35.4187C46.4152 35.8768 45.9099 36.1583 45.3383 36.2113C44.9498 36.2474 44.5781 36.3455 44.2306 36.4921C44.1734 36.511 44.1175 36.5362 44.0636 36.5676C43.0005 37.0784 42.2025 38.0722 41.9773 39.2752C41.8718 39.8395 41.5448 40.3166 41.0567 40.6189C40.5686 40.9211 39.9956 41.0009 39.4436 40.8441C37.9647 40.4235 36.3783 40.9581 35.4433 42.148C35.4316 42.1614 35.4208 42.1753 35.4101 42.1893C35.3372 42.2848 35.2672 42.3832 35.203 42.4868C34.9008 42.9749 34.4235 43.3018 33.8592 43.4072C33.2952 43.5125 32.7319 43.3804 32.2737 43.0346C31.7574 42.6447 31.1617 42.4069 30.5478 42.3178ZM40.7546 57.8058L32.6306 45.0981C32.9123 45.164 33.2012 45.199 33.4919 45.199C33.7221 45.199 33.9534 45.1779 34.1826 45.1351C34.8696 45.0067 35.5016 44.6887 36.0129 44.2291L42.1435 53.9459L40.7546 57.8058ZM44.6817 49.9933C44.0439 49.9371 43.4486 50.3182 43.2322 50.92L42.8982 51.8483L37.2212 42.8505C37.7129 42.4919 38.3551 42.3619 38.9635 42.535C39.684 42.7398 40.4452 42.7218 41.148 42.497L45.9479 50.1047L44.6817 49.9933ZM48.1483 50.2983L42.6507 41.5848C43.1907 41.0492 43.5636 40.3573 43.7056 39.5988C43.781 39.1963 43.9768 38.8382 44.2515 38.5591L51.9715 50.6348L48.1483 50.2983Z" fill="url(#paint3_linear)"/>
<defs>
<linearGradient id="paint0_linear" x1="13.3911" y1="13.6001" x2="46.6095" y2="13.6001" gradientUnits="userSpaceOnUse">
<stop stop-color="#0FD9B1"/>
<stop offset="1" stop-color="#15B8BE"/>
</linearGradient>
<linearGradient id="paint1_linear" x1="13.3691" y1="31.5144" x2="46.63" y2="31.5144" gradientUnits="userSpaceOnUse">
<stop stop-color="#0FD9B1"/>
<stop offset="1" stop-color="#15B8BE"/>
</linearGradient>
<linearGradient id="paint2_linear" x1="22.5005" y1="22.5145" x2="36.217" y2="22.5145" gradientUnits="userSpaceOnUse">
<stop stop-color="#0FD9B1"/>
<stop offset="1" stop-color="#15B8BE"/>
</linearGradient>
<linearGradient id="paint3_linear" x1="5.94287" y1="30" x2="54.0576" y2="30" gradientUnits="userSpaceOnUse">
<stop stop-color="#0FD9B1"/>
<stop offset="1" stop-color="#15B8BE"/>
</linearGradient>
</defs>
</svg>
