<svg width="60" height="60" viewBox="0 0 60 60" fill="none" xmlns="http://www.w3.org/2000/svg">
<path d="M10.269 26.5956C12.7524 26.5956 15.0078 25.3665 16.355 23.3688C17.01 23.9937 17.883 24.3919 18.8461 24.4373C20.6511 28.2701 24.4711 30.7127 28.7489 30.7127H31.431C35.7083 30.7127 39.5302 28.2687 41.3347 24.4345C42.2827 24.3764 43.1387 23.9726 43.7787 23.3482C45.1227 25.3596 47.3808 26.5956 49.8802 26.5956C50.6749 26.5956 51.3213 25.9492 51.3213 25.1546V15.2605C51.3213 11.8968 48.5852 9.16077 45.2216 9.16077H43.1099C42.7519 8.31985 41.9174 7.72888 40.9474 7.72888H40.5231C40.0974 7.72888 39.6849 7.84744 39.3274 8.05939C37.3329 5.98251 34.5305 4.6875 31.431 4.6875H28.7489C25.6435 4.6875 22.8365 5.98709 20.8415 8.07037C20.4803 7.85156 20.061 7.72888 19.6257 7.72888H19.2018C18.2318 7.72888 17.3973 8.31985 17.0393 9.16077H14.9277C11.5645 9.16077 8.82797 11.8973 8.82797 15.2605V25.1546C8.82751 25.9492 9.47433 26.5956 10.269 26.5956ZM41.098 22.6648C41.0394 22.6648 40.9731 22.6588 40.8888 22.6469C40.4837 22.5874 40.0914 22.8145 39.9385 23.1935C38.53 26.6821 35.1906 28.9362 31.4305 28.9362H28.7485C24.9847 28.9362 21.644 26.6789 20.2377 23.1853C20.1004 22.8442 19.7713 22.6286 19.4142 22.6286C19.362 22.6286 19.3089 22.6332 19.2563 22.6424C19.1739 22.6575 19.0997 22.6648 19.0302 22.6648C17.8702 22.6648 16.9272 21.7213 16.9272 20.5618V19.5689C16.9272 18.8718 17.4944 18.3046 18.1915 18.3046H18.6868C19.1776 18.3046 19.5753 17.9073 19.5753 17.4161V17.3145C21.3084 15.1154 23.9822 13.8107 26.7851 13.8107H33.3939C36.1972 13.8107 38.8705 15.1154 40.6041 17.3145V17.4161C40.6041 17.9068 41.0019 18.3046 41.4926 18.3046H41.7133C42.5125 18.3046 43.1625 18.9546 43.1625 19.7543V20.5998C43.163 21.7383 42.2365 22.6648 41.098 22.6648ZM49.5447 15.2605V24.809C47.4802 24.6877 45.6747 23.4512 44.8151 21.5689C44.8956 21.259 44.9396 20.9344 44.9396 20.5998V19.7539C44.9396 19.0398 44.7038 18.3801 44.3092 17.845C44.3092 17.845 44.2992 16.1906 44.2786 15.9869C44.23 15.499 43.7938 15.1419 43.3063 15.1918C42.8183 15.2403 42.4622 15.6757 42.5107 16.1641C42.5253 16.3087 42.5327 16.4566 42.5327 16.6026V16.6365C42.4823 16.6232 42.4324 16.6081 42.3811 16.5976V15.6372C42.3811 15.0664 42.3367 14.5056 42.2525 13.9581C42.8865 13.5306 43.2971 12.8064 43.2971 12.0085V10.9369H45.2216C47.6051 10.9369 49.5447 12.8764 49.5447 15.2605ZM40.5231 9.50546H40.9474C41.2633 9.50546 41.5201 9.76227 41.5201 10.0777V11.3818C41.2404 10.7213 40.8975 10.0937 40.4997 9.50684C40.5075 9.50638 40.5153 9.50546 40.5231 9.50546ZM28.7489 6.46408H31.431C36.1757 6.46408 40.0905 10.085 40.5574 14.7089C38.5844 13.0069 36.0379 12.0341 33.3943 12.0341H26.7856C24.1415 12.0341 21.595 13.0069 19.622 14.7089C20.089 10.085 24.0038 6.46408 28.7489 6.46408ZM19.2014 9.50546H19.6257C19.6436 9.50546 19.6609 9.50729 19.6783 9.50867C19.2659 10.117 18.9139 10.7693 18.6292 11.456V10.0777C18.6292 9.76227 18.886 9.50546 19.2014 9.50546ZM10.6046 15.2605C10.6046 12.8764 12.5436 10.9369 14.9277 10.9369H16.8526V12.0085C16.8526 12.8238 17.2737 13.5553 17.9242 13.9778C17.8418 14.5193 17.7988 15.0732 17.7988 15.6372V16.5532C17.7374 16.561 17.677 16.5715 17.617 16.5829C17.6175 16.4433 17.6244 16.3037 17.6381 16.1664C17.6871 15.6784 17.3309 15.2431 16.843 15.1941C16.355 15.1451 15.9192 15.5013 15.8702 15.9892C15.8501 16.1916 15.8395 17.6436 15.8395 17.6436C15.4092 18.1682 15.1506 18.8388 15.1506 19.5689V20.5618C15.1506 20.9344 15.2042 21.2947 15.303 21.6362C14.4301 23.4787 12.6389 24.6886 10.6046 24.809V15.2605Z" fill="url(#paint0_linear)"/>
<path d="M27.1321 18.7784C27.1321 19.5085 26.5407 20.0999 25.8105 20.0999C25.0809 20.0999 24.489 19.5085 24.489 18.7784C24.489 18.0487 25.0809 17.4568 25.8105 17.4568C26.5407 17.4568 27.1321 18.0487 27.1321 18.7784Z" fill="url(#paint1_linear)"/>
<path d="M35.6905 18.7784C35.6905 19.5085 35.0986 20.0999 34.3689 20.0999C33.6388 20.0999 33.0473 19.5085 33.0473 18.7784C33.0473 18.0487 33.6388 17.4568 34.3689 17.4568C35.0986 17.4568 35.6905 18.0487 35.6905 18.7784Z" fill="url(#paint2_linear)"/>
<path d="M34.0781 21.0887H26.1016C25.7248 21.0887 25.3645 21.2494 25.1128 21.5305C24.8606 21.8111 24.7397 22.1873 24.7809 22.5623C25.0771 25.2736 27.3595 27.3175 30.0896 27.3175C32.8201 27.3175 35.1026 25.2736 35.3987 22.5623C35.4395 22.1873 35.3186 21.8111 35.0669 21.53C34.8151 21.2494 34.4544 21.0887 34.0781 21.0887ZM30.0896 25.5409C28.4384 25.5409 27.0326 24.4212 26.6367 22.8653H33.543C33.147 24.4212 31.7412 25.5409 30.0896 25.5409Z" fill="url(#paint3_linear)"/>
<path d="M57.4411 41.2894V40.329C57.4411 34.2911 52.5293 29.3788 46.4914 29.3788H43.8094C37.7715 29.3788 32.8592 34.2911 32.8592 40.329V41.2445C31.3673 41.4381 30.211 42.7167 30.211 44.2607V45.2531C30.211 47.3309 31.8526 49.032 33.907 49.1286C35.7115 52.9614 39.5316 55.4041 43.8094 55.4041H46.4914C50.7687 55.4041 54.5906 52.9601 56.3951 49.1258C58.4038 49.0031 60 47.3305 60 45.2916V44.4456C60 42.8957 58.9009 41.5974 57.4411 41.2894ZM43.8094 31.1554H46.4914C51.2361 31.1554 55.1509 34.7768 55.6178 39.4006C53.6449 37.6982 51.0983 36.7255 48.4547 36.7255H41.846C39.2024 36.7255 36.6559 37.6982 34.6829 39.4006C35.1494 34.7768 39.0642 31.1554 43.8094 31.1554ZM58.2234 45.2916C58.2234 46.4301 57.2974 47.3561 56.1584 47.3561C56.0999 47.3561 56.0335 47.3506 55.9492 47.3387C55.5441 47.2792 55.1523 47.5058 54.9989 47.8853C53.5904 51.3739 50.251 53.6275 46.4914 53.6275H43.8094C40.0452 53.6275 36.7044 51.3702 35.2982 47.877C35.1608 47.536 34.8317 47.3199 34.4746 47.3199C34.4225 47.3199 34.3694 47.3245 34.3167 47.3341C34.2343 47.3492 34.1606 47.3561 34.0906 47.3561C32.9311 47.3561 31.9876 46.4131 31.9876 45.2531V44.2607C31.9876 43.5635 32.5548 42.9964 33.252 42.9964H33.7473C34.238 42.9964 34.6358 42.5986 34.6358 42.1078V42.0058C36.3693 39.8071 39.0427 38.5025 41.846 38.5025H48.4543C51.2576 38.5025 53.931 39.8071 55.6645 42.0058V42.1078C55.6645 42.5986 56.0623 42.9964 56.553 42.9964H56.7737C57.5729 42.9964 58.2234 43.6464 58.2234 44.4456V45.2916Z" fill="url(#paint4_linear)"/>
<path d="M42.193 43.4702C42.193 44.2003 41.6011 44.7917 40.8714 44.7917C40.1413 44.7917 39.5494 44.2003 39.5494 43.4702C39.5494 42.7405 40.1413 42.1486 40.8714 42.1486C41.6011 42.1486 42.193 42.7405 42.193 43.4702Z" fill="url(#paint5_linear)"/>
<path d="M50.7509 43.4702C50.7509 44.2003 50.1595 44.7917 49.4293 44.7917C48.6992 44.7917 48.1078 44.2003 48.1078 43.4702C48.1078 42.7405 48.6992 42.1486 49.4293 42.1486C50.1595 42.1486 50.7509 42.7405 50.7509 43.4702Z" fill="url(#paint6_linear)"/>
<path d="M49.1386 45.78H41.1621C40.7854 45.78 40.4251 45.9412 40.1733 46.2218C39.9216 46.5028 39.8002 46.8791 39.8414 47.254C40.1376 49.9649 42.4196 52.0093 45.1501 52.0093C47.8807 52.0093 50.1631 49.9649 50.4593 47.2545C50.5005 46.8791 50.3796 46.5028 50.1278 46.2222C49.8756 45.9412 49.5154 45.78 49.1386 45.78ZM45.1501 50.2327C43.4985 50.2327 42.0927 49.1125 41.6972 47.5571H48.6035C48.2075 49.1125 46.8017 50.2327 45.1501 50.2327Z" fill="url(#paint7_linear)"/>
<path d="M27.2305 41.2889V40.329C27.2305 34.2911 22.3183 29.3788 16.2804 29.3788H13.5983C7.56042 29.3788 2.64816 34.2911 2.64816 40.329V41.245C1.15631 41.4381 0 42.7171 0 44.2607V45.2531C0 47.3309 1.64154 49.0324 3.69598 49.1286C5.50049 52.9619 9.32053 55.4045 13.5983 55.4045H16.2804C20.5582 55.4045 24.3796 52.9601 26.1841 49.1258C28.1923 49.0031 29.789 47.33 29.789 45.2916V44.4456C29.789 42.8957 28.6899 41.5974 27.2305 41.2889ZM28.0124 45.2916C28.0124 46.4301 27.0859 47.3561 25.9474 47.3561C25.8888 47.3561 25.8224 47.3506 25.7382 47.3387C25.334 47.2792 24.9408 47.5058 24.7879 47.8853C23.3794 51.3739 20.04 53.6275 16.2799 53.6275H13.5979C9.83414 53.6275 6.49338 51.3702 5.08713 47.877C4.9498 47.536 4.62067 47.3199 4.26361 47.3199C4.21143 47.3199 4.15878 47.3245 4.10568 47.3341C4.02328 47.3492 3.94913 47.3561 3.87955 47.3561C2.72003 47.3561 1.77658 46.4131 1.77658 45.2531V44.2607C1.77658 43.5635 2.34375 42.9964 3.04092 42.9964H3.53622C4.02695 42.9964 4.42474 42.5986 4.42474 42.1078V42.0058C6.15829 39.8071 8.83163 38.5025 11.635 38.5025H18.2437C18.8475 38.5025 19.4508 38.5611 20.0372 38.6774C20.5183 38.773 20.9857 38.4599 21.0814 37.9788C21.1766 37.4977 20.864 37.0299 20.3824 36.9347C19.6829 36.796 18.9629 36.7255 18.2437 36.7255H11.635C8.99139 36.7255 6.44485 37.6982 4.47144 39.4006C4.93835 34.7768 8.85315 31.1554 13.5983 31.1554H16.2804C21.0237 31.1554 24.9376 34.7745 25.4063 39.3961C24.9971 39.0417 24.5622 38.7163 24.1013 38.4233C23.687 38.1606 23.1381 38.2832 22.8749 38.6975C22.6122 39.1118 22.7348 39.6606 23.1491 39.9234C24.034 40.4851 24.8067 41.1868 25.4535 42.009V42.1078C25.4535 42.5986 25.8513 42.9959 26.342 42.9959H26.5627C27.3619 42.9959 28.0124 43.6464 28.0124 44.4456V45.2916Z" fill="url(#paint8_linear)"/>
<path d="M11.982 43.4702C11.982 44.2003 11.3901 44.7917 10.6604 44.7917C9.93027 44.7917 9.33838 44.2003 9.33838 43.4702C9.33838 42.7405 9.93027 42.1486 10.6604 42.1486C11.3901 42.1486 11.982 42.7405 11.982 43.4702Z" fill="url(#paint9_linear)"/>
<path d="M20.5399 43.4702C20.5399 44.2003 19.9484 44.7917 19.2183 44.7917C18.4886 44.7917 17.8967 44.2003 17.8967 43.4702C17.8967 42.7405 18.4886 42.1486 19.2183 42.1486C19.9484 42.1486 20.5399 42.7405 20.5399 43.4702Z" fill="url(#paint10_linear)"/>
<path d="M18.9275 45.78H10.9509C10.5742 45.78 10.2139 45.9412 9.96218 46.2218C9.70995 46.5028 9.5891 46.8791 9.6303 47.254C9.92647 49.9649 12.2089 52.0093 14.939 52.0093C17.6695 52.0093 19.952 49.9649 20.2481 47.254C20.2889 46.8791 20.168 46.5028 19.9163 46.2218C19.6645 45.9412 19.3042 45.78 18.9275 45.78ZM14.939 50.2327C13.2878 50.2327 11.882 49.1125 11.4861 47.5571H18.3924C17.9964 49.113 16.5906 50.2327 14.939 50.2327Z" fill="url(#paint11_linear)"/>
<defs>
<linearGradient id="paint0_linear" x1="0" y1="30.046" x2="60" y2="30.046" gradientUnits="userSpaceOnUse">
<stop stop-color="#0FD9B1"/>
<stop offset="1" stop-color="#15B8BE"/>
</linearGradient>
<linearGradient id="paint1_linear" x1="0" y1="30.046" x2="60" y2="30.046" gradientUnits="userSpaceOnUse">
<stop stop-color="#0FD9B1"/>
<stop offset="1" stop-color="#15B8BE"/>
</linearGradient>
<linearGradient id="paint2_linear" x1="0" y1="30.046" x2="60" y2="30.046" gradientUnits="userSpaceOnUse">
<stop stop-color="#0FD9B1"/>
<stop offset="1" stop-color="#15B8BE"/>
</linearGradient>
<linearGradient id="paint3_linear" x1="0" y1="30.046" x2="60" y2="30.046" gradientUnits="userSpaceOnUse">
<stop stop-color="#0FD9B1"/>
<stop offset="1" stop-color="#15B8BE"/>
</linearGradient>
<linearGradient id="paint4_linear" x1="0" y1="30.046" x2="60" y2="30.046" gradientUnits="userSpaceOnUse">
<stop stop-color="#0FD9B1"/>
<stop offset="1" stop-color="#15B8BE"/>
</linearGradient>
<linearGradient id="paint5_linear" x1="0" y1="30.046" x2="60" y2="30.046" gradientUnits="userSpaceOnUse">
<stop stop-color="#0FD9B1"/>
<stop offset="1" stop-color="#15B8BE"/>
</linearGradient>
<linearGradient id="paint6_linear" x1="0" y1="30.046" x2="60" y2="30.046" gradientUnits="userSpaceOnUse">
<stop stop-color="#0FD9B1"/>
<stop offset="1" stop-color="#15B8BE"/>
</linearGradient>
<linearGradient id="paint7_linear" x1="0" y1="30.046" x2="60" y2="30.046" gradientUnits="userSpaceOnUse">
<stop stop-color="#0FD9B1"/>
<stop offset="1" stop-color="#15B8BE"/>
</linearGradient>
<linearGradient id="paint8_linear" x1="0" y1="30.046" x2="60" y2="30.046" gradientUnits="userSpaceOnUse">
<stop stop-color="#0FD9B1"/>
<stop offset="1" stop-color="#15B8BE"/>
</linearGradient>
<linearGradient id="paint9_linear" x1="0" y1="30.046" x2="60" y2="30.046" gradientUnits="userSpaceOnUse">
<stop stop-color="#0FD9B1"/>
<stop offset="1" stop-color="#15B8BE"/>
</linearGradient>
<linearGradient id="paint10_linear" x1="0" y1="30.046" x2="60" y2="30.046" gradientUnits="userSpaceOnUse">
<stop stop-color="#0FD9B1"/>
<stop offset="1" stop-color="#15B8BE"/>
</linearGradient>
<linearGradient id="paint11_linear" x1="0" y1="30.046" x2="60" y2="30.046" gradientUnits="userSpaceOnUse">
<stop stop-color="#0FD9B1"/>
<stop offset="1" stop-color="#15B8BE"/>
</linearGradient>
</defs>
</svg>
