<svg width="60" height="60" viewBox="0 0 60 60" fill="none" xmlns="http://www.w3.org/2000/svg">
<path d="M56.0742 9.78516H10.957C8.79234 9.78516 7.03125 11.5462 7.03125 13.7109V22.0898H0.878906C0.393516 22.0898 0 22.4832 0 22.9688C0 23.4543 0.393516 23.8477 0.878906 23.8477H11.4258C11.9112 23.8477 12.3047 23.4543 12.3047 22.9688C12.3047 22.4832 11.9112 22.0898 11.4258 22.0898H8.78906V13.7109C8.78906 13.4365 8.84238 13.1747 8.9359 12.9328L26.0031 30L8.9359 47.0672C8.84238 46.8253 8.78906 46.5635 8.78906 46.2891V40.5469C8.78906 40.0614 8.39555 39.668 7.91016 39.668C7.42477 39.668 7.03125 40.0614 7.03125 40.5469V46.2891C7.03125 48.4538 8.79234 50.2148 10.957 50.2148H56.0742C58.2389 50.2148 60 48.4538 60 46.2891V13.7109C60 11.5462 58.2389 9.78516 56.0742 9.78516ZM41.0282 30L58.0954 12.9328C58.1889 13.1747 58.2422 13.4365 58.2422 13.7109V46.2891C58.2422 46.5635 58.1889 46.8253 58.0954 47.0672L41.0282 30ZM56.0742 11.543C56.3487 11.543 56.6105 11.5963 56.8523 11.6898L37.2445 31.2976C35.1885 33.3539 31.8429 33.3539 29.7867 31.2976L10.1789 11.6898C10.4208 11.5963 10.6826 11.543 10.957 11.543H56.0742ZM10.957 48.457C10.6826 48.457 10.4208 48.4037 10.1789 48.3102L27.2461 31.243L28.5438 32.5407C29.9146 33.9114 31.7152 34.5968 33.5157 34.5968C35.3163 34.5968 37.1168 33.9114 38.4875 32.5407L39.7853 31.243L56.8525 48.3102C56.6106 48.4037 56.3488 48.457 56.0743 48.457H10.957Z" fill="url(#paint0_linear)"/>
<path d="M7.91016 25.6055C7.42477 25.6055 7.03125 25.9989 7.03125 26.4844V29.1211H0.878906C0.393516 29.1211 0 29.5145 0 30C0 30.4855 0.393516 30.8789 0.878906 30.8789H14.9414C15.4268 30.8789 15.8203 30.4855 15.8203 30C15.8203 29.5145 15.4268 29.1211 14.9414 29.1211H8.78906V26.4844C8.78906 25.9989 8.39555 25.6055 7.91016 25.6055Z" fill="url(#paint1_linear)"/>
<path d="M11.4258 37.9102C11.9112 37.9102 12.3047 37.5168 12.3047 37.0312C12.3047 36.5457 11.9112 36.1523 11.4258 36.1523H8.78906V33.5156C8.78906 33.0301 8.39555 32.6367 7.91016 32.6367C7.42477 32.6367 7.03125 33.0301 7.03125 33.5156V36.1523H0.878906C0.393516 36.1523 0 36.5457 0 37.0312C0 37.5168 0.393516 37.9102 0.878906 37.9102H11.4258Z" fill="url(#paint2_linear)"/>
<defs>
<linearGradient id="paint0_linear" x1="0" y1="30" x2="60" y2="30" gradientUnits="userSpaceOnUse">
<stop stop-color="#0FD9B1"/>
<stop offset="1" stop-color="#15B8BE"/>
</linearGradient>
<linearGradient id="paint1_linear" x1="0" y1="28.2422" x2="15.8203" y2="28.2422" gradientUnits="userSpaceOnUse">
<stop stop-color="#0FD9B1"/>
<stop offset="1" stop-color="#15B8BE"/>
</linearGradient>
<linearGradient id="paint2_linear" x1="0" y1="35.2734" x2="12.3047" y2="35.2734" gradientUnits="userSpaceOnUse">
<stop stop-color="#0FD9B1"/>
<stop offset="1" stop-color="#15B8BE"/>
</linearGradient>
</defs>
</svg>
