<svg width="60" height="60" viewBox="0 0 60 60" fill="none" xmlns="http://www.w3.org/2000/svg">
<path d="M59.4802 29.2917C59.2895 29.1829 59.069 29.1378 58.851 29.1632L58.879 29.1912C50.199 30.2209 44.3396 32.3811 40.646 35.0338C38.0885 36.875 36.5663 38.9512 35.8835 41.0946C35.2143 43.1912 35.3256 45.4591 36.1969 47.4801C36.642 48.5316 37.2418 49.5106 37.9766 50.3846L38.1221 50.2838C38.6378 49.9299 39.1227 49.5331 39.5715 49.0974C38.959 48.3744 38.4591 47.5632 38.0885 46.691C37.4088 45.1143 37.3233 43.3449 37.8479 41.7102C38.4075 39.9753 39.6779 38.2517 41.8549 36.6735C44.9944 34.4349 49.9416 32.5266 57.2057 31.4689C56.148 33.8361 54.5754 38.1845 55.1182 42.4489C55.5771 46.0474 54.9783 48.7001 53.7415 50.4797C53.2156 51.2435 52.5277 51.8816 51.7268 52.3489C50.928 52.8077 50.0447 53.1008 49.1301 53.2107C47.6421 53.3739 46.1366 53.1821 44.737 52.6511C44.2456 53.2109 43.7165 53.7364 43.1532 54.2237C45.0995 55.1191 47.2523 55.4692 49.382 55.2366C50.5649 55.092 51.7067 54.7114 52.7398 54.1173C53.8038 53.4964 54.7173 52.6479 55.4148 51.6326C56.9203 49.4612 57.6534 46.3272 57.1385 42.1803C56.4334 36.6399 59.8528 30.7134 59.864 30.6966C60.1459 30.2027 59.9741 29.5738 59.4802 29.2917Z" fill="url(#paint0_linear)"/>
<path d="M22.6093 39.9864C22.2959 36.8525 21.2438 34.4908 19.7384 32.8287C18.2558 31.2001 16.2343 30.1627 14.0469 29.9074C12.9149 29.7658 11.768 29.7941 10.6443 29.9913C10.6443 30.0529 10.6443 30.1089 10.6443 30.1704C10.6927 30.7934 10.7938 31.4113 10.9465 32.0172C11.8829 31.8481 12.8396 31.8216 13.7838 31.9389C15.4807 32.1282 17.0524 32.923 18.2106 34.1774C19.4306 35.5261 20.2924 37.496 20.561 40.1599C20.9472 44.0102 20.1077 49.2428 17.3935 56.0648C15.8769 53.9606 12.8716 50.4125 8.9262 48.7559C5.56838 47.3512 3.58167 45.51 2.66387 43.5569C2.26107 42.7278 2.04519 41.8204 2.03148 40.8986C2.0361 39.9766 2.22651 39.0648 2.59112 38.218C3.19203 36.848 4.10871 35.6399 5.26618 34.6923C5.03071 33.9857 4.84365 33.2641 4.70654 32.5321C2.95572 33.77 1.57454 35.4608 0.710738 37.4233C0.242742 38.5221 0.000979363 39.7042 0 40.8986C0.00503673 42.1304 0.282057 43.3458 0.811473 44.4579C1.93075 46.8476 4.28681 49.0637 8.13711 50.6811C13.2746 52.8301 16.6884 58.7119 16.7219 58.7734C17.0015 59.2652 17.6266 59.4371 18.1184 59.1578C18.3156 59.0455 18.4702 58.8711 18.5575 58.6615C21.9993 50.6307 23.0626 44.4803 22.6093 39.9864Z" fill="url(#paint1_linear)"/>
<path d="M54.9398 24.6076C46.6012 10.7118 39.9416 10.9693 33.6457 11.2155C30.9706 11.3218 28.3683 11.4226 25.8107 10.2418C25.2769 10.055 24.6926 10.3365 24.506 10.8704C24.3452 11.3301 24.5304 11.8395 24.9489 12.0885C27.9542 13.4709 30.7971 13.3645 33.7184 13.247C39.4267 13.0455 45.4708 12.8105 53.177 25.6597C53.4675 26.1465 54.0977 26.3057 54.5844 26.0151C55.0712 25.7246 55.2304 25.0945 54.9398 24.6076Z" fill="url(#paint2_linear)"/>
<path d="M15.3619 46.9369C15.0597 43.6406 13.5431 41.2286 12.0041 38.755C8.95965 33.9253 5.73615 28.8103 13.0114 15.7092C13.2749 15.21 13.0846 14.5917 12.5861 14.3269C12.0919 14.0517 11.4682 14.2292 11.193 14.7234L11.1926 14.7242C3.32412 28.8774 6.8834 34.513 10.2412 39.8463C11.6683 42.0848 13.0394 44.3234 13.3192 47.1216C13.3703 47.6857 13.8688 48.1016 14.4329 48.0506C14.997 47.9995 15.413 47.501 15.3619 46.9369Z" fill="url(#paint3_linear)"/>
<path d="M40.087 15.7486C39.761 16.645 39.3006 17.4867 38.7215 18.2446C37.7012 19.6193 36.2185 20.5792 34.5466 20.9476C32.767 21.3338 30.6292 21.0931 28.1892 19.9906C24.6579 18.3957 20.5445 15.049 16.0227 9.29039C18.597 9.02736 23.1692 8.1991 26.5774 5.60798C29.4595 3.41421 32.0618 2.60833 34.2164 2.8098C35.1422 2.88339 36.0404 3.16041 36.8467 3.62127C37.6424 4.08241 38.3372 4.69913 38.8894 5.4345C39.7746 6.63995 40.3615 8.03806 40.6019 9.51424C41.3319 9.65164 42.0519 9.83855 42.7565 10.0739C42.5587 7.93943 41.785 5.89871 40.5179 4.16972C39.7959 3.2126 38.8879 2.4112 37.8485 1.81365C36.7797 1.20281 35.5891 0.835964 34.3619 0.739147C31.7317 0.520889 28.6425 1.44429 25.3126 3.97944C21.1377 7.15258 14.853 7.33726 14.0807 7.33726C13.5133 7.30004 13.023 7.72984 12.9858 8.29732C12.9699 8.54034 13.0405 8.78112 13.1853 8.97699C18.4235 15.978 23.2196 19.9738 27.3385 21.8486C30.215 23.1414 32.7838 23.4156 34.972 22.9679C37.1274 22.4944 39.0381 21.2558 40.3501 19.4814C41.0388 18.57 41.5878 17.5608 41.9786 16.4873L41.8163 16.409C41.2592 16.1412 40.6808 15.9203 40.087 15.7486Z" fill="url(#paint4_linear)"/>
<path d="M51.7464 38.081C51.4203 37.6173 50.7802 37.5058 50.3166 37.8319C47.6135 39.7403 46.2872 42.2642 44.9217 44.8554C42.2578 49.8921 39.4429 55.259 24.4614 55.4885C23.8957 55.4977 23.4448 55.9637 23.454 56.5294C23.4633 57.095 23.9293 57.546 24.495 57.5367C40.6964 57.2681 43.8024 51.3807 46.7405 45.7844C47.9829 43.4283 49.1973 41.1226 51.4974 39.5108C51.9611 39.1848 52.0726 38.5446 51.7464 38.081Z" fill="url(#paint5_linear)"/>
<defs>
<linearGradient id="paint0_linear" x1="0" y1="30" x2="59.9996" y2="30" gradientUnits="userSpaceOnUse">
<stop stop-color="#0FD9B1"/>
<stop offset="1" stop-color="#15B8BE"/>
</linearGradient>
<linearGradient id="paint1_linear" x1="0" y1="30" x2="59.9996" y2="30" gradientUnits="userSpaceOnUse">
<stop stop-color="#0FD9B1"/>
<stop offset="1" stop-color="#15B8BE"/>
</linearGradient>
<linearGradient id="paint2_linear" x1="0" y1="30" x2="59.9996" y2="30" gradientUnits="userSpaceOnUse">
<stop stop-color="#0FD9B1"/>
<stop offset="1" stop-color="#15B8BE"/>
</linearGradient>
<linearGradient id="paint3_linear" x1="0" y1="30" x2="59.9996" y2="30" gradientUnits="userSpaceOnUse">
<stop stop-color="#0FD9B1"/>
<stop offset="1" stop-color="#15B8BE"/>
</linearGradient>
<linearGradient id="paint4_linear" x1="0" y1="30" x2="59.9996" y2="30" gradientUnits="userSpaceOnUse">
<stop stop-color="#0FD9B1"/>
<stop offset="1" stop-color="#15B8BE"/>
</linearGradient>
<linearGradient id="paint5_linear" x1="0" y1="30" x2="59.9996" y2="30" gradientUnits="userSpaceOnUse">
<stop stop-color="#0FD9B1"/>
<stop offset="1" stop-color="#15B8BE"/>
</linearGradient>
</defs>
</svg>
