<svg width="60" height="60" viewBox="0 0 60 60" fill="none" xmlns="http://www.w3.org/2000/svg">
<path d="M18.5032 21.7862C18.1262 21.4804 17.5729 21.5381 17.267 21.9152C16.9119 22.353 16.4412 22.5941 15.9413 22.5941C15.4413 22.5941 14.9706 22.3529 14.6155 21.9152C14.3098 21.5382 13.7562 21.4806 13.3793 21.7862C13.0023 22.0919 12.9445 22.6454 13.2503 23.0224C13.9355 23.8673 14.9163 24.3519 15.9413 24.3519C16.9662 24.3519 17.9469 23.8673 18.6323 23.0224C18.938 22.6454 18.8802 22.0919 18.5032 21.7862Z" fill="url(#paint0_linear)"/>
<path d="M11.9251 16.5686C11.4397 16.5686 11.0462 16.9621 11.0462 17.4475V18.4517C11.0462 18.9371 11.4397 19.3306 11.9251 19.3306C12.4105 19.3306 12.8041 18.9371 12.8041 18.4517V17.4475C12.8041 16.9621 12.4105 16.5686 11.9251 16.5686Z" fill="url(#paint1_linear)"/>
<path d="M19.9588 16.5686C19.4734 16.5686 19.0799 16.9621 19.0799 17.4475V18.4517C19.0799 18.9371 19.4733 19.3306 19.9588 19.3306C20.4442 19.3306 20.8378 18.9371 20.8378 18.4517V17.4475C20.8378 16.9621 20.4442 16.5686 19.9588 16.5686Z" fill="url(#paint2_linear)"/>
<path d="M47.625 26.8068C47.248 26.501 46.6946 26.5587 46.3888 26.9358C46.0337 27.3735 45.5629 27.6147 45.0631 27.6147C44.5631 27.6147 44.0924 27.3735 43.7373 26.9358C43.4317 26.5588 42.8781 26.501 42.5011 26.8068C42.1241 27.1125 42.0664 27.666 42.3722 28.043C43.0573 28.888 44.0381 29.3725 45.0631 29.3725C46.088 29.3725 47.0687 28.8879 47.7539 28.043C48.0597 27.666 48.002 27.1125 47.625 26.8068Z" fill="url(#paint3_linear)"/>
<path d="M41.0464 21.5898C40.561 21.5898 40.1675 21.9833 40.1675 22.4687V23.4728C40.1675 23.9582 40.561 24.3518 41.0464 24.3518C41.5318 24.3518 41.9253 23.9582 41.9253 23.4728V22.4687C41.9253 21.9833 41.5318 21.5898 41.0464 21.5898Z" fill="url(#paint4_linear)"/>
<path d="M49.0801 21.5898C48.5947 21.5898 48.2012 21.9833 48.2012 22.4687V23.4728C48.2012 23.9582 48.5946 24.3518 49.0801 24.3518C49.5655 24.3518 49.959 23.9582 49.959 23.4728V22.4687C49.959 21.9833 49.5655 21.5898 49.0801 21.5898Z" fill="url(#paint5_linear)"/>
<path d="M57.5542 38.9704L50.6685 36.2162C50.6313 36.2013 50.5968 36.1823 50.5619 36.164C55.3177 35.0819 57.5701 33.2723 57.6701 33.1904C57.9078 32.9955 58.0266 32.6905 57.9831 32.3862C57.9731 32.3166 56.9877 25.3391 56.9877 18.4521C56.9877 11.8766 51.6382 6.52711 45.0627 6.52711C38.4873 6.52711 33.1379 11.8765 33.1379 18.4521C33.1379 20.2537 33.0561 22.4573 32.923 24.5434L31.0042 25.5028L25.3722 22.6869C25.356 22.6788 25.339 22.673 25.3225 22.6659C25.5904 21.8851 25.7656 21.0617 25.8299 20.2073C27.008 19.8433 27.8664 18.744 27.8664 17.4479C27.8664 16.5749 27.4764 15.7919 26.8622 15.262V9.41428C26.8622 7.79884 26.046 6.28735 24.7075 5.37914C24.254 3.69397 22.7399 2.51025 20.9624 2.51025H12.9289C8.56833 2.51025 5.02069 6.05789 5.02069 10.4185V15.2619C4.40651 15.7917 4.01651 16.5748 4.01651 17.4478C4.01651 18.7439 4.87491 19.8432 6.053 20.2072C6.27496 23.1579 7.79559 25.7504 10.0416 27.419V29.8483L2.77314 32.0288C1.11446 32.5265 0 34.0243 0 35.7561V45.5648C0 46.0502 0.393518 46.4438 0.878911 46.4438H1.00419V56.6109C1.00419 57.0963 1.3977 57.4898 1.8831 57.4898C2.36849 57.4898 2.76201 57.0963 2.76201 56.6109V46.4438H6.02511V56.6109C6.02511 57.0963 6.41863 57.4898 6.90403 57.4898C7.38942 57.4898 7.78294 57.0963 7.78294 56.6109V41.4561C7.78294 40.6852 7.55688 39.9388 7.12938 39.2975L5.62703 37.044C5.35773 36.64 4.81198 36.531 4.40827 36.8001C4.00432 37.0693 3.89522 37.615 4.16452 38.019L5.66687 40.2726C5.90125 40.6242 6.02523 41.0334 6.02523 41.4561V44.6859H1.75782V35.7561C1.75782 34.8065 2.36884 33.9854 3.27846 33.7124L6.2957 32.8073C7.34641 37.2067 11.3368 40.4186 15.9417 40.4186C17.596 40.4186 19.2027 40.0107 20.6414 39.2345C21.1672 39.9518 22.0153 40.4186 22.9709 40.4186H23.0962V40.5439C23.0962 43.4904 24.7171 46.0638 27.1129 47.4243V48.8578C27.1129 48.9117 27.0784 48.9596 27.0272 48.9767L23.7487 50.0696C22.1571 50.6001 21.0878 52.0837 21.0878 53.7613V56.6109C21.0878 57.0963 21.4813 57.4898 21.9667 57.4898C22.4521 57.4898 22.8456 57.0963 22.8456 56.6109V53.7613C22.8456 52.8415 23.4319 52.028 24.3045 51.7373L25.2686 51.4158C26.5441 53.318 28.6892 54.4774 31.0042 54.4774C33.3218 54.4774 35.4649 53.3187 36.7401 51.4159L37.704 51.7373C38.5766 52.0281 39.1629 52.8415 39.1629 53.7613V56.6109C39.1629 57.0963 39.5564 57.4898 40.0418 57.4898C40.5272 57.4898 40.9207 57.0963 40.9207 56.6109V53.7613C40.9207 52.0837 39.8514 50.6001 38.2598 50.0697L34.9813 48.9768C34.93 48.9597 34.8956 48.912 34.8956 48.8579V47.4244C36.6894 46.4058 38.0471 44.707 38.6167 42.6805C40.2776 44.4184 42.5973 45.4398 45.0626 45.4398C48.9547 45.4398 52.3696 42.9239 53.546 39.2607L56.901 40.6026C57.7158 40.9285 58.2422 41.7062 58.2422 42.5836V46.6944H54.9791V45.565C54.9791 45.0796 54.5856 44.686 54.1002 44.686C53.6148 44.686 53.2212 45.0796 53.2212 45.565V56.611C53.2212 57.0964 53.6148 57.4899 54.1002 57.4899C54.5856 57.4899 54.9791 57.0964 54.9791 56.611V48.4522H57.238V56.611C57.238 57.0964 57.6315 57.4899 58.1169 57.4899C58.6023 57.4899 58.9958 57.0964 58.9958 56.611V48.4522H59.1211C59.3542 48.4522 59.5777 48.3597 59.7425 48.1949C59.9074 48.03 60 47.8065 60 47.5733V42.5836C60.0004 40.983 59.0402 39.5648 57.5542 38.9704ZM34.8958 18.452C34.8958 12.8458 39.4568 8.28482 45.063 8.28482C50.6691 8.28482 55.23 12.8458 55.23 18.452C55.23 24.3539 55.9407 30.3201 56.1717 32.1019C55.3841 32.6172 53.3675 33.752 49.9586 34.4978V33.0992C50.4255 32.8346 50.8724 32.5326 51.2927 32.193C53.0221 30.795 54.2443 28.8372 54.7337 26.6802C54.8968 25.9615 54.9795 25.2203 54.9795 24.4772C54.9795 19.5095 51.3869 18.7962 47.9125 18.1065C45.7018 17.6676 43.4158 17.2137 41.5954 15.7574C41.3316 15.5464 40.9702 15.5053 40.6656 15.6516C40.361 15.798 40.1674 16.1058 40.1674 16.4438C40.1674 16.4671 40.1291 18.7797 36.8164 19.6079C36.3455 19.7257 36.0592 20.2029 36.1769 20.6738C36.2946 21.1448 36.7719 21.4309 37.2428 21.3133C40.0154 20.6202 41.1465 19.0647 41.6078 17.8961C43.5137 19.0256 45.6488 19.4493 47.5702 19.8308C51.2838 20.568 53.2217 21.1095 53.2217 24.4773C53.2217 25.0897 53.1536 25.7 53.0195 26.2914C52.6169 28.0649 51.6113 29.6753 50.1876 30.8261C48.7227 32.0102 46.9506 32.6359 45.063 32.6359C43.3422 32.6359 41.7045 32.1081 40.3146 31.1107C39.8054 29.721 38.9876 28.4495 37.9084 27.4018V23.4731C37.9084 23.1684 37.7506 22.8855 37.4915 22.7255C37.2324 22.5654 36.909 22.5507 36.6364 22.687L34.7388 23.6358C34.8429 21.8054 34.8958 20.0652 34.8958 18.452ZM36.1506 24.895V28.0758L32.9696 26.4854L36.1506 24.895ZM25.8582 24.895L29.039 26.4854L25.8582 28.0758V24.895ZM21.0878 34.5188V35.3535C20.4585 35.8969 20.0836 36.6922 20.0836 37.5312C18.8318 38.2708 17.4097 38.6608 15.9416 38.6608C12.1184 38.6608 8.81079 35.9704 7.98333 32.301L10.1547 31.6496C10.6904 34.3552 13.0811 36.4019 15.9417 36.4019C18.2132 36.4019 20.1875 35.1108 21.1731 33.2247C21.1167 33.6515 21.0878 34.0837 21.0878 34.5188ZM11.7997 30.5007V28.4647C13.0609 29.0472 14.4638 29.3726 15.9417 29.3726C17.4194 29.3726 18.8225 29.0471 20.0837 28.4649V30.5019C20.0837 32.7858 18.2257 34.644 15.9417 34.644C13.6616 34.644 11.8061 32.7919 11.7999 30.5132C11.7999 30.509 11.7997 30.5048 11.7997 30.5007ZM15.9417 27.6148C11.4428 27.6148 7.78294 23.9549 7.78294 19.4561C7.78294 18.9707 7.38942 18.5772 6.90403 18.5772C6.28129 18.5772 5.77457 18.0705 5.77457 17.4478C5.77457 16.825 6.28117 16.3183 6.90403 16.3183H8.9124C9.29068 16.3183 9.62654 16.0763 9.74619 15.7174L10.5529 13.2972C12.5727 13.2516 18.8339 12.9677 22.3597 11.2047C22.7939 10.9875 22.9699 10.4597 22.7528 10.0255C22.5358 9.59135 22.0079 9.41533 21.5736 9.63248C17.7907 11.5239 9.99463 11.548 9.91635 11.548C9.53806 11.5482 9.2022 11.7902 9.08267 12.1491L8.27888 14.5606H6.90403C6.86207 14.5606 6.82035 14.562 6.77875 14.5638V10.4185C6.77875 7.02716 9.53783 4.26808 12.9291 4.26808H20.9626C22.0122 4.26808 22.8939 5.02453 23.0595 6.06656C23.1015 6.33141 23.2622 6.5625 23.4958 6.69422C24.4881 7.25392 25.1046 8.29607 25.1046 9.41416V14.5635C25.063 14.5617 25.0214 14.5604 24.9794 14.5604H23.9752C23.4898 14.5604 23.0963 14.9539 23.0963 15.4393C23.0963 15.9247 23.4898 16.3182 23.9752 16.3182H24.9794C25.6021 16.3182 26.1088 16.8248 26.1088 17.4476C26.1088 18.0705 25.6022 18.5771 24.9794 18.5771C24.494 18.5771 24.1005 18.9706 24.1005 19.456C24.1005 23.9548 20.4405 27.6148 15.9417 27.6148ZM21.8414 30.5022V27.419C22.7158 26.7694 23.4799 25.9804 24.1003 25.0836V27.4017C23.1161 28.3573 22.3488 29.4988 21.8352 30.7466C21.8386 30.6654 21.8414 30.5841 21.8414 30.5022ZM34.9863 50.8312C34.0187 52.0132 32.5651 52.7194 31.0044 52.7194C29.4455 52.7194 27.991 52.0128 27.023 50.831L27.5832 50.6444C28.3533 50.3877 28.8708 49.6697 28.8708 48.8579V48.1574C29.5501 48.3481 30.2651 48.4522 31.0045 48.4522C31.7438 48.4522 32.4589 48.3481 33.1381 48.1574V48.8579C33.138 49.6696 33.6554 50.3876 34.4257 50.6442L34.9863 50.8312ZM38.0338 38.6608C37.5484 38.6608 37.1549 39.0543 37.1549 39.5397V40.4136C37.1549 40.4212 37.1547 40.4288 37.1549 40.4365V40.5439C37.1547 43.9352 34.3957 46.6943 31.0044 46.6943C27.6131 46.6943 24.8541 43.9352 24.8541 40.5439V39.5397C24.8541 39.0543 24.4606 38.6608 23.9752 38.6608H22.971C22.3483 38.6608 21.8415 38.1542 21.8415 37.5314C21.8415 37.1306 22.0536 36.7679 22.4088 36.5612C22.4882 36.515 22.5572 36.4565 22.617 36.3904C24.7896 36.3275 31.8325 35.9186 36.4613 33.2736C36.8828 33.0327 37.0292 32.4959 36.7884 32.0744C36.5476 31.6528 36.0105 31.5065 35.5892 31.7473C31.5343 34.0643 25.1625 34.5283 22.8457 34.621V34.5188C22.8457 32.8841 23.3407 31.301 24.2377 29.9664C24.3079 30.0776 24.4017 30.1742 24.5173 30.2455C24.6585 30.3327 24.8187 30.3768 24.9794 30.3768C25.1137 30.3768 25.2483 30.346 25.3724 30.284L31.0045 27.4679L36.6365 30.284C36.7606 30.346 36.8953 30.3768 37.0296 30.3768C37.1904 30.3768 37.3506 30.3327 37.4917 30.2455C37.6071 30.1742 37.701 30.0775 37.7712 29.9664C38.6681 31.301 39.1631 32.8841 39.1631 34.5188V35.8015C39.1631 36.1144 39.3294 36.4038 39.6 36.5612C39.9553 36.768 40.1674 37.1306 40.1674 37.5314C40.1674 38.1541 39.6607 38.6608 39.038 38.6608H38.0338ZM45.063 43.6817C42.6297 43.6817 40.3722 42.4429 39.058 40.4182C40.6407 40.4073 41.9251 39.1167 41.9251 37.5315C41.9251 36.6924 41.5502 35.897 40.9209 35.3536V34.5189C40.9209 34.1651 40.9018 33.8133 40.8645 33.4648C42.1677 34.0758 43.5906 34.3935 45.063 34.3935C46.1346 34.3935 47.1945 34.216 48.2008 33.8804V35.1674C48.2008 36.3549 48.9132 37.4073 50.0157 37.8482L51.911 38.6063C51.0026 41.6096 48.2288 43.6817 45.063 43.6817Z" fill="url(#paint6_linear)"/>
<path d="M33.5667 41.8694C33.1897 41.5637 32.6363 41.6213 32.3305 41.9984C31.9753 42.4362 31.5046 42.6773 31.0048 42.6773C30.505 42.6773 30.0341 42.4362 29.679 41.9984C29.3733 41.6214 28.8197 41.5637 28.4428 41.8694C28.0658 42.1752 28.008 42.7286 28.3138 43.1056C28.9991 43.9504 29.9798 44.4351 31.0048 44.4351C32.0297 44.4351 33.0104 43.9506 33.6958 43.1057C34.0014 42.7288 33.9436 42.1752 33.5667 41.8694Z" fill="url(#paint7_linear)"/>
<path d="M28.008 39.4182C28.4934 39.4182 28.8869 39.0247 28.8869 38.5393C28.8869 38.0539 28.4934 37.6604 28.008 37.6604C27.5226 37.6604 27.1291 38.0539 27.1291 38.5393C27.1291 39.0247 27.5226 39.4182 28.008 39.4182Z" fill="url(#paint8_linear)"/>
<path d="M33.9846 39.4182C34.47 39.4182 34.8635 39.0247 34.8635 38.5393C34.8635 38.0539 34.47 37.6604 33.9846 37.6604C33.4992 37.6604 33.1057 38.0539 33.1057 38.5393C33.1057 39.0247 33.4992 39.4182 33.9846 39.4182Z" fill="url(#paint9_linear)"/>
<defs>
<linearGradient id="paint0_linear" x1="0" y1="30.0001" x2="60" y2="30.0001" gradientUnits="userSpaceOnUse">
<stop stop-color="#0FD9B1"/>
<stop offset="1" stop-color="#15B8BE"/>
</linearGradient>
<linearGradient id="paint1_linear" x1="0" y1="30.0001" x2="60" y2="30.0001" gradientUnits="userSpaceOnUse">
<stop stop-color="#0FD9B1"/>
<stop offset="1" stop-color="#15B8BE"/>
</linearGradient>
<linearGradient id="paint2_linear" x1="0" y1="30.0001" x2="60" y2="30.0001" gradientUnits="userSpaceOnUse">
<stop stop-color="#0FD9B1"/>
<stop offset="1" stop-color="#15B8BE"/>
</linearGradient>
<linearGradient id="paint3_linear" x1="0" y1="30.0001" x2="60" y2="30.0001" gradientUnits="userSpaceOnUse">
<stop stop-color="#0FD9B1"/>
<stop offset="1" stop-color="#15B8BE"/>
</linearGradient>
<linearGradient id="paint4_linear" x1="0" y1="30.0001" x2="60" y2="30.0001" gradientUnits="userSpaceOnUse">
<stop stop-color="#0FD9B1"/>
<stop offset="1" stop-color="#15B8BE"/>
</linearGradient>
<linearGradient id="paint5_linear" x1="0" y1="30.0001" x2="60" y2="30.0001" gradientUnits="userSpaceOnUse">
<stop stop-color="#0FD9B1"/>
<stop offset="1" stop-color="#15B8BE"/>
</linearGradient>
<linearGradient id="paint6_linear" x1="0" y1="30.0001" x2="60" y2="30.0001" gradientUnits="userSpaceOnUse">
<stop stop-color="#0FD9B1"/>
<stop offset="1" stop-color="#15B8BE"/>
</linearGradient>
<linearGradient id="paint7_linear" x1="0" y1="30.0001" x2="60" y2="30.0001" gradientUnits="userSpaceOnUse">
<stop stop-color="#0FD9B1"/>
<stop offset="1" stop-color="#15B8BE"/>
</linearGradient>
<linearGradient id="paint8_linear" x1="0" y1="30.0001" x2="60" y2="30.0001" gradientUnits="userSpaceOnUse">
<stop stop-color="#0FD9B1"/>
<stop offset="1" stop-color="#15B8BE"/>
</linearGradient>
<linearGradient id="paint9_linear" x1="0" y1="30.0001" x2="60" y2="30.0001" gradientUnits="userSpaceOnUse">
<stop stop-color="#0FD9B1"/>
<stop offset="1" stop-color="#15B8BE"/>
</linearGradient>
</defs>
</svg>
