<svg width="60" height="60" viewBox="0 0 60 60" fill="none" xmlns="http://www.w3.org/2000/svg">
<g clip-path="url(#clip0)">
<path d="M44.5444 27.1872L49.7362 28.9169C49.9322 28.9825 50.1319 29.0144 50.3278 29.0144C51.1125 29.0144 51.8456 28.5175 52.1081 27.7329L52.125 27.6813L55.9903 29.9997H59.0625V28.1247H56.5097L52.7231 25.8532C52.9819 24.9007 52.4616 23.8985 51.5147 23.5825L45.4556 21.5622H36.7313L37.1419 19.0994L42.885 17.4579L47.1947 12.0691C47.8134 11.2975 47.7131 10.1866 46.9959 9.52473L49.2188 6.56223H53.4375V4.68723H48.2812L45.54 8.34254L45.4387 8.26191C44.6316 7.61691 43.4484 7.74629 42.8034 8.55535L39.6141 12.5425L34.2919 14.0622H33.5081C34.0669 12.9944 34.6875 11.5366 34.6875 10.3122C34.6875 9.49754 34.2834 8.83848 33.7181 8.3116C34.3584 7.28691 34.6875 6.39816 34.6875 5.62473C34.6875 3.42441 32.7581 1.43129 32.5378 1.21191L31.2103 2.5366C31.6566 2.98566 32.8125 4.41535 32.8125 5.62473C32.8125 5.82535 32.7309 6.34941 32.1544 7.28598C31.3209 6.88754 30.5297 6.66629 30.2278 6.59035L30 6.53316L29.7722 6.59035C29.4703 6.66535 28.6781 6.88754 27.8447 7.28598C27.2691 6.35035 27.1875 5.82535 27.1875 5.62473C27.1875 4.41535 28.3434 2.98566 28.7887 2.5366L27.4613 1.21191C27.2419 1.43129 25.3125 3.42441 25.3125 5.62473C25.3125 6.38598 25.6481 7.2916 26.2828 8.31066C25.7175 8.83848 25.3125 9.4966 25.3125 10.3122C25.3125 11.5366 25.9331 12.9944 26.4909 14.0622H25.7072L20.385 12.5416L17.1956 8.55441C16.5506 7.74723 15.3666 7.61504 14.5594 8.26191L14.4591 8.34254L11.7188 4.68723H6.5625V6.56223H10.7812L13.0031 9.52473C12.2859 10.1866 12.1856 11.2975 12.8034 12.0691L17.1141 17.4579L22.8572 19.0994L23.2687 21.5622H14.5444L8.48531 23.5825C7.53844 23.8985 7.01813 24.9007 7.27688 25.8532L3.49031 28.1247H0.9375V29.9997H4.00969L7.87594 27.6804L7.89281 27.7319C8.15531 28.5166 8.88844 29.0135 9.67219 29.0135C9.86812 29.0135 10.0678 28.9825 10.2638 28.916L15.4556 27.1872H18.045L17.0297 32.8122H10.3125C9.24 32.8122 8.27719 33.4085 7.79719 34.3666L4.98469 39.9916C4.5225 40.916 4.89844 42.0447 5.82375 42.5079L6.27281 42.7329L4.91625 46.1238L2.51625 46.9244L3.10969 48.7019L6.33469 47.6275L7.98375 43.5044C8.10094 43.5269 8.21813 43.5447 8.33625 43.5447C9.02437 43.5447 9.68812 43.165 10.0162 42.5088L12.0506 38.4372H14.5837C14.7244 38.6782 14.8856 38.9041 15.0741 39.1066C14.4609 39.6232 14.0625 40.3872 14.0625 41.2497C14.0625 43.2775 15.3647 44.9922 17.1703 45.6438C16.9875 46.0169 16.875 46.4313 16.875 46.8747C16.875 48.9016 18.1763 50.6163 19.9809 51.2688L19.9622 51.2875L26.1366 57.4619C27.1678 58.4941 28.5403 59.0622 30 59.0622C31.4597 59.0622 32.8322 58.4941 33.8634 57.4619L40.0378 51.2875L40.0191 51.2688C41.8237 50.6163 43.125 48.9016 43.125 46.8747C43.125 46.4313 43.0125 46.0169 42.8297 45.6438C44.6353 44.9922 45.9375 43.2775 45.9375 41.2497C45.9375 40.3872 45.5391 39.6232 44.925 39.1066C45.1144 38.9032 45.2747 38.6782 45.4153 38.4372H47.9484L49.9838 42.5079C50.3119 43.1641 50.9756 43.5438 51.6637 43.5438C51.7809 43.5438 51.8991 43.526 52.0163 43.5035L53.6653 47.6266L56.8903 48.701L57.4838 46.9235L55.0838 46.1229L53.7272 42.7319L54.1762 42.5069C55.1006 42.0447 55.4775 40.916 55.0153 39.9907L52.2028 34.3657C51.7237 33.4085 50.76 32.8122 49.6875 32.8122H42.9703L41.955 27.1872H44.5444ZM40.0172 23.4372H44.2022L43.8984 25.3122H41.3597C41.0213 24.6035 40.5684 23.9735 40.0172 23.4372ZM15.7978 23.4372H19.9828C19.4316 23.9735 18.9778 24.6035 18.6413 25.3122H16.1016L15.7978 23.4372ZM20.2416 14.4504L22.9659 15.2294C22.6725 15.6579 22.5 16.1744 22.5 16.7313C22.5 16.841 22.5131 16.9469 22.5262 17.0538L19.1503 16.0891L20.2416 14.4504ZM40.8487 16.0891L37.4728 17.0538C37.4869 16.9469 37.5 16.84 37.5 16.7313C37.5 16.1744 37.3275 15.6579 37.035 15.2294L39.7594 14.4504L40.8487 16.0891ZM34.8309 15.9372C35.2687 15.9372 35.625 16.2935 35.625 16.7313C35.625 16.7754 35.6213 16.8194 35.6147 16.8625L34.8309 21.5622H25.1691L24.3853 16.8616C24.3787 16.8185 24.375 16.7754 24.375 16.7313C24.375 16.2935 24.7313 15.9372 25.1691 15.9372H34.8309ZM19.9312 27.2913C20.3344 25.0582 22.275 23.4372 24.5438 23.4372H28.9894C28.6359 26.5985 26.5472 29.3857 23.5387 30.5425L19.0312 32.276L19.9312 27.2913ZM30 26.7925C31.1194 29.2666 33.1716 31.2869 35.7881 32.2938L37.1381 32.8122H22.8619L24.2119 32.2929C26.8284 31.2869 28.8806 29.2657 30 26.7925ZM17.8125 34.6872H42.1875C43.2216 34.6872 44.0625 35.5282 44.0625 36.5622C44.0625 37.5963 43.2216 38.4372 42.1875 38.4372H17.8125C16.7784 38.4372 15.9375 37.5963 15.9375 36.5622C15.9375 35.5282 16.7784 34.6872 17.8125 34.6872ZM36.4613 30.5425C33.4528 29.3857 31.3641 26.5985 31.0106 23.4372H35.4562C37.7259 23.4372 39.6656 25.0582 40.0688 27.2913L40.9688 32.276L36.4613 30.5425ZM50.3287 27.1385L45.75 25.6122L46.0537 23.7372L50.9222 25.361L50.3287 27.1385ZM44.2678 9.72535L45.7322 10.8972L42.4097 15.0504L41.3194 13.4116L44.2678 9.72535ZM27.1875 10.3122C27.1875 9.62504 28.7766 8.82535 30 8.47098C31.2234 8.82535 32.8125 9.6241 32.8125 10.3122C32.8125 11.4185 31.9181 13.1313 31.3556 14.0622H28.6434C28.0819 13.1313 27.1875 11.4185 27.1875 10.3122ZM15.7322 9.72629L18.6806 13.4116L17.5903 15.0504L14.2678 10.8972L15.7322 9.72629ZM9.67125 27.1385L9.07781 25.361L13.9462 23.7382L14.25 25.6132L9.67125 27.1385ZM8.33906 41.6688L6.66187 40.8297L9.24094 35.6716L10.3997 37.5466L8.33906 41.6688ZM11.9944 36.5622L10.8356 34.6872H14.5847C14.2613 35.2413 14.0625 35.876 14.0625 36.5622H11.9944ZM32.5378 56.1363C31.1822 57.491 28.8178 57.491 27.4622 56.1363L22.8881 51.5622H37.1119L32.5378 56.1363ZM38.4375 49.6872H21.5625C20.0119 49.6872 18.75 48.4254 18.75 46.8747C18.75 46.3572 19.1709 45.9372 19.6875 45.9372H40.3125C40.8291 45.9372 41.25 46.3572 41.25 46.8747C41.25 48.4254 39.9881 49.6872 38.4375 49.6872ZM41.25 44.0622H40.3125H19.6875H18.75C17.1994 44.0622 15.9375 42.8004 15.9375 41.2497C15.9375 40.7322 16.3584 40.3122 16.875 40.3122H17.8125H42.1875H43.125C43.6416 40.3122 44.0625 40.7322 44.0625 41.2497C44.0625 42.8004 42.8006 44.0622 41.25 44.0622ZM45.4163 34.6872H49.1653L48.0066 36.5622H45.9375C45.9375 35.876 45.7388 35.2413 45.4163 34.6872ZM53.3391 40.8307L51.6619 41.6697L49.6012 37.5485L50.76 35.6735L53.3391 40.8307Z" fill="url(#paint0_linear)"/>
<rect x="0.799805" y="2.73145" width="1.6" height="82.3558" transform="rotate(-45 0.799805 2.73145)" fill="#1BC8A9"/>
</g>
<defs>
<linearGradient id="paint0_linear" x1="0.9375" y1="30.1371" x2="59.0625" y2="30.1371" gradientUnits="userSpaceOnUse">
<stop stop-color="#0FD9B1"/>
<stop offset="1" stop-color="#15B8BE"/>
</linearGradient>
<clipPath id="clip0">
<rect width="60" height="60" fill="white"/>
</clipPath>
</defs>
</svg>
