<svg width="60" height="60" viewBox="0 0 60 60" fill="none" xmlns="http://www.w3.org/2000/svg">
<path d="M31.5671 31.6583H25.999V26.0903C25.999 25.5669 25.5747 25.1426 25.0513 25.1426H19.8387C19.3153 25.1426 18.8909 25.5669 18.8909 26.0903V31.6583H13.2044C12.6811 31.6583 12.2567 32.0827 12.2567 32.6061V37.9372C12.2567 38.4605 12.6811 38.8849 13.2044 38.8849H18.8909V44.4529C18.8909 44.9763 19.3153 45.4007 19.8387 45.4007H25.0513C25.5747 45.4007 25.999 44.9763 25.999 44.4529V38.8849H31.5671C32.0905 38.8849 32.5148 38.4605 32.5148 37.9372V32.6061C32.5148 32.0827 32.0905 31.6583 31.5671 31.6583ZM30.6193 36.9894H25.0513C24.5279 36.9894 24.1035 37.4138 24.1035 37.9372V43.5052H20.7864V37.9372C20.7864 37.4138 20.3621 36.9894 19.8387 36.9894H14.1522V33.5538H19.8387C20.3621 33.5538 20.7864 33.1295 20.7864 32.6061V27.0381H24.1035V32.6061C24.1035 33.1295 24.5279 33.5538 25.0513 33.5538H30.6193V36.9894Z" fill="url(#paint0_linear)"/>
<path d="M41.8132 5.4412C35.8796 5.44814 31.071 10.2568 31.0645 16.1904C31.0645 16.6666 31.4185 17.0687 31.8905 17.1298C32.363 17.1909 32.8073 16.8919 32.9285 16.4315C33.0123 16.1135 33.2228 15.5615 33.3945 15.3602C33.6842 15.0885 34.0655 14.9358 34.4626 14.9326C34.8578 14.9298 35.2387 15.0802 35.5246 15.3532C35.8042 15.6448 35.9615 16.0316 35.9652 16.4352C35.9652 16.9586 36.3896 17.3829 36.9129 17.3829C37.4363 17.3829 37.8607 16.9586 37.8607 16.4352C37.8519 16.0344 38.0079 15.6471 38.2911 15.3634C38.5747 15.0797 38.9621 14.9242 39.3628 14.9326C39.7497 14.9298 40.1218 15.0811 40.3967 15.3532C40.666 15.6485 40.8132 16.0353 40.8076 16.4352V23.7895C40.8182 23.8973 40.7821 24.0037 40.7086 24.0829C40.635 24.162 40.5309 24.206 40.423 24.2032C40.3138 24.2064 40.2083 24.1634 40.132 24.0847C40.0561 24.006 40.0167 23.8987 40.0241 23.7895C40.0278 23.4503 39.8492 23.1356 39.5558 22.9648C39.2629 22.7941 38.9005 22.7941 38.6076 22.9648C38.3142 23.1356 38.1356 23.4503 38.1393 23.7895C38.131 24.6104 38.5641 25.3726 39.2735 25.7854C39.9829 26.1982 40.8594 26.1982 41.5689 25.7854C42.2787 25.3726 42.7114 24.6104 42.7031 23.7895V16.4352C42.7151 16.0326 42.8794 15.6494 43.1631 15.3634C43.4588 15.0894 43.8461 14.9358 44.2492 14.9326C44.6467 14.9293 45.0299 15.0802 45.3187 15.3532C45.5991 15.6438 45.7578 16.0312 45.7624 16.4352C45.7685 16.9553 46.1914 17.3737 46.7116 17.3737C47.2317 17.3737 47.6552 16.9553 47.6607 16.4352C47.6524 16.034 47.8083 15.6471 48.092 15.3634C48.3757 15.0797 48.763 14.9242 49.1638 14.9326C49.5585 14.9293 49.9385 15.0797 50.2244 15.3509C50.3832 15.5295 50.5961 16.0497 50.6983 16.4315C50.8196 16.8919 51.2638 17.1913 51.7363 17.1302C52.2093 17.0692 52.5628 16.6666 52.5628 16.1899C52.5559 10.2563 47.7473 5.44768 41.8132 5.4412ZM49.1642 13.0371C48.273 13.0412 47.4168 13.3869 46.7722 14.0024C46.7583 14.0158 46.7449 14.0292 46.7315 14.0431L46.7139 14.0621L46.6963 14.0431C46.6898 14.0362 46.6829 14.0292 46.6764 14.0228C46.0332 13.3897 45.1664 13.0352 44.2635 13.0371C43.3723 13.0412 42.5161 13.3869 41.8715 14.0024C41.8576 14.0158 41.8442 14.0292 41.8308 14.0431L41.8132 14.0621L41.7956 14.0431C41.7891 14.0362 41.7822 14.0292 41.7757 14.0228C41.1325 13.3897 40.2657 13.0352 39.3628 13.0371C38.4715 13.0412 37.6154 13.3869 36.9713 14.0024C36.9569 14.0158 36.9435 14.0292 36.9305 14.0431L36.9129 14.0621L36.8949 14.0431C36.8884 14.0362 36.8819 14.0292 36.875 14.0228C35.9832 13.1458 34.6856 12.8233 33.4871 13.1805C34.7546 9.67414 38.0833 7.33762 41.8118 7.33716C45.5403 7.33624 48.8699 9.67136 50.1388 13.1773C49.8223 13.0843 49.4942 13.0375 49.1642 13.0371Z" fill="url(#paint1_linear)"/>
<path d="M41.8132 0C34.4223 0 28.2041 5.11127 26.5039 11.9838L22.9341 10.2309C22.6713 10.1017 22.3631 10.1017 22.0998 10.2309L2.97822 19.5834C2.64781 19.7403 2.43355 20.0693 2.42383 20.4349V38.3296C2.42383 40.531 3.14852 43.0707 4.42206 45.4808C5.69652 47.8941 7.41477 49.9081 9.239 51.1515L21.9767 59.8354C22.3001 60.0547 22.7254 60.0547 23.0489 59.8354L35.7926 51.152C39.5947 48.5596 42.5846 42.9277 42.5846 38.3296V31.5214C50.8774 31.1294 57.595 24.2143 57.595 15.7697C57.595 7.07433 50.5086 0 41.8132 0ZM34.7255 49.5855L22.5223 57.9047L10.2978 49.5855C7.07186 47.386 4.31932 42.2312 4.31932 38.3296V21.0258L22.4927 12.137L26.1407 13.9237C26.074 14.5369 26.0435 15.1533 26.049 15.7702C26.049 24.0796 32.5148 30.9082 40.6891 31.4973V38.3296C40.6891 42.2983 38.0079 47.348 34.7255 49.5855ZM41.8132 29.6444C34.1507 29.6444 27.939 23.4327 27.939 15.7702C27.9385 8.10769 34.1502 1.89596 41.8127 1.89596C49.4752 1.8955 55.6874 8.10722 55.6874 15.7697C55.6786 23.429 49.4725 29.6356 41.8132 29.6444Z" fill="url(#paint2_linear)"/>
<defs>
<linearGradient id="paint0_linear" x1="2.42383" y1="29.9999" x2="57.595" y2="29.9999" gradientUnits="userSpaceOnUse">
<stop stop-color="#0FD9B1"/>
<stop offset="1" stop-color="#15B8BE"/>
</linearGradient>
<linearGradient id="paint1_linear" x1="2.42383" y1="29.9999" x2="57.595" y2="29.9999" gradientUnits="userSpaceOnUse">
<stop stop-color="#0FD9B1"/>
<stop offset="1" stop-color="#15B8BE"/>
</linearGradient>
<linearGradient id="paint2_linear" x1="2.42383" y1="29.9999" x2="57.595" y2="29.9999" gradientUnits="userSpaceOnUse">
<stop stop-color="#0FD9B1"/>
<stop offset="1" stop-color="#15B8BE"/>
</linearGradient>
</defs>
</svg>
