<svg width="60" height="60" viewBox="0 0 60 60" fill="none" xmlns="http://www.w3.org/2000/svg">
<path d="M42.6092 36.8544C42.0718 36.3731 41.2461 36.4201 40.7674 36.9562C38.0466 39.9966 34.1231 41.7392 30 41.7392C25.8783 41.7392 21.9535 39.9966 19.2326 36.9562C18.7513 36.4201 17.9283 36.3731 17.3909 36.8544C16.8535 37.3344 16.8092 38.1588 17.2892 38.6962C20.5044 42.2883 25.1374 44.3479 30 44.3479C34.864 44.3479 39.497 42.287 42.7109 38.6962C43.1909 38.1588 43.1453 37.3344 42.6092 36.8544Z" fill="url(#paint0_linear)"/>
<path d="M30 0C13.4583 0 0 13.4583 0 30C0 46.5417 13.4583 60 30 60C46.5417 60 60 46.5417 60 30C60 13.4583 46.5417 0 30 0ZM30 57.3913C14.8957 57.3913 2.6087 45.1044 2.6087 30C2.6087 14.8957 14.8957 2.6087 30 2.6087C45.1044 2.6087 57.3913 14.8957 57.3913 30C57.3913 45.1044 45.1044 57.3913 30 57.3913Z" fill="url(#paint1_linear)"/>
<path d="M40.4348 20.8696C36.8387 20.8696 33.9131 23.7953 33.9131 27.3914C33.9131 28.1114 34.4974 28.6957 35.2174 28.6957C35.9374 28.6957 36.5218 28.1114 36.5218 27.3914C36.5218 25.234 38.2774 23.4783 40.4348 23.4783C42.5922 23.4783 44.3479 25.234 44.3479 27.3914C44.3479 28.1114 44.9322 28.6957 45.6522 28.6957C46.3722 28.6957 46.9566 28.1114 46.9566 27.3914C46.9566 23.7953 44.0309 20.8696 40.4348 20.8696Z" fill="url(#paint2_linear)"/>
<path d="M23.4782 27.3914C23.4782 28.1114 24.0626 28.6957 24.7826 28.6957C25.5026 28.6957 26.0869 28.1114 26.0869 27.3914C26.0869 23.7953 23.1613 20.8696 19.5652 20.8696C15.9691 20.8696 13.0435 23.7953 13.0435 27.3914C13.0435 28.1114 13.6278 28.6957 14.3478 28.6957C15.0678 28.6957 15.6522 28.1114 15.6522 27.3914C15.6522 25.234 17.4078 23.4783 19.5652 23.4783C21.7226 23.4783 23.4782 25.234 23.4782 27.3914Z" fill="url(#paint3_linear)"/>
<defs>
<linearGradient id="paint0_linear" x1="16.9565" y1="40.4348" x2="43.0431" y2="40.4348" gradientUnits="userSpaceOnUse">
<stop stop-color="#0FD9B1"/>
<stop offset="1" stop-color="#15B8BE"/>
</linearGradient>
<linearGradient id="paint1_linear" x1="0" y1="30" x2="60" y2="30" gradientUnits="userSpaceOnUse">
<stop stop-color="#0FD9B1"/>
<stop offset="1" stop-color="#15B8BE"/>
</linearGradient>
<linearGradient id="paint2_linear" x1="33.9131" y1="24.7827" x2="46.9566" y2="24.7827" gradientUnits="userSpaceOnUse">
<stop stop-color="#0FD9B1"/>
<stop offset="1" stop-color="#15B8BE"/>
</linearGradient>
<linearGradient id="paint3_linear" x1="13.0435" y1="24.7827" x2="26.0869" y2="24.7827" gradientUnits="userSpaceOnUse">
<stop stop-color="#0FD9B1"/>
<stop offset="1" stop-color="#15B8BE"/>
</linearGradient>
</defs>
</svg>
