<svg width="60" height="60" viewBox="0 0 60 60" fill="none" xmlns="http://www.w3.org/2000/svg">
<path d="M48.75 15.9374C49.6771 15.9374 50.5833 15.6625 51.3542 15.1474C52.1251 14.6323 52.7259 13.9002 53.0806 13.0437C53.4354 12.1872 53.5283 11.2447 53.3474 10.3354C53.1665 9.42611 52.7201 8.59088 52.0645 7.93532C51.409 7.27976 50.5737 6.83332 49.6644 6.65245C48.7552 6.47159 47.8127 6.56441 46.9561 6.9192C46.0996 7.27399 45.3675 7.87479 44.8524 8.64565C44.3374 9.41651 44.0625 10.3228 44.0625 11.2499C44.0639 12.4926 44.5583 13.684 45.437 14.5628C46.3158 15.4416 47.5072 15.9359 48.75 15.9374ZM48.75 8.43739C49.3062 8.43739 49.85 8.60234 50.3125 8.91138C50.775 9.22042 51.1355 9.65967 51.3484 10.1736C51.5612 10.6875 51.6169 11.253 51.5084 11.7986C51.3999 12.3441 51.132 12.8453 50.7387 13.2386C50.3454 13.632 49.8442 13.8998 49.2986 14.0083C48.7531 14.1169 48.1876 14.0612 47.6737 13.8483C47.1597 13.6354 46.7205 13.2749 46.4114 12.8124C46.1024 12.3499 45.9375 11.8061 45.9375 11.2499C45.9375 10.504 46.2338 9.78859 46.7612 9.26115C47.2887 8.7337 48.004 8.43739 48.75 8.43739Z" fill="url(#paint0_linear)"/>
<path d="M58.1251 11.2498C58.1261 9.39459 57.5763 7.58087 56.5454 6.03844C55.5146 4.49602 54.0491 3.2943 52.3346 2.58556C50.6201 1.87682 48.7338 1.69295 46.9148 2.05726C45.0957 2.42156 43.4257 3.31765 42.1164 4.63196C36.7674 2.06814 30.7436 1.26487 24.9097 2.33744C19.0757 3.41001 13.7316 6.30327 9.6442 10.602C4.65789 15.8288 1.87598 22.7751 1.87598 29.9988C1.87598 37.2226 4.65789 44.1689 9.6442 49.3957C13.5214 53.4624 18.5278 56.2745 24.0179 57.4696C29.5081 58.6647 35.2304 58.188 40.4472 56.1009C45.6639 54.0139 50.1359 50.4121 53.2868 45.7599C56.4376 41.1078 58.1228 35.6185 58.1251 29.9998C58.1329 25.9259 57.2445 21.9001 55.5226 18.2079C57.0983 16.2188 58.0087 13.7847 58.1251 11.2498ZM48.7501 3.74978C50.7386 3.75201 52.6449 4.5429 54.051 5.94894C55.457 7.35498 56.2479 9.26134 56.2501 11.2498C56.2501 16.3254 50.5314 20.9651 48.7501 22.2851C46.6511 20.7412 44.8009 18.885 43.2639 16.781L43.187 16.5157L43.0933 16.5392C41.9743 14.9945 41.3334 13.1553 41.2501 11.2498C41.2524 9.26134 42.0433 7.35498 43.4493 5.94894C44.8553 4.5429 46.7617 3.75201 48.7501 3.74978ZM56.2276 30.9373C56.0246 37.0227 53.6963 42.8448 49.6473 47.3923C47.7943 45.5694 45.6975 44.0124 43.4167 42.7657C44.415 38.9006 44.9426 34.929 44.988 30.9373H56.2276ZM41.6917 41.906C38.3096 40.3627 34.6535 39.5101 30.9376 39.3982V30.9373H43.113C43.0631 34.636 42.5862 38.3167 41.6917 41.906ZM3.77264 29.0623C3.97604 22.9707 6.30886 17.1433 10.3651 12.5942C12.2247 14.4225 14.3334 15.9788 16.6286 17.217C16.5348 17.5582 16.4411 17.8985 16.3586 18.2482C14.8786 19.9462 14.0631 22.1224 14.0626 24.3748C14.0869 25.8095 14.415 27.2227 15.0255 28.5213C15.0198 28.7013 15.0198 28.8823 15.0161 29.0623H3.77264ZM39.4183 11.8395C39.5534 13.4464 40.0368 15.0047 40.8348 16.406C37.721 17.8233 34.3571 18.6094 30.9376 18.7188V3.82759C34.1158 4.30196 37.1608 7.15759 39.4183 11.8395ZM23.4376 35.4101C21.6564 34.0901 15.9376 29.4504 15.9376 24.3748C15.9376 22.3857 16.7278 20.478 18.1343 19.0715C19.5409 17.665 21.4485 16.8748 23.4376 16.8748C25.4268 16.8748 27.3344 17.665 28.7409 19.0715C30.1475 20.478 30.9376 22.3857 30.9376 24.3748C30.9376 29.4504 25.2189 34.0901 23.4376 35.4101ZM29.0626 3.8229V16.8926C27.6172 15.7964 25.8831 15.1462 24.0733 15.0218C22.2634 14.8974 20.4567 15.3042 18.8748 16.1923C21.1173 9.03634 24.9208 4.4304 29.0626 3.8229ZM22.9173 37.3423C23.0714 37.4451 23.2524 37.4999 23.4376 37.4999C23.6228 37.4999 23.8039 37.4451 23.958 37.3423C25.8377 36.0308 27.5518 34.4965 29.0626 32.7729V39.3982C25.3468 39.5101 21.6906 40.3627 18.3086 41.906C17.4691 38.5497 16.9976 35.1119 16.9023 31.6535C18.6112 33.8403 20.6388 35.7579 22.9173 37.3423ZM29.0626 41.2732V56.1795C24.7342 55.5645 20.9795 50.742 18.8214 43.7398C22.0315 42.2286 25.5165 41.3892 29.0626 41.2732ZM30.9376 56.1795V41.2732C34.4835 41.388 37.9685 42.2261 41.1789 43.736C39.0208 50.7363 35.2661 55.5607 30.9376 56.1757V56.1795ZM31.5939 29.0623C32.3605 27.6163 32.7779 26.011 32.8126 24.3748C32.8119 23.0558 32.531 21.7521 31.9886 20.5498C35.3331 20.3223 38.6086 19.4901 41.6561 18.0935C42.5603 21.6814 43.0433 25.3625 43.0951 29.0623H31.5939ZM40.9051 6.13196C40.4079 6.89088 40.0241 7.71837 39.7661 8.58821C38.8516 7.08341 37.7218 5.72053 36.4126 4.5429C37.9559 4.93311 39.4598 5.46506 40.9051 6.13196ZM23.6251 4.52696C20.9758 6.83696 18.7164 10.571 17.1714 15.3729C15.1583 14.2472 13.305 12.857 11.6608 11.2395C14.9738 7.9682 19.1066 5.64951 23.6251 4.52696ZM3.77264 30.9373H15.0123C15.0577 34.929 15.5852 38.9006 16.5836 42.7657C14.3028 44.0124 12.2059 45.5694 10.353 47.3923C6.30381 42.8449 3.97555 37.0228 3.77264 30.9373ZM11.6476 48.7498C13.2829 47.1379 15.1227 45.7475 17.1198 44.6145C18.6198 49.3235 20.8361 53.097 23.507 55.4463C19.0278 54.3108 14.9334 51.9988 11.6476 48.7498ZM36.4914 55.4463C39.1623 53.097 41.3786 49.3235 42.8786 44.6145C44.8764 45.7474 46.7168 47.1377 48.3526 48.7498C45.067 51.999 40.9726 54.311 36.4933 55.4463H36.4914ZM56.2239 29.0623H44.9851C44.9398 26.2876 44.6701 23.521 44.1789 20.7898C45.4196 22.0559 46.7758 23.2034 48.2298 24.2173C48.3839 24.3201 48.5649 24.3749 48.7501 24.3749C48.9353 24.3749 49.1164 24.3201 49.2705 24.2173C51.0795 22.954 52.7356 21.4848 54.2055 19.8392C55.4388 22.7635 56.123 25.8901 56.2239 29.0623Z" fill="url(#paint1_linear)"/>
<path d="M23.4374 19.6874C22.5103 19.6874 21.6041 19.9623 20.8332 20.4774C20.0623 20.9925 19.4615 21.7245 19.1067 22.5811C18.752 23.4376 18.6591 24.3801 18.84 25.2894C19.0209 26.1987 19.4673 27.0339 20.1229 27.6895C20.7784 28.345 21.6137 28.7915 22.5229 28.9723C23.4322 29.1532 24.3747 29.0604 25.2313 28.7056C26.0878 28.3508 26.8199 27.75 27.3349 26.9791C27.85 26.2083 28.1249 25.302 28.1249 24.3749C28.1234 23.1322 27.6291 21.9407 26.7503 21.062C25.8716 20.1832 24.6802 19.6889 23.4374 19.6874ZM23.4374 27.1874C22.8812 27.1874 22.3374 27.0224 21.8749 26.7134C21.4124 26.4044 21.0519 25.9651 20.839 25.4512C20.6261 24.9373 20.5705 24.3718 20.679 23.8262C20.7875 23.2806 21.0554 22.7795 21.4487 22.3862C21.842 21.9928 22.3432 21.725 22.8887 21.6164C23.4343 21.5079 23.9998 21.5636 24.5137 21.7765C25.0276 21.9894 25.4669 22.3498 25.7759 22.8124C26.085 23.2749 26.2499 23.8186 26.2499 24.3749C26.2499 25.1208 25.9536 25.8362 25.4262 26.3636C24.8987 26.8911 24.1834 27.1874 23.4374 27.1874Z" fill="url(#paint2_linear)"/>
<defs>
<linearGradient id="paint0_linear" x1="1.87598" y1="29.994" x2="58.1252" y2="29.994" gradientUnits="userSpaceOnUse">
<stop stop-color="#0FD9B1"/>
<stop offset="1" stop-color="#15B8BE"/>
</linearGradient>
<linearGradient id="paint1_linear" x1="1.87598" y1="29.994" x2="58.1252" y2="29.994" gradientUnits="userSpaceOnUse">
<stop stop-color="#0FD9B1"/>
<stop offset="1" stop-color="#15B8BE"/>
</linearGradient>
<linearGradient id="paint2_linear" x1="1.87598" y1="29.994" x2="58.1252" y2="29.994" gradientUnits="userSpaceOnUse">
<stop stop-color="#0FD9B1"/>
<stop offset="1" stop-color="#15B8BE"/>
</linearGradient>
</defs>
</svg>
