<svg width="60" height="60" viewBox="0 0 60 60" fill="none" xmlns="http://www.w3.org/2000/svg">
<path d="M53.4375 5.625H47.8125V4.6875C47.8125 3.94158 47.5162 3.22621 46.9887 2.69876C46.4613 2.17132 45.7459 1.875 45 1.875C44.2541 1.875 43.5387 2.17132 43.0113 2.69876C42.4838 3.22621 42.1875 3.94158 42.1875 4.6875V5.625H32.8125V4.6875C32.8125 3.94158 32.5162 3.22621 31.9887 2.69876C31.4613 2.17132 30.7459 1.875 30 1.875C29.2541 1.875 28.5387 2.17132 28.0113 2.69876C27.4838 3.22621 27.1875 3.94158 27.1875 4.6875V5.625H17.8125V4.6875C17.8125 3.94158 17.5162 3.22621 16.9887 2.69876C16.4613 2.17132 15.7459 1.875 15 1.875C14.2541 1.875 13.5387 2.17132 13.0113 2.69876C12.4838 3.22621 12.1875 3.94158 12.1875 4.6875V5.625H6.5625C5.31973 5.6264 4.12825 6.1207 3.24948 6.99948C2.3707 7.87825 1.8764 9.06973 1.875 10.3125V53.4375C1.8764 54.6803 2.3707 55.8717 3.24948 56.7505C4.12825 57.6293 5.31973 58.1236 6.5625 58.125H53.4375C54.6803 58.1236 55.8717 57.6293 56.7505 56.7505C57.6293 55.8717 58.1236 54.6803 58.125 53.4375V10.3125C58.1236 9.06973 57.6293 7.87825 56.7505 6.99948C55.8717 6.1207 54.6803 5.6264 53.4375 5.625ZM44.0625 4.6875C44.0625 4.43886 44.1613 4.2004 44.3371 4.02459C44.5129 3.84877 44.7514 3.75 45 3.75C45.2486 3.75 45.4871 3.84877 45.6629 4.02459C45.8387 4.2004 45.9375 4.43886 45.9375 4.6875V10.3125C45.9375 10.5611 45.8387 10.7996 45.6629 10.9754C45.4871 11.1512 45.2486 11.25 45 11.25C44.7514 11.25 44.5129 11.1512 44.3371 10.9754C44.1613 10.7996 44.0625 10.5611 44.0625 10.3125V4.6875ZM29.0625 4.6875C29.0625 4.43886 29.1613 4.2004 29.3371 4.02459C29.5129 3.84877 29.7514 3.75 30 3.75C30.2486 3.75 30.4871 3.84877 30.6629 4.02459C30.8387 4.2004 30.9375 4.43886 30.9375 4.6875V10.3125C30.9375 10.5611 30.8387 10.7996 30.6629 10.9754C30.4871 11.1512 30.2486 11.25 30 11.25C29.7514 11.25 29.5129 11.1512 29.3371 10.9754C29.1613 10.7996 29.0625 10.5611 29.0625 10.3125V4.6875ZM14.0625 4.6875C14.0625 4.43886 14.1613 4.2004 14.3371 4.02459C14.5129 3.84877 14.7514 3.75 15 3.75C15.2486 3.75 15.4871 3.84877 15.6629 4.02459C15.8387 4.2004 15.9375 4.43886 15.9375 4.6875V10.3125C15.9375 10.5611 15.8387 10.7996 15.6629 10.9754C15.4871 11.1512 15.2486 11.25 15 11.25C14.7514 11.25 14.5129 11.1512 14.3371 10.9754C14.1613 10.7996 14.0625 10.5611 14.0625 10.3125V4.6875ZM6.5625 7.5H12.1875V10.3125C12.1875 11.0584 12.4838 11.7738 13.0113 12.3012C13.5387 12.8287 14.2541 13.125 15 13.125C15.7459 13.125 16.4613 12.8287 16.9887 12.3012C17.5162 11.7738 17.8125 11.0584 17.8125 10.3125V7.5H27.1875V10.3125C27.1875 11.0584 27.4838 11.7738 28.0113 12.3012C28.5387 12.8287 29.2541 13.125 30 13.125C30.7459 13.125 31.4613 12.8287 31.9887 12.3012C32.5162 11.7738 32.8125 11.0584 32.8125 10.3125V7.5H42.1875V10.3125C42.1875 11.0584 42.4838 11.7738 43.0113 12.3012C43.5387 12.8287 44.2541 13.125 45 13.125C45.7459 13.125 46.4613 12.8287 46.9887 12.3012C47.5162 11.7738 47.8125 11.0584 47.8125 10.3125V7.5H53.4375C54.1832 7.50087 54.898 7.79746 55.4253 8.32472C55.9525 8.85198 56.2491 9.56685 56.25 10.3125V16.875H3.75V10.3125C3.75087 9.56685 4.04746 8.85198 4.57472 8.32472C5.10198 7.79746 5.81685 7.50087 6.5625 7.5ZM53.4375 56.25H6.5625C5.81685 56.2491 5.10198 55.9525 4.57472 55.4253C4.04746 54.898 3.75087 54.1832 3.75 53.4375V18.75H56.25V53.4375C56.2491 54.1832 55.9525 54.898 55.4253 55.4253C54.898 55.9525 54.1832 56.2491 53.4375 56.25Z" fill="url(#paint0_linear)"/>
<path d="M51.5625 25.3125H47.8125C47.5639 25.3125 47.3254 25.4113 47.1496 25.5871C46.9738 25.7629 46.875 26.0014 46.875 26.25V30C46.875 30.2486 46.9738 30.4871 47.1496 30.6629C47.3254 30.8387 47.5639 30.9375 47.8125 30.9375H51.5625C51.8111 30.9375 52.0496 30.8387 52.2254 30.6629C52.4012 30.4871 52.5 30.2486 52.5 30V26.25C52.5 26.0014 52.4012 25.7629 52.2254 25.5871C52.0496 25.4113 51.8111 25.3125 51.5625 25.3125ZM50.625 29.0625H48.75V27.1875H50.625V29.0625Z" fill="url(#paint1_linear)"/>
<path d="M32.8125 44.0625H29.0625C28.8139 44.0625 28.5754 44.1613 28.3996 44.3371C28.2238 44.5129 28.125 44.7514 28.125 45V48.75C28.125 48.9986 28.2238 49.2371 28.3996 49.4129C28.5754 49.5887 28.8139 49.6875 29.0625 49.6875H32.8125C33.0611 49.6875 33.2996 49.5887 33.4754 49.4129C33.6512 49.2371 33.75 48.9986 33.75 48.75V45C33.75 44.7514 33.6512 44.5129 33.4754 44.3371C33.2996 44.1613 33.0611 44.0625 32.8125 44.0625ZM31.875 47.8125H30V45.9375H31.875V47.8125Z" fill="url(#paint2_linear)"/>
<path d="M23.4375 25.3125H19.6875C19.4389 25.3125 19.2004 25.4113 19.0246 25.5871C18.8488 25.7629 18.75 26.0014 18.75 26.25V30C18.75 30.2486 18.8488 30.4871 19.0246 30.6629C19.2004 30.8387 19.4389 30.9375 19.6875 30.9375H23.4375C23.6861 30.9375 23.9246 30.8387 24.1004 30.6629C24.2762 30.4871 24.375 30.2486 24.375 30V26.25C24.375 26.0014 24.2762 25.7629 24.1004 25.5871C23.9246 25.4113 23.6861 25.3125 23.4375 25.3125ZM22.5 29.0625H20.625V27.1875H22.5V29.0625Z" fill="url(#paint3_linear)"/>
<path d="M14.0625 34.6875H10.3125C10.0639 34.6875 9.8254 34.7863 9.64959 34.9621C9.47377 35.1379 9.375 35.3764 9.375 35.625V39.375C9.375 39.6236 9.47377 39.8621 9.64959 40.0379C9.8254 40.2137 10.0639 40.3125 10.3125 40.3125H14.0625C14.3111 40.3125 14.5496 40.2137 14.7254 40.0379C14.9012 39.8621 15 39.6236 15 39.375V35.625C15 35.3764 14.9012 35.1379 14.7254 34.9621C14.5496 34.7863 14.3111 34.6875 14.0625 34.6875ZM13.125 38.4375H11.25V36.5625H13.125V38.4375Z" fill="url(#paint4_linear)"/>
<path d="M23.4375 34.6875H19.6875C19.4389 34.6875 19.2004 34.7863 19.0246 34.9621C18.8488 35.1379 18.75 35.3764 18.75 35.625V39.375C18.75 39.6236 18.8488 39.8621 19.0246 40.0379C19.2004 40.2137 19.4389 40.3125 19.6875 40.3125H23.4375C23.6861 40.3125 23.9246 40.2137 24.1004 40.0379C24.2762 39.8621 24.375 39.6236 24.375 39.375V35.625C24.375 35.3764 24.2762 35.1379 24.1004 34.9621C23.9246 34.7863 23.6861 34.6875 23.4375 34.6875ZM22.5 38.4375H20.625V36.5625H22.5V38.4375Z" fill="url(#paint5_linear)"/>
<path d="M14.0625 44.0625H10.3125C10.0639 44.0625 9.8254 44.1613 9.64959 44.3371C9.47377 44.5129 9.375 44.7514 9.375 45V48.75C9.375 48.9986 9.47377 49.2371 9.64959 49.4129C9.8254 49.5887 10.0639 49.6875 10.3125 49.6875H14.0625C14.3111 49.6875 14.5496 49.5887 14.7254 49.4129C14.9012 49.2371 15 48.9986 15 48.75V45C15 44.7514 14.9012 44.5129 14.7254 44.3371C14.5496 44.1613 14.3111 44.0625 14.0625 44.0625ZM13.125 47.8125H11.25V45.9375H13.125V47.8125Z" fill="url(#paint6_linear)"/>
<path d="M23.4375 44.0625H19.6875C19.4389 44.0625 19.2004 44.1613 19.0246 44.3371C18.8488 44.5129 18.75 44.7514 18.75 45V48.75C18.75 48.9986 18.8488 49.2371 19.0246 49.4129C19.2004 49.5887 19.4389 49.6875 19.6875 49.6875H23.4375C23.6861 49.6875 23.9246 49.5887 24.1004 49.4129C24.2762 49.2371 24.375 48.9986 24.375 48.75V45C24.375 44.7514 24.2762 44.5129 24.1004 44.3371C23.9246 44.1613 23.6861 44.0625 23.4375 44.0625ZM22.5 47.8125H20.625V45.9375H22.5V47.8125Z" fill="url(#paint7_linear)"/>
<path d="M43.2665 29.1777L38.579 28.4615L36.4736 23.9766C36.398 23.8154 36.278 23.6791 36.1277 23.5836C35.9774 23.4881 35.803 23.4374 35.625 23.4374C35.4469 23.4374 35.2725 23.4881 35.1222 23.5836C34.9719 23.6791 34.8519 23.8154 34.7763 23.9766L32.6718 28.4615L27.9843 29.1777C27.8139 29.2037 27.6538 29.2761 27.5219 29.3872C27.3899 29.4982 27.2911 29.6435 27.2364 29.807C27.1817 29.9705 27.1731 30.146 27.2116 30.3141C27.2502 30.4822 27.3344 30.6364 27.4549 30.7597L30.8745 34.2645L30.0659 39.2245C30.038 39.3979 30.0593 39.5757 30.1274 39.7376C30.1956 39.8995 30.3078 40.039 30.4514 40.1401C30.5949 40.2413 30.764 40.3002 30.9394 40.3099C31.1148 40.3197 31.2894 40.28 31.4433 40.1953L35.625 37.8839L39.8067 40.1953C39.9607 40.2804 40.1355 40.3205 40.3112 40.311C40.4869 40.3014 40.6563 40.2426 40.8002 40.1412C40.944 40.0399 41.0564 39.9002 41.1246 39.7379C41.1927 39.5757 41.2138 39.3976 41.1855 39.224L40.3769 34.2639L43.7966 30.7592C43.9171 30.6358 44.0013 30.4816 44.0398 30.3135C44.0784 30.1454 44.0698 29.97 44.0151 29.8064C43.9603 29.6429 43.8616 29.4976 43.7296 29.3866C43.5976 29.2755 43.4376 29.2031 43.2671 29.1771L43.2665 29.1777ZM38.7039 33.293C38.6015 33.398 38.5251 33.5256 38.4809 33.6655C38.4367 33.8055 38.426 33.9538 38.4496 34.0986L39.0239 37.6202L36.0782 35.9913C35.9394 35.9146 35.7834 35.8743 35.6247 35.8743C35.4661 35.8743 35.3101 35.9146 35.1712 35.9913L32.2256 37.6202L32.7998 34.0986C32.8234 33.9538 32.8127 33.8055 32.7686 33.6655C32.7244 33.5256 32.648 33.398 32.5455 33.293L30.0703 30.7556L33.4491 30.24C33.6013 30.2167 33.7454 30.1564 33.8687 30.0642C33.992 29.9721 34.0907 29.851 34.1561 29.7116L35.625 26.5814L37.0939 29.711C37.1593 29.8504 37.258 29.9715 37.3813 30.0636C37.5046 30.1558 37.6487 30.2162 37.8009 30.2394L41.1798 30.7551L38.7039 33.293Z" fill="url(#paint8_linear)"/>
<path d="M51.5625 34.6875H47.8125C47.5639 34.6875 47.3254 34.7863 47.1496 34.9621C46.9738 35.1379 46.875 35.3764 46.875 35.625V39.375C46.875 39.6236 46.9738 39.8621 47.1496 40.0379C47.3254 40.2137 47.5639 40.3125 47.8125 40.3125H51.5625C51.8111 40.3125 52.0496 40.2137 52.2254 40.0379C52.4012 39.8621 52.5 39.6236 52.5 39.375V35.625C52.5 35.3764 52.4012 35.1379 52.2254 34.9621C52.0496 34.7863 51.8111 34.6875 51.5625 34.6875ZM50.625 38.4375H48.75V36.5625H50.625V38.4375Z" fill="url(#paint9_linear)"/>
<path d="M51.5625 44.0625H47.8125C47.5639 44.0625 47.3254 44.1613 47.1496 44.3371C46.9738 44.5129 46.875 44.7514 46.875 45V48.75C46.875 48.9986 46.9738 49.2371 47.1496 49.4129C47.3254 49.5887 47.5639 49.6875 47.8125 49.6875H51.5625C51.8111 49.6875 52.0496 49.5887 52.2254 49.4129C52.4012 49.2371 52.5 48.9986 52.5 48.75V45C52.5 44.7514 52.4012 44.5129 52.2254 44.3371C52.0496 44.1613 51.8111 44.0625 51.5625 44.0625ZM50.625 47.8125H48.75V45.9375H50.625V47.8125Z" fill="url(#paint10_linear)"/>
<path d="M42.1875 44.0625H38.4375C38.1889 44.0625 37.9504 44.1613 37.7746 44.3371C37.5988 44.5129 37.5 44.7514 37.5 45V48.75C37.5 48.9986 37.5988 49.2371 37.7746 49.4129C37.9504 49.5887 38.1889 49.6875 38.4375 49.6875H42.1875C42.4361 49.6875 42.6746 49.5887 42.8504 49.4129C43.0262 49.2371 43.125 48.9986 43.125 48.75V45C43.125 44.7514 43.0262 44.5129 42.8504 44.3371C42.6746 44.1613 42.4361 44.0625 42.1875 44.0625ZM41.25 47.8125H39.375V45.9375H41.25V47.8125Z" fill="url(#paint11_linear)"/>
<defs>
<linearGradient id="paint0_linear" x1="1.875" y1="30" x2="58.125" y2="30" gradientUnits="userSpaceOnUse">
<stop stop-color="#0FD9B1"/>
<stop offset="1" stop-color="#15B8BE"/>
</linearGradient>
<linearGradient id="paint1_linear" x1="1.875" y1="30" x2="58.125" y2="30" gradientUnits="userSpaceOnUse">
<stop stop-color="#0FD9B1"/>
<stop offset="1" stop-color="#15B8BE"/>
</linearGradient>
<linearGradient id="paint2_linear" x1="1.875" y1="30" x2="58.125" y2="30" gradientUnits="userSpaceOnUse">
<stop stop-color="#0FD9B1"/>
<stop offset="1" stop-color="#15B8BE"/>
</linearGradient>
<linearGradient id="paint3_linear" x1="1.875" y1="30" x2="58.125" y2="30" gradientUnits="userSpaceOnUse">
<stop stop-color="#0FD9B1"/>
<stop offset="1" stop-color="#15B8BE"/>
</linearGradient>
<linearGradient id="paint4_linear" x1="1.875" y1="30" x2="58.125" y2="30" gradientUnits="userSpaceOnUse">
<stop stop-color="#0FD9B1"/>
<stop offset="1" stop-color="#15B8BE"/>
</linearGradient>
<linearGradient id="paint5_linear" x1="1.875" y1="30" x2="58.125" y2="30" gradientUnits="userSpaceOnUse">
<stop stop-color="#0FD9B1"/>
<stop offset="1" stop-color="#15B8BE"/>
</linearGradient>
<linearGradient id="paint6_linear" x1="1.875" y1="30" x2="58.125" y2="30" gradientUnits="userSpaceOnUse">
<stop stop-color="#0FD9B1"/>
<stop offset="1" stop-color="#15B8BE"/>
</linearGradient>
<linearGradient id="paint7_linear" x1="1.875" y1="30" x2="58.125" y2="30" gradientUnits="userSpaceOnUse">
<stop stop-color="#0FD9B1"/>
<stop offset="1" stop-color="#15B8BE"/>
</linearGradient>
<linearGradient id="paint8_linear" x1="1.875" y1="30" x2="58.125" y2="30" gradientUnits="userSpaceOnUse">
<stop stop-color="#0FD9B1"/>
<stop offset="1" stop-color="#15B8BE"/>
</linearGradient>
<linearGradient id="paint9_linear" x1="1.875" y1="30" x2="58.125" y2="30" gradientUnits="userSpaceOnUse">
<stop stop-color="#0FD9B1"/>
<stop offset="1" stop-color="#15B8BE"/>
</linearGradient>
<linearGradient id="paint10_linear" x1="1.875" y1="30" x2="58.125" y2="30" gradientUnits="userSpaceOnUse">
<stop stop-color="#0FD9B1"/>
<stop offset="1" stop-color="#15B8BE"/>
</linearGradient>
<linearGradient id="paint11_linear" x1="1.875" y1="30" x2="58.125" y2="30" gradientUnits="userSpaceOnUse">
<stop stop-color="#0FD9B1"/>
<stop offset="1" stop-color="#15B8BE"/>
</linearGradient>
</defs>
</svg>
