<svg width="30" height="30" viewBox="0 0 30 30" fill="none" xmlns="http://www.w3.org/2000/svg">
<g clip-path="url(#clip0)">
<path d="M26.8742 14.981C26.8742 22.2295 20.9981 28.1056 13.7496 28.1056C6.5009 28.1056 0.625 22.2295 0.625 14.981C0.625 7.73235 6.5009 1.85645 13.7496 1.85645C20.9981 1.85645 26.8742 7.73235 26.8742 14.981Z" fill="#1BC8A9"/>
<path d="M13.7497 28.7305C6.16863 28.7305 0 22.5621 0 14.9811C0 7.40008 6.16863 1.23145 13.7497 1.23145C16.3845 1.23145 18.9495 1.98399 21.1668 3.40507C21.603 3.68521 21.7294 4.26518 21.4506 4.70004C21.1707 5.13513 20.5893 5.26262 20.1556 4.9827C18.2395 3.75639 16.0258 3.10639 13.7497 3.10639C7.20223 3.10639 1.87494 8.43367 1.87494 14.9811C1.87494 21.5283 7.20223 26.8556 13.7497 26.8556C20.2968 26.8556 25.6241 21.5283 25.6241 14.9811C25.6241 14.5897 25.6054 14.2022 25.5692 13.8212C25.5193 13.3062 25.8967 12.8473 26.4128 12.7985C26.9241 12.7324 27.3853 13.1261 27.4354 13.641C27.4778 14.0823 27.4991 14.5286 27.4991 14.9811C27.4991 22.5621 21.3307 28.7305 13.7497 28.7305Z" fill="black"/>
<path d="M15.3118 18.1056C15.072 18.1056 14.8319 18.0143 14.6495 17.8307L9.02465 12.2059C8.65845 11.8394 8.65845 11.2457 9.02465 10.8795C9.39085 10.5133 9.98455 10.5133 10.3507 10.8795L15.3132 15.842L28.3989 2.75609C28.7653 2.3899 29.359 2.3899 29.7252 2.75609C30.0914 3.12229 30.0914 3.716 29.7252 4.08219L15.9756 17.8318C15.7918 18.0143 15.5519 18.1056 15.3118 18.1056Z" fill="black"/>
</g>
<defs>
<clipPath id="clip0">
<rect width="30" height="30" fill="white"/>
</clipPath>
</defs>
</svg>
