<svg width="60" height="60" viewBox="0 0 60 60" fill="none" xmlns="http://www.w3.org/2000/svg">
<path d="M52.7886 30.0217C52.2956 29.1616 51.5846 28.4467 50.7271 27.9491C49.8696 27.4514 48.8961 27.1888 47.9047 27.1875H45.0666C43.9138 27.1848 42.7885 27.5391 41.8451 28.2016L41.2139 25.9924C41.158 25.7965 41.0397 25.6242 40.877 25.5015C40.7144 25.3789 40.5162 25.3125 40.3125 25.3125C40.1088 25.3125 39.9106 25.3789 39.7479 25.5015C39.5853 25.6242 39.467 25.7965 39.411 25.9924L37.7304 31.875H31.875C31.6807 31.875 31.4913 31.9354 31.3328 32.0477C31.1743 32.1601 31.0547 32.3189 30.9904 32.5022C30.926 32.6855 30.9203 32.8843 30.9738 33.071C31.0274 33.2577 31.1377 33.4232 31.2893 33.5446L35.4897 36.9048L33.786 42.8674C33.7333 43.0519 33.7385 43.2481 33.8008 43.4296C33.8632 43.6111 33.9797 43.7691 34.1347 43.8822C34.2897 43.9954 34.4757 44.0582 34.6675 44.0623C34.8594 44.0664 35.0479 44.0115 35.2075 43.905L40.3125 40.5017L40.6081 40.6988C40.4117 41.3294 40.3121 41.9862 40.3125 42.6468V45.1849C40.3113 46.4722 40.6924 47.7309 41.4075 48.8013C41.9169 49.5638 42.1884 50.4605 42.1875 51.3776V51.5625H39.375C39.1264 51.5625 38.8879 51.6613 38.7121 51.8371C38.5363 52.0129 38.4375 52.2514 38.4375 52.5V58.125H40.3125V53.4375H53.4375V58.125H55.3125V52.5C55.3125 52.2514 55.2137 52.0129 55.0379 51.8371C54.8621 51.6613 54.6236 51.5625 54.375 51.5625H52.542C52.6695 50.2411 53.0899 48.9647 53.7726 47.8261C54.7801 46.1467 55.3124 44.2251 55.3125 42.2667V37.3081C55.3117 35.4278 54.821 33.5801 53.8888 31.9471L52.7886 30.0217ZM40.8325 38.595C40.6785 38.4923 40.4976 38.4376 40.3125 38.4376C40.1274 38.4376 39.9465 38.4923 39.7925 38.595L36.2896 40.9303L37.4639 36.8201C37.5147 36.6424 37.5118 36.4536 37.4556 36.2775C37.3995 36.1014 37.2925 35.9459 37.1481 35.8304L34.5476 33.75H38.4375C38.6412 33.75 38.8394 33.6836 39.002 33.561C39.1647 33.4383 39.283 33.266 39.3389 33.0701L40.3125 29.6625L41.286 33.0701C41.342 33.266 41.4603 33.4383 41.623 33.561C41.7856 33.6836 41.9838 33.75 42.1875 33.75H43.125V37.1338L42.222 38.0368C41.9288 38.3302 41.6639 38.6507 41.4309 38.9939L40.8325 38.595ZM53.4375 42.2667C53.4374 43.8853 52.9975 45.4734 52.1649 46.8614C51.3075 48.2914 50.7926 49.9004 50.6606 51.5625H44.0625V51.3776C44.0637 50.0903 43.6826 48.8316 42.9675 47.7612C42.4581 46.9987 42.1866 46.102 42.1875 45.1849V42.6468C42.1858 42.0366 42.3052 41.4321 42.5387 40.8684C42.7723 40.3046 43.1153 39.7928 43.5479 39.3625L44.7254 38.1849C44.8125 38.0979 44.8815 37.9946 44.9286 37.8808C44.9758 37.7671 45 37.6452 45 37.5221V33.2896C45.0008 32.9188 45.148 32.5632 45.4096 32.3004C45.6712 32.0375 46.026 31.8886 46.3968 31.8861H46.4036C46.7758 31.8862 47.1327 32.034 47.3959 32.2972C47.6591 32.5604 47.8069 32.9174 47.8069 33.2896V38.8203C47.8069 39.069 47.9057 39.3074 48.0815 39.4833L50.3338 41.7355L51.6596 40.4095L49.6819 38.432V33.2896C49.6821 32.5462 49.4296 31.8248 48.9658 31.2438C48.502 30.6629 47.8544 30.2568 47.1295 30.0923C46.4045 29.9278 45.6451 30.0147 44.976 30.3386C44.3069 30.6625 43.7677 31.2043 43.4471 31.875H42.8946L42.4071 30.1687L42.415 30.1608C42.7624 29.8115 43.1756 29.5345 43.6308 29.346C44.0859 29.1575 44.574 29.0611 45.0666 29.0625H47.9047C48.5657 29.0633 49.2147 29.2384 49.7863 29.5702C50.358 29.9019 50.832 30.3785 51.1606 30.9519L52.2609 32.8773C53.0313 34.2269 53.4368 35.754 53.4375 37.3081V42.2667Z" fill="url(#paint0_linear)"/>
<path d="M35.6249 20.625C35.7701 20.625 35.9132 20.5913 36.0431 20.5266C36.173 20.4619 36.2861 20.3679 36.3735 20.2521C36.4609 20.1362 36.5202 20.0017 36.5467 19.859C36.5733 19.7163 36.5663 19.5694 36.5264 19.4299L34.8228 13.4673L39.0231 10.1071C39.1748 9.98572 39.2851 9.82024 39.3386 9.6335C39.3922 9.44677 39.3864 9.248 39.3221 9.06469C39.2578 8.88138 39.1382 8.72257 38.9797 8.61021C38.8212 8.49785 38.6318 8.4375 38.4375 8.4375H32.5821L30.9014 2.55489C30.8455 2.35901 30.7272 2.1867 30.5645 2.06403C30.4019 1.94136 30.2037 1.875 30 1.875C29.7963 1.875 29.5981 1.94136 29.4354 2.06403C29.2728 2.1867 29.1545 2.35901 29.0985 2.55489L27.4179 8.4375H21.5625C21.3682 8.4375 21.1788 8.49785 21.0203 8.61021C20.8618 8.72257 20.7422 8.88138 20.6778 9.06469C20.6135 9.248 20.6078 9.44677 20.6613 9.6335C20.7149 9.82024 20.8252 9.98572 20.9768 10.1071L25.1772 13.4673L23.4735 19.4299C23.4208 19.6144 23.426 19.8106 23.4883 19.9921C23.5507 20.1736 23.6672 20.3316 23.8222 20.4447C23.9772 20.5579 24.1632 20.6207 24.355 20.6248C24.5469 20.6289 24.7354 20.574 24.895 20.4675L30 17.0643L35.105 20.4675C35.2589 20.5703 35.4399 20.6251 35.6249 20.625ZM30.52 15.1575C30.366 15.0548 30.1851 15 30 15C29.8149 15 29.634 15.0548 29.48 15.1575L25.9771 17.4928L27.1514 13.3826C27.2022 13.2049 27.1993 13.0161 27.1431 12.84C27.087 12.6639 26.98 12.5084 26.8356 12.3929L24.2351 10.3125H28.125C28.3287 10.3125 28.5269 10.2461 28.6895 10.1235C28.8522 10.0008 28.9704 9.82848 29.0264 9.63261L30 6.22501L30.9735 9.63261C31.0295 9.82848 31.1478 10.0008 31.3105 10.1235C31.4731 10.2461 31.6713 10.3125 31.875 10.3125H35.7649L33.1643 12.3929C33.02 12.5084 32.913 12.6639 32.8568 12.84C32.8007 13.0161 32.7978 13.2049 32.8485 13.3826L34.0229 17.4928L30.52 15.1575Z" fill="url(#paint1_linear)"/>
<path d="M16.355 23.28C16.5146 23.3865 16.7031 23.4414 16.895 23.4373C17.0868 23.4332 17.2728 23.3704 17.4278 23.2572C17.5828 23.1441 17.6993 22.9861 17.7617 22.8046C17.824 22.6231 17.8292 22.4269 17.7764 22.2424L16.0728 16.2798L20.2731 12.9196C20.4248 12.7982 20.5351 12.6327 20.5887 12.446C20.6422 12.2593 20.6364 12.0605 20.5721 11.8772C20.5078 11.6939 20.3882 11.5351 20.2297 11.4227C20.0712 11.3104 19.8818 11.25 19.6875 11.25H13.8321L12.1514 5.36739C12.0955 5.17151 11.9772 4.9992 11.8145 4.87653C11.6519 4.75386 11.4537 4.6875 11.25 4.6875C11.0463 4.6875 10.8481 4.75386 10.6854 4.87653C10.5228 4.9992 10.4045 5.17151 10.3485 5.36739L8.66787 11.25H2.8125C2.61823 11.25 2.42876 11.3104 2.27029 11.4227C2.11181 11.5351 1.99215 11.6939 1.92785 11.8772C1.86355 12.0605 1.85778 12.2593 1.91134 12.446C1.9649 12.6327 2.07515 12.7982 2.22684 12.9196L6.42717 16.2798L4.72355 22.2424C4.67081 22.4269 4.67597 22.6231 4.73832 22.8046C4.80067 22.9861 4.91721 23.1441 5.0722 23.2572C5.2272 23.3704 5.41317 23.4332 5.60502 23.4373C5.79687 23.4414 5.98536 23.3865 6.14502 23.28L11.25 19.8768L16.355 23.28ZM7.22711 20.3053L8.40145 16.1951C8.45222 16.0174 8.44933 15.8286 8.39314 15.6525C8.33695 15.4764 8.22997 15.3209 8.08565 15.2054L5.48509 13.125H9.375C9.57872 13.125 9.77689 13.0586 9.93954 12.936C10.1022 12.8133 10.2205 12.641 10.2764 12.4451L11.25 9.03751L12.2235 12.4451C12.2795 12.641 12.3978 12.8133 12.5605 12.936C12.7231 13.0586 12.9213 13.125 13.125 13.125H17.0149L14.4143 15.2054C14.27 15.3209 14.163 15.4764 14.1069 15.6525C14.0507 15.8286 14.0478 16.0174 14.0985 16.1951L15.2729 20.3053L11.77 17.97C11.616 17.8673 11.4351 17.8125 11.25 17.8125C11.0649 17.8125 10.884 17.8673 10.73 17.97L7.22711 20.3053Z" fill="url(#paint2_linear)"/>
<path d="M58.0721 11.8771C58.0078 11.6938 57.8882 11.535 57.7297 11.4227C57.5712 11.3103 57.3817 11.25 57.1875 11.25H51.3321L49.6514 5.36739C49.5955 5.17151 49.4772 4.9992 49.3145 4.87653C49.1519 4.75386 48.9537 4.6875 48.75 4.6875C48.5463 4.6875 48.3481 4.75386 48.1854 4.87653C48.0228 4.9992 47.9045 5.17151 47.8485 5.36739L46.1679 11.25H40.3125C40.1182 11.25 39.9288 11.3104 39.7703 11.4227C39.6118 11.5351 39.4922 11.6939 39.4279 11.8772C39.3635 12.0605 39.3578 12.2593 39.4113 12.446C39.4649 12.6327 39.5752 12.7982 39.7268 12.9196L43.9272 16.2798L42.2235 22.2424C42.1708 22.4269 42.176 22.6231 42.2383 22.8046C42.3007 22.9861 42.4172 23.1441 42.5722 23.2572C42.7272 23.3704 42.9132 23.4332 43.105 23.4373C43.2969 23.4414 43.4854 23.3865 43.645 23.28L48.75 19.8768L53.855 23.28C54.0146 23.3865 54.2031 23.4414 54.395 23.4373C54.5868 23.4332 54.7728 23.3704 54.9278 23.2572C55.0828 23.1441 55.1993 22.9861 55.2617 22.8046C55.324 22.6231 55.3292 22.4269 55.2764 22.2424L53.5728 16.2798L57.7731 12.9196C57.9248 12.7982 58.0351 12.6327 58.0887 12.446C58.1422 12.2592 58.1364 12.0605 58.0721 11.8771ZM51.9143 15.2054C51.77 15.3209 51.663 15.4764 51.6068 15.6525C51.5507 15.8286 51.5478 16.0174 51.5985 16.1951L52.7729 20.3053L49.27 17.97C49.116 17.8673 48.9351 17.8125 48.75 17.8125C48.5649 17.8125 48.384 17.8673 48.23 17.97L44.7271 20.3053L45.9014 16.1951C45.9522 16.0174 45.9493 15.8286 45.8931 15.6525C45.8369 15.4764 45.73 15.3209 45.5856 15.2054L42.9851 13.125H46.875C47.0787 13.125 47.2769 13.0586 47.4395 12.936C47.6022 12.8133 47.7204 12.641 47.7764 12.4451L48.75 9.03751L49.7235 12.4451C49.7795 12.641 49.8978 12.8133 50.0605 12.936C50.2231 13.0586 50.4213 13.125 50.625 13.125H54.5149L51.9143 15.2054Z" fill="url(#paint3_linear)"/>
<path d="M28.125 31.875H22.2696L20.5889 25.9924C20.533 25.7965 20.4147 25.6242 20.252 25.5015C20.0894 25.3789 19.8912 25.3125 19.6875 25.3125C19.4838 25.3125 19.2856 25.3789 19.1229 25.5015C18.9603 25.6242 18.842 25.7965 18.786 25.9924L17.1054 31.875H11.25C11.0557 31.875 10.8663 31.9354 10.7078 32.0477C10.5493 32.1601 10.4297 32.3189 10.3653 32.5022C10.301 32.6855 10.2953 32.8843 10.3488 33.071C10.4024 33.2577 10.5127 33.4232 10.6643 33.5446L14.8647 36.9048L13.161 42.8674C13.1083 43.0519 13.1135 43.2481 13.1758 43.4296C13.2382 43.6111 13.3547 43.7691 13.5097 43.8822C13.6647 43.9954 13.8507 44.0582 14.0425 44.0623C14.2344 44.0664 14.4229 44.0115 14.5825 43.905L19.6875 40.5018L24.7925 43.905C24.9521 44.0115 25.1406 44.0664 25.3325 44.0623C25.5243 44.0582 25.7103 43.9954 25.8653 43.8822C26.0203 43.7691 26.1368 43.6111 26.1992 43.4296C26.2615 43.2481 26.2667 43.0519 26.2139 42.8674L24.5103 36.9048L28.7106 33.5446C28.8623 33.4232 28.9726 33.2577 29.0262 33.071C29.0797 32.8843 29.0739 32.6855 29.0096 32.5022C28.9453 32.3189 28.8257 32.1601 28.6672 32.0477C28.5087 31.9354 28.3193 31.875 28.125 31.875ZM22.8518 35.8304C22.7075 35.9459 22.6005 36.1014 22.5444 36.2775C22.4882 36.4536 22.4853 36.6424 22.536 36.8201L23.7104 40.9302L20.2075 38.595C20.0535 38.4923 19.8726 38.4375 19.6875 38.4375C19.5024 38.4375 19.3215 38.4923 19.1675 38.595L15.6646 40.9302L16.8389 36.8201C16.8897 36.6424 16.8868 36.4536 16.8306 36.2775C16.7745 36.1014 16.6675 35.9459 16.5231 35.8304L13.9226 33.75H17.8125C18.0162 33.75 18.2144 33.6836 18.377 33.561C18.5397 33.4383 18.658 33.266 18.7139 33.0701L19.6875 29.6625L20.661 33.0701C20.717 33.266 20.8353 33.4383 20.998 33.561C21.1606 33.6836 21.3588 33.75 21.5625 33.75H25.4524L22.8518 35.8304Z" fill="url(#paint4_linear)"/>
<defs>
<linearGradient id="paint0_linear" x1="30.9375" y1="41.7188" x2="55.3125" y2="41.7188" gradientUnits="userSpaceOnUse">
<stop stop-color="#0FD9B1"/>
<stop offset="1" stop-color="#15B8BE"/>
</linearGradient>
<linearGradient id="paint1_linear" x1="20.625" y1="11.25" x2="39.375" y2="11.25" gradientUnits="userSpaceOnUse">
<stop stop-color="#0FD9B1"/>
<stop offset="1" stop-color="#15B8BE"/>
</linearGradient>
<linearGradient id="paint2_linear" x1="1.875" y1="14.0625" x2="20.625" y2="14.0625" gradientUnits="userSpaceOnUse">
<stop stop-color="#0FD9B1"/>
<stop offset="1" stop-color="#15B8BE"/>
</linearGradient>
<linearGradient id="paint3_linear" x1="39.375" y1="14.0625" x2="58.125" y2="14.0625" gradientUnits="userSpaceOnUse">
<stop stop-color="#0FD9B1"/>
<stop offset="1" stop-color="#15B8BE"/>
</linearGradient>
<linearGradient id="paint4_linear" x1="10.3125" y1="34.6875" x2="29.0625" y2="34.6875" gradientUnits="userSpaceOnUse">
<stop stop-color="#0FD9B1"/>
<stop offset="1" stop-color="#15B8BE"/>
</linearGradient>
</defs>
</svg>
