<svg width="60" height="60" viewBox="0 0 60 60" fill="none" xmlns="http://www.w3.org/2000/svg">
<g clip-path="url(#clip0)">
<path d="M59.8999 27.7814C59.9347 27.6875 59.9547 27.5893 59.9591 27.4891C59.9591 27.3835 59.942 27.2784 59.9092 27.1782L59.832 26.9596C59.0146 19.0598 55.093 11.8081 48.9291 6.8003C48.4886 6.44149 48.0281 6.11738 47.5676 5.78496C47.5447 5.76589 47.5324 5.739 47.5075 5.72092C47.4826 5.70283 47.4625 5.70478 47.4415 5.69159C42.3452 2.03838 36.2355 0.0687935 29.965 0.057061C29.7069 0.057061 29.4473 0.057061 29.2542 0.077104C25.9095 0.142121 22.6009 0.778609 19.4708 1.95919C16.7572 -0.157545 13.0737 -0.541296 9.98165 0.970728C6.88966 2.48275 4.93082 5.62608 4.93571 9.06761C4.99584 10.2125 5.26177 11.3369 5.72178 12.3864C4.70008 13.7831 3.80059 15.2648 3.03358 16.8159C3.01842 16.8399 3.00963 16.8658 2.99643 16.8907C-4.10173 31.5676 1.8046 49.2274 16.3045 56.6805C30.8039 64.134 48.6021 58.6593 56.4061 44.3452C58.5434 40.4075 59.7582 36.0357 59.9581 31.5602C59.9894 31.0773 60.0002 30.585 60.0002 30.0922C60.0002 29.3164 59.9601 28.5474 59.8999 27.7814ZM56.9908 22.6436C56.8637 22.5306 56.7463 22.4001 56.6134 22.296C55.3052 21.3026 53.8225 20.562 52.2421 20.1128C50.8029 19.7515 49.2987 19.7359 47.8521 20.0668C46.6217 20.3455 45.3458 20.3518 44.1124 20.0854C41.719 19.5628 39.8276 19.1507 38.8245 17.5487C37.3878 15.2457 38.0614 12.009 39.5773 10.87C40.0769 10.5254 40.6934 10.3939 41.2903 10.5043C42.3521 10.5914 43.4192 10.4115 44.394 9.98176C45.4313 9.49584 46.3528 8.79434 47.0974 7.9232C47.2865 8.06937 47.4865 8.20087 47.6718 8.35192C52.1897 12.0301 55.447 17.0261 56.9908 22.6436ZM13.9463 2.0594C17.8146 2.06576 20.9486 5.1998 20.9545 9.06761C20.9545 12.0623 16.4565 18.9185 13.9463 22.3942C11.566 19.1776 9.49769 15.7409 7.77008 12.1313C7.29931 11.1726 7.01676 10.1328 6.93805 9.06761C6.94245 5.19882 10.0775 2.0638 13.9463 2.0594ZM1.93219 30.0922C1.9361 28.2267 2.12431 26.3657 2.49388 24.5369C2.60094 25.9286 2.78231 27.1669 2.94461 28.2409C3.56496 32.3458 4.1511 36.2156 7.17661 39.7544C8.44176 41.2454 10.5605 43.7381 13.8363 44.1067C17.1121 44.4753 21.214 42.5907 22.399 42.0041L22.8537 41.7748C23.4833 41.3784 24.2029 41.1481 24.9455 41.1051C26.2121 41.22 27.3853 41.8193 28.2213 42.778C29.9298 44.6693 30.3634 47.8273 29.1491 49.5359C28.76 50.0433 28.2227 50.4168 27.6112 50.6045C26.5645 50.9545 25.6748 51.6638 25.1004 52.6068C24.2542 54.1389 24.0968 55.9579 24.6678 57.6127C11.4824 55.058 1.95272 43.523 1.93219 30.0922ZM29.965 58.125C28.9976 58.125 28.0311 58.0752 27.0685 57.9759C26.9864 57.8708 26.9102 57.7613 26.8403 57.6474C26.1637 56.3959 26.1563 54.8888 26.8212 53.631C27.1824 53.0571 27.7422 52.6362 28.3933 52.4485C29.3481 52.1195 30.1811 51.5079 30.7809 50.6954C32.5222 48.2468 32.0294 44.0045 29.7098 41.4385C28.5033 40.059 26.7963 39.2181 24.9675 39.1028H24.923C23.8685 39.1345 22.8409 39.4406 21.9405 39.991L21.5132 40.2071C19.3256 41.2855 16.2131 42.3517 14.0587 42.1092C11.5724 41.8311 9.84575 39.7964 8.70037 38.4492C6.04492 35.3454 5.52526 31.9112 4.92495 27.9369C4.28064 24.5369 4.25522 21.0489 4.84869 17.6397C5.38496 16.5539 5.99065 15.5038 6.66283 14.4958C6.69607 14.5623 6.73273 14.6303 6.76304 14.6963C6.82708 14.8234 6.89308 14.9495 6.96298 15.0766C7.0632 15.2658 7.16341 15.455 7.26363 15.6456C7.33256 15.7737 7.40246 15.9018 7.47383 16.0308C7.57992 16.221 7.68697 16.4112 7.79501 16.6013C7.86736 16.7275 7.93922 16.8541 8.01255 16.9802C8.12401 17.1704 8.23547 17.3595 8.34791 17.5487C8.42172 17.6729 8.49505 17.7961 8.56984 17.9193C8.68815 18.1192 8.80743 18.3064 8.92671 18.4995C8.99466 18.609 9.06163 18.72 9.12665 18.8281C9.27477 19.0656 9.42192 19.2959 9.56906 19.5291C9.60817 19.5892 9.64728 19.6523 9.68541 19.7114C9.86873 19.9954 10.0506 20.2726 10.229 20.543C10.297 20.6432 10.363 20.7434 10.4294 20.8436C10.5394 21.0088 10.6494 21.1741 10.7565 21.332L10.9941 21.6795C11.0801 21.8066 11.1671 21.9337 11.2512 22.055L11.4912 22.4001C11.5655 22.5077 11.6398 22.6128 11.7107 22.7135C11.7816 22.8147 11.8618 22.929 11.9361 23.0322C12.0099 23.1353 12.0603 23.2072 12.1194 23.2903L12.3194 23.5665L12.4826 23.7928L12.642 24.0123L12.772 24.1883L12.8942 24.3545L12.9671 24.4548C13.0565 24.576 13.1245 24.6669 13.1436 24.6919C13.3323 24.9441 13.629 25.0927 13.9443 25.0927C14.2596 25.0927 14.5563 24.9441 14.745 24.6919C15.5854 23.5778 22.9568 13.6951 22.9568 9.06761C22.9568 8.77527 22.9387 8.48489 22.9108 8.19647C22.9021 8.1075 22.8879 8.01853 22.8766 7.92956C22.8507 7.72913 22.8199 7.5287 22.7769 7.32875C22.7578 7.22854 22.7368 7.13468 22.7148 7.03838C22.6684 6.83795 22.6146 6.638 22.5535 6.43758C22.5286 6.3574 22.5075 6.27625 22.4811 6.19755C22.3912 5.92917 22.29 5.66372 22.1751 5.40561C22.1531 5.35623 22.1267 5.30539 22.1038 5.26042C22.0035 5.05216 21.9038 4.84587 21.7884 4.64446C21.7386 4.55451 21.6833 4.4675 21.6296 4.37901C21.5333 4.22111 21.433 4.06566 21.3289 3.91265C21.2668 3.82368 21.2038 3.7347 21.1388 3.6472C21.1045 3.6032 21.0757 3.55627 21.0385 3.51325C23.1215 2.81175 25.2818 2.36396 27.4723 2.17966C25.9114 5.12598 25.4016 7.85134 25.9843 10.2893C26.4189 11.922 27.2436 13.4252 28.3875 14.6694C29.3295 15.8358 30.007 16.6766 29.965 18.0493C29.879 20.9526 26.6002 23.3695 25.3595 24.2827C23.7321 25.4545 21.9131 26.3329 19.9836 26.8795C18.1651 27.4734 16.5963 27.9857 15.9965 29.7759C15.4035 32.14 16.3773 34.6205 18.4207 35.9492C19.6453 36.6106 21.0884 36.7382 22.4103 36.3016C23.8582 35.9653 25.3551 35.8934 26.8285 36.0904C28.7306 36.3598 30.3708 36.591 31.1485 37.6802C31.61 38.3309 31.586 39.0035 31.4961 40.2374C31.2908 41.9841 31.4682 43.7547 32.0153 45.4261C32.4718 46.7958 33.1616 48.8642 34.8188 49.1027C34.9264 49.1199 35.0354 49.1287 35.1439 49.1287C36.3167 49.1287 37.0343 48.0933 37.7891 47.0041C38.1225 46.5226 38.4901 46.0029 38.9306 45.4813C40.9911 48.8104 43.0844 51.5886 43.1816 51.7206C43.3708 51.9728 43.6676 52.1209 43.9824 52.1209C44.2977 52.1209 44.5944 51.9728 44.7836 51.7206C46.9556 48.8119 48.9355 45.7634 50.7095 42.5961C51.9395 42.9525 53.1107 43.4863 54.1862 44.181C49.1769 52.8161 39.9479 58.1294 29.965 58.125ZM48.6519 30.8802C50.1395 32.207 50.9901 34.1057 50.9896 36.0992C50.9896 36.8193 50.6973 38.2468 49.3089 40.958C47.7241 43.8955 45.9446 46.723 43.9814 49.422C43.0394 48.1094 41.4184 45.7795 39.9679 43.3309C39.1594 41.9885 38.4373 40.5967 37.8052 39.1629C37.3345 38.2042 37.0519 37.1645 36.9732 36.0992C36.9776 32.2305 40.1126 29.0954 43.9814 29.091C44.198 29.091 44.4126 29.1008 44.6262 29.1204C46.1231 29.2558 47.5359 29.8737 48.6519 30.8802ZM57.9626 31.4571C57.7901 35.2653 56.8304 38.9962 55.1434 42.4147C54.0464 41.7211 52.8644 41.1706 51.6276 40.7766C52.4009 39.3291 52.8658 37.7359 52.992 36.0992C52.9836 32.6636 51.0302 29.5291 47.9489 28.0077L47.8859 27.9799C47.662 27.8718 47.4347 27.7706 47.2025 27.6797C47.0431 27.6176 46.8779 27.5692 46.7146 27.5174C46.6144 27.4871 46.5244 27.4495 46.4271 27.4172C46.169 27.3439 45.9065 27.2842 45.6425 27.2349H45.6293C45.4695 27.205 45.3072 27.1889 45.1449 27.1679C42.5706 26.8115 39.9684 27.5922 38.0154 29.3066C36.062 31.0215 34.9508 33.5005 34.9709 36.0992C35.0486 37.4338 35.3854 38.741 35.9623 39.947C36.5235 41.2249 37.1565 42.47 37.8585 43.676C37.2328 44.3609 36.6599 45.0917 36.1441 45.8626C35.8689 46.3344 35.5213 46.7597 35.1141 47.1234C34.9137 47.0931 34.5426 46.6658 33.9125 44.7925C33.453 43.3704 33.3088 41.8648 33.4911 40.3816C33.7512 39.0495 33.4955 37.6685 32.7764 36.5177C31.498 34.73 29.2664 34.4151 27.0949 34.1072C25.4069 33.8764 23.6911 33.9537 22.0309 34.3345C20.7501 34.5794 20.1557 34.6708 19.4757 34.247C18.2335 33.3954 17.6127 31.8892 17.8937 30.4095C18.1611 29.6087 18.9624 29.3193 20.5971 28.7826C22.7319 28.17 24.744 27.1923 26.545 25.8925C28.0037 24.8224 31.8515 21.9826 31.9673 18.1085C32.0314 15.9888 30.9711 14.6811 29.9459 13.4169C28.9985 12.4021 28.3093 11.1746 27.9358 9.83755C27.4039 7.60691 28.0629 4.99106 29.8501 2.0594H29.965C35.4768 2.06723 40.865 3.69609 45.4582 6.74311C44.9278 7.33413 44.286 7.81419 43.5688 8.15589C42.8707 8.45801 42.1076 8.57729 41.3504 8.50298C40.2974 8.37295 39.2346 8.64621 38.3747 9.26804C36.1045 10.9771 35.0872 15.3352 37.1277 18.6081C38.5801 20.9277 41.061 21.4684 43.7702 22.0589C45.2285 22.3669 46.7356 22.3605 48.1914 22.0398C49.3598 21.7612 50.578 21.7646 51.7444 22.0511C53.057 22.4294 54.2889 23.0464 55.379 23.8701C56.5112 24.8092 57.3696 26.0352 57.8648 27.4201C57.947 28.3045 57.9978 29.1913 57.9978 30.0922C57.9978 30.54 57.989 30.9932 57.9587 31.4571H57.9626Z" fill="url(#paint0_linear)"/>
<path d="M13.9461 12.0704C16.1577 12.0704 17.9508 10.2778 17.9508 8.06572C17.9508 5.85415 16.1577 4.06104 13.9461 4.06104C11.7345 4.06104 9.94141 5.85415 9.94141 8.06572C9.94141 10.2778 11.7345 12.0704 13.9461 12.0704ZM13.9461 6.06338C15.0519 6.06338 15.9484 6.95994 15.9484 8.06572C15.9484 9.17151 15.0519 10.0681 13.9461 10.0681C12.8403 10.0681 11.9438 9.17151 11.9438 8.06572C11.9438 6.95994 12.8403 6.06338 13.9461 6.06338Z" fill="url(#paint1_linear)"/>
<path d="M39.9766 35.0972C39.9766 37.3093 41.7697 39.1019 43.9813 39.1019C46.1928 39.1019 47.9859 37.3093 47.9859 35.0972C47.9859 32.8856 46.1928 31.0925 43.9813 31.0925C41.7697 31.0925 39.9766 32.8856 39.9766 35.0972ZM45.9836 35.0972C45.9836 36.203 45.087 37.0996 43.9813 37.0996C42.8755 37.0996 41.9789 36.203 41.9789 35.0972C41.9789 33.9914 42.8755 33.0949 43.9813 33.0949C45.087 33.0949 45.9836 33.9914 45.9836 35.0972Z" fill="url(#paint2_linear)"/>
</g>
<defs>
<linearGradient id="paint0_linear" x1="-0.00585938" y1="30.0322" x2="60.0002" y2="30.0322" gradientUnits="userSpaceOnUse">
<stop stop-color="#0FD9B1"/>
<stop offset="1" stop-color="#15B8BE"/>
</linearGradient>
<linearGradient id="paint1_linear" x1="9.94141" y1="8.06572" x2="17.9508" y2="8.06572" gradientUnits="userSpaceOnUse">
<stop stop-color="#0FD9B1"/>
<stop offset="1" stop-color="#15B8BE"/>
</linearGradient>
<linearGradient id="paint2_linear" x1="39.9766" y1="35.0972" x2="47.9859" y2="35.0972" gradientUnits="userSpaceOnUse">
<stop stop-color="#0FD9B1"/>
<stop offset="1" stop-color="#15B8BE"/>
</linearGradient>
<clipPath id="clip0">
<rect width="60" height="60" fill="white"/>
</clipPath>
</defs>
</svg>
