<svg width="20" height="15" viewBox="0 0 20 15" fill="none" xmlns="http://www.w3.org/2000/svg">
<path d="M0.941332 1.52434C3.54901 3.73276 8.12467 7.61804 9.46951 8.82947C9.65005 8.99298 9.84369 9.0761 10.0447 9.0761C10.2453 9.0761 10.4386 8.99376 10.6188 8.83103C11.9647 7.61841 16.5404 3.73276 19.1481 1.52434C19.3105 1.38711 19.3352 1.1459 19.2038 0.978131C18.8999 0.590449 18.4469 0.368164 17.9614 0.368164H2.12805C1.64255 0.368164 1.18948 0.590449 0.885668 0.978168C0.754227 1.1459 0.778979 1.38711 0.941332 1.52434Z" fill="#2A2D33"/>
<path d="M19.3148 2.72147C19.1745 2.65616 19.0094 2.67895 18.8927 2.7787C17.1849 4.22633 14.9347 6.13903 13.2378 7.59865C13.1485 7.67521 13.0982 7.78768 13.1002 7.90558C13.1021 8.02311 13.1566 8.13403 13.2486 8.20747C14.8254 9.47033 17.2015 11.2075 18.9174 12.4422C18.9859 12.4917 19.067 12.5168 19.1486 12.5168C19.2104 12.5168 19.2723 12.5025 19.3291 12.4731C19.4613 12.4055 19.5444 12.2694 19.5444 12.1209V3.08058C19.5444 2.92635 19.4547 2.78604 19.3148 2.72147Z" fill="#2A2D33"/>
<path d="M1.17143 12.4419C2.88774 11.2072 5.2643 9.47003 6.84067 8.20712C6.93266 8.13368 6.98718 8.02273 6.98911 7.90524C6.99104 7.78734 6.94079 7.67486 6.85151 7.59831C5.15449 6.13868 2.90396 4.22599 1.19619 2.77835C1.07866 2.6786 0.913227 2.6566 0.774066 2.72113C0.634127 2.7857 0.544434 2.92601 0.544434 3.08024V12.1206C0.544434 12.2691 0.627559 12.4052 0.759742 12.4728C0.816557 12.5022 0.878418 12.5165 0.940279 12.5165C1.02185 12.5165 1.103 12.4914 1.17143 12.4419Z" fill="#2A2D33"/>
<path d="M19.0591 13.5194C17.402 12.3338 14.3493 10.1235 12.5271 8.64452C12.3786 8.52354 12.1637 8.5274 12.0176 8.65343C11.6601 8.96537 11.3608 9.22825 11.1486 9.41918C10.4969 10.0075 9.59233 10.0075 8.93905 9.4184C8.7276 9.22784 8.42843 8.96418 8.07084 8.65339C7.92589 8.52659 7.71058 8.52273 7.56174 8.64448C5.74568 10.1184 2.68957 12.3315 1.02971 13.5194C0.937307 13.5859 0.877784 13.6883 0.866206 13.8015C0.854999 13.9148 0.892479 14.0273 0.970186 14.1108C1.26981 14.4336 1.69193 14.6188 2.12759 14.6188H17.9609C18.3966 14.6188 18.8183 14.4336 19.1187 14.1108C19.196 14.0277 19.2339 13.9152 19.2227 13.802C19.211 13.6887 19.1515 13.5859 19.0591 13.5194Z" fill="#2A2D33"/>
</svg>
