<svg width="14" height="14" viewBox="0 0 14 14" fill="none" xmlns="http://www.w3.org/2000/svg">
<path d="M10.2103 0H3.78967C1.70001 0 0 1.70001 0 3.78967V10.2104C0 12.3 1.70001 14 3.78967 14H10.2104C12.3 14 14 12.3 14 10.2104V3.78967C14 1.70001 12.3 0 10.2103 0V0ZM6.99999 10.828C4.88918 10.828 3.17198 9.11079 3.17198 6.99999C3.17198 4.88918 4.88918 3.17198 6.99999 3.17198C9.11079 3.17198 10.828 4.88918 10.828 6.99999C10.828 9.11079 9.11079 10.828 6.99999 10.828ZM10.9195 4.07475C10.2958 4.07475 9.7884 3.56739 9.7884 2.94361C9.7884 2.31983 10.2958 1.81237 10.9195 1.81237C11.5433 1.81237 12.0508 2.31983 12.0508 2.94361C12.0508 3.56739 11.5433 4.07475 10.9195 4.07475Z" fill="#2A2D33"/>
<path d="M6.99995 3.99271C5.34181 3.99271 3.99268 5.34174 3.99268 6.99999C3.99268 8.65813 5.34181 10.0073 6.99995 10.0073C8.65819 10.0073 10.0072 8.65813 10.0072 6.99999C10.0072 5.34174 8.65819 3.99271 6.99995 3.99271Z" fill="#2A2D33"/>
<path d="M10.9198 2.63322C10.7487 2.63322 10.6094 2.7725 10.6094 2.94361C10.6094 3.11472 10.7487 3.254 10.9198 3.254C11.091 3.254 11.2303 3.11483 11.2303 2.94361C11.2303 2.77239 11.091 2.63322 10.9198 2.63322Z" fill="#2A2D33"/>
</svg>
