<svg width="14" height="14" viewBox="0 0 14 14" fill="none" xmlns="http://www.w3.org/2000/svg">
<g clip-path="url(#clip0)">
<path d="M13.9963 14V13.9994H13.9998V8.86491C13.9998 6.35307 13.459 4.41815 10.5225 4.41815C9.11084 4.41815 8.1635 5.19282 7.77675 5.92724H7.73592V4.65265H4.95166V13.9994H7.85083V9.37125C7.85083 8.15266 8.08183 6.97432 9.59092 6.97432C11.0778 6.97432 11.1 8.36499 11.1 9.44941V14H13.9963Z" fill="#2A2D33"/>
<path d="M0.230957 4.65325H3.13362V14H0.230957V4.65325Z" fill="#2A2D33"/>
<path d="M1.68117 0C0.753083 0 0 0.753083 0 1.68117C0 2.60925 0.753083 3.37808 1.68117 3.37808C2.60925 3.37808 3.36233 2.60925 3.36233 1.68117C3.36175 0.753083 2.60867 0 1.68117 0V0Z" fill="#2A2D33"/>
</g>
<defs>
<clipPath id="clip0">
<rect width="14" height="14" fill="white"/>
</clipPath>
</defs>
</svg>
