<svg width="11" height="15" viewBox="0 0 11 15" fill="none" xmlns="http://www.w3.org/2000/svg">
<path d="M5.5 0C2.59223 0 0.226562 2.36566 0.226562 5.27344C0.226562 6.25588 0.498701 7.21465 1.01374 8.04645L5.19982 14.7923C5.28001 14.9215 5.42128 15 5.57321 15C5.57438 15 5.57553 15 5.5767 15C5.72995 14.9988 5.87151 14.9179 5.95023 14.7864L10.0296 7.9752C10.5162 7.16098 10.7734 6.22673 10.7734 5.27344C10.7734 2.36566 8.40777 0 5.5 0ZM9.27537 7.52396L5.56656 13.7164L1.76075 7.58338C1.33205 6.89104 1.09961 6.09229 1.09961 5.27344C1.09961 2.85029 3.07686 0.873047 5.5 0.873047C7.92314 0.873047 9.89746 2.85029 9.89746 5.27344C9.89746 6.068 9.68034 6.84633 9.27537 7.52396Z" fill="#2A2D33"/>
<path d="M5.5 2.63672C4.04611 2.63672 2.86328 3.81955 2.86328 5.27344C2.86328 6.71804 4.02687 7.91016 5.5 7.91016C6.9913 7.91016 8.13672 6.70216 8.13672 5.27344C8.13672 3.81955 6.95389 2.63672 5.5 2.63672ZM5.5 7.03711C4.52567 7.03711 3.73633 6.24513 3.73633 5.27344C3.73633 4.30418 4.53074 3.50977 5.5 3.50977C6.46926 3.50977 7.26074 4.30418 7.26074 5.27344C7.26074 6.23095 6.48977 7.03711 5.5 7.03711Z" fill="#2A2D33"/>
</svg>
