<svg width="124" height="70" viewBox="0 0 124 70" fill="none" xmlns="http://www.w3.org/2000/svg">
<path d="M62.0357 50.7306C75.6994 50.7306 86.7761 39.6154 86.7761 25.9042C86.7761 12.193 75.6994 1.07784 62.0357 1.07784C48.372 1.07784 37.2954 12.193 37.2954 25.9042C37.2954 39.6154 48.372 50.7306 62.0357 50.7306Z" fill="white"/>
<path d="M62.0359 51.7964C55.1377 51.7964 48.6573 49.1018 43.788 44.2156C38.9187 39.3293 36.2334 32.8263 36.2334 25.9042C36.2334 18.982 38.9067 12.479 43.776 7.58084C48.6573 2.69461 55.1377 0 62.0359 0C68.9341 0 75.4145 2.69461 80.2838 7.58084C85.1531 12.4671 87.8384 18.9701 87.8384 25.8922C87.8384 32.8144 85.1531 39.3174 80.2838 44.2036C75.4026 49.1018 68.9221 51.7964 62.0359 51.7964ZM62.0359 2.15569C48.9914 2.15569 38.3697 12.8024 38.3697 25.9042C38.3697 39.006 48.9795 49.6527 62.0359 49.6527C75.0923 49.6527 85.6902 38.994 85.6902 25.9042C85.6902 12.8144 75.0804 2.15569 62.0359 2.15569Z" fill="#696B6D"/>
<path d="M45.1484 37.5329L76.6676 10.7785L79.2693 14.1318L49.3255 39.2934H45.9242L45.1484 37.5329Z" fill="#68696D"/>
<path d="M62.06 48.4431C49.6839 48.4431 39.623 38.3473 39.623 25.9282C39.623 13.509 49.6839 3.41318 62.06 3.41318C74.4361 3.41318 84.497 13.509 84.497 25.9282C84.497 38.3473 74.4361 48.4431 62.06 48.4431ZM62.06 5.56887C50.8773 5.56887 41.7713 14.7066 41.7713 25.9282C41.7713 37.1497 50.8773 46.2874 62.06 46.2874C73.2427 46.2874 82.3487 37.1497 82.3487 25.9282C82.3487 14.7066 73.2427 5.56887 62.06 5.56887Z" fill="#DD7F1D"/>
<path d="M62.6086 10.7785L62.2744 12.024H63.9452C63.9452 12.024 63.444 10.8383 62.6086 10.7785Z" fill="#68696D"/>
<path d="M65.5565 12.4551C65.7833 12.7665 66.201 12.8742 66.559 12.7904C66.75 12.7425 66.9171 12.6467 67.0364 12.491C67.0961 12.4072 67.3229 11.988 67.12 11.9521C66.6903 11.8682 66.2607 11.8323 65.831 11.8203C65.7355 11.8203 65.6281 11.8203 65.5446 11.8802C65.4849 11.9281 65.4491 12.012 65.4491 12.0838C65.4372 12.2275 65.4849 12.3473 65.5565 12.4551Z" fill="#68696D"/>
<path d="M67.7523 11.5809C67.6927 11.6527 67.6688 11.7485 67.6807 11.8563C67.7046 12.0599 67.8717 12.3473 68.1104 12.2874C68.3968 12.2276 68.7548 12.1797 69.0174 12.0599C69.1964 11.988 69.3634 11.8204 69.3754 11.6168C69.4351 10.9222 68.3729 11.2695 68.0387 11.3773C67.9194 11.4371 67.8239 11.497 67.7523 11.5809Z" fill="#68696D"/>
<path d="M69.5788 10.9461C69.543 11.03 69.531 11.1018 69.5549 11.1617C69.8294 11.6407 72.073 10.5389 70.6409 10C70.4738 9.92816 69.7458 10.5629 69.5788 10.9461Z" fill="#68696D"/>
<path d="M62.7041 10.7785L62.8115 12.024H61.1406C61.1406 12.024 61.8686 10.8383 62.7041 10.7785Z" fill="#68696D"/>
<path d="M59.5177 12.4551C59.291 12.7665 58.8732 12.8742 58.5152 12.7904C58.3243 12.7425 58.1572 12.6467 58.0378 12.491C57.9782 12.4072 57.7514 11.988 57.9543 11.9521C58.3839 11.8682 58.8136 11.8323 59.2432 11.8203C59.3387 11.8203 59.4461 11.8203 59.5296 11.8802C59.5893 11.9281 59.6251 12.012 59.6251 12.0838C59.6371 12.2275 59.6013 12.3473 59.5177 12.4551Z" fill="#68696D"/>
<path d="M57.3218 11.5809C57.3815 11.6527 57.4054 11.7485 57.3934 11.8563C57.3696 12.0599 57.2025 12.3473 56.9638 12.2874C56.6773 12.2276 56.3193 12.1797 56.0567 12.0599C55.8777 11.988 55.7106 11.8204 55.6987 11.6168C55.639 10.9222 56.7012 11.2695 57.0354 11.3773C57.1547 11.4371 57.2621 11.497 57.3218 11.5809Z" fill="#68696D"/>
<path d="M55.5079 10.9461C55.5437 11.03 55.5556 11.1018 55.5317 11.1617C55.2572 11.6407 53.0136 10.5389 54.4457 10C54.6128 9.92816 55.3288 10.5629 55.5079 10.9461Z" fill="#68696D"/>
<path d="M64.9243 12.8024C64.5662 12.6467 63.7785 12.8144 63.3847 12.8144C63.0983 12.8144 62.8119 12.8144 62.5374 12.8263C62.0838 12.8263 61.6184 12.8144 61.1649 12.8144C60.8546 12.8144 60.0669 12.5749 59.9356 12.994C59.8879 13.1377 59.9237 13.2814 59.9714 13.4132C60.1863 14.024 60.6517 14.3713 61.1171 14.7784C61.2604 14.9102 61.7616 15.4611 61.9764 15.4611H62.2151V13.2695L62.5374 13.2575L62.8596 13.2695V15.4611H63.0983C63.4444 15.4611 64.3156 14.5509 64.5543 14.2874C64.8527 13.976 65.4971 13.0419 64.9243 12.8024Z" fill="#68696D"/>
<path d="M65.3537 16.7904C65.0196 16.3832 64.4706 15.9641 63.9693 16C63.6829 16.024 63.4919 16.2635 63.2771 16.4671C63.0504 16.6826 62.7997 16.7904 62.5372 16.8862C62.2746 16.7904 62.024 16.6826 61.7972 16.4671C61.5824 16.2635 61.4034 16.024 61.105 16C60.6038 15.9641 60.0548 16.3832 59.7206 16.7904C59.0165 17.6527 57.9065 19.7725 58.742 20.9341C59.0761 21.4012 60.1144 20.9222 60.568 20.9581C61.1289 20.994 61.5705 21.1856 61.9762 20.5868C62.203 20.3593 62.3939 20.2515 62.5372 20.2036C62.6804 20.2515 62.8713 20.3593 63.0981 20.5868C63.5039 21.1976 63.9335 21.006 64.5064 20.9581C64.9599 20.9222 65.9982 21.4132 66.3324 20.9341C67.1678 19.7725 66.0579 17.6527 65.3537 16.7904Z" fill="#68696D"/>
<path d="M62.8117 21.6646C62.7163 21.6527 62.6327 21.6527 62.5373 21.6646C62.4537 21.6646 62.3582 21.6646 62.2628 21.6646V21.6766C56.8445 21.7964 57.0474 23.2096 57.0474 23.2096H62.2628H62.7998H68.0271C68.0271 23.2096 68.2181 21.7964 62.8117 21.6646Z" fill="#68696D"/>
<path d="M62.3582 24.1557C55.9493 24.1317 55.3765 25.8922 55.3765 25.8922H62.0837H62.6088H69.3399C69.3399 25.8922 68.767 24.1437 62.3582 24.1557Z" fill="#68696D"/>
<path d="M69.1131 27.0299C67.9554 26.994 63.8619 26.8263 62.4178 26.7545V26.7305C62.4178 26.7305 62.3223 26.7305 62.1672 26.7425C62.0001 26.7305 61.9165 26.7305 61.9165 26.7305V26.7545C60.4725 26.8144 56.367 26.994 55.2213 27.0299C53.813 27.0778 54.3501 29.2096 54.3501 29.2096H61.9285H62.4417H70.0201C69.9843 29.2096 70.5213 27.0778 69.1131 27.0299Z" fill="#68696D"/>
<path d="M68.3491 30.0719H62.3102C62.2744 30.0719 62.2386 30.0719 62.2028 30.0839C62.167 30.0839 62.1312 30.0719 62.0954 30.0719H56.0565C55.5075 30.0719 55.0659 30.5749 55.0659 31.1857C55.0659 31.7964 55.5075 32.2994 56.0565 32.2994H62.0954C62.1312 32.2994 62.167 32.2994 62.2028 32.2875C62.2386 32.2875 62.2744 32.2994 62.3102 32.2994H68.3491C68.8981 32.2994 69.3396 31.7964 69.3396 31.1857C69.3396 30.5749 68.8861 30.0719 68.3491 30.0719Z" fill="#68696D"/>
<path d="M66.3561 33.1617H61.8806H57.4052C56.9278 33.1617 56.5459 33.6646 56.5459 34.2754C56.5459 34.8862 56.9397 35.3892 57.4052 35.3892H61.8806H66.3561C66.8335 35.3892 67.2154 34.8862 67.2154 34.2754C67.2154 33.6527 66.8215 33.1617 66.3561 33.1617Z" fill="#68696D"/>
<path d="M65.1508 36.5989H62.4417H61.0095H58.3004L58.2407 36.7545C58.2407 37.0899 60.4247 38.3713 60.4247 38.3713C60.4247 38.3713 60.7231 38.0599 60.9976 37.4851C61.1766 37.1138 61.4631 36.9462 61.7375 36.8863C62.012 36.9462 62.2985 37.1138 62.4775 37.4851C62.752 38.0599 63.0503 38.3713 63.0503 38.3713C63.0503 38.3713 65.2344 37.0779 65.2344 36.7545L65.1508 36.5989Z" fill="#68696D"/>
<path d="M57.3934 15.7365C57.3934 15.7365 56.6296 15.7964 57.0473 16.0958C57.465 16.3952 57.274 16.7904 57.8588 16.8144C58.4436 16.8383 59.0165 16.4551 59.0403 16.2754C59.0642 16.0958 59.0045 15.8204 58.73 15.7365C58.4794 15.6407 57.3934 15.7365 57.3934 15.7365Z" fill="#68696D"/>
<path d="M56.7248 15.3174C56.9635 16.503 54.4453 15.9281 53.9441 15.7365C53.8128 15.6886 53.6815 15.6287 53.5741 15.5449C53.3354 15.3533 53.2399 14.8144 53.3354 14.5269C53.3354 14.515 56.689 15.1377 56.7248 15.3174Z" fill="#68696D"/>
<path d="M52.1779 14.1317C52.2495 14.1437 52.3092 14.1677 52.357 14.2276C52.4644 14.3593 52.3808 14.7186 52.2973 14.8503C52.0586 15.1856 51.4022 15.0898 51.0442 15.0898C50.5668 15.0898 50.1849 14.9102 49.7433 14.7305C49.4568 14.6108 49.1107 14.4791 48.9079 14.2276C48.7646 14.0479 48.5379 13.4731 48.8721 13.3533C49.1107 13.2695 49.4688 13.7246 49.6478 13.8443C50.2207 14.2276 50.9009 14.2276 51.5573 14.1796C51.7244 14.1796 51.987 14.1078 52.1779 14.1317Z" fill="#68696D"/>
<path d="M57.0354 18.2036C57.2741 19.3892 54.7559 18.8144 54.2546 18.6228C54.1233 18.5749 53.9921 18.515 53.8847 18.4311C53.646 18.2395 53.5505 17.7006 53.646 17.4132C53.646 17.4132 56.9996 18.0359 57.0354 18.2036Z" fill="#68696D"/>
<path d="M52.5002 17.0299C52.5718 17.0419 52.6314 17.0659 52.6792 17.1257C52.7866 17.2575 52.7031 17.6168 52.6195 17.7485C52.3808 18.0838 51.7244 17.988 51.3664 17.988C50.889 17.988 50.5071 17.8084 50.0655 17.6287C49.7791 17.509 49.433 17.3772 49.2301 17.1257C49.0869 16.9461 48.8602 16.3713 49.1943 16.2515C49.433 16.1677 49.791 16.6228 49.9701 16.7425C50.5429 17.1257 51.2232 17.1257 51.8796 17.0778C52.0347 17.0659 52.3092 16.994 52.5002 17.0299Z" fill="#68696D"/>
<path d="M56.5341 20.2994C57.0354 21.2575 54.732 21.3892 54.2427 21.3533C54.1233 21.3413 53.9921 21.3293 53.8847 21.2814C53.634 21.1737 53.4192 20.7305 53.4311 20.4671C53.4192 20.4551 56.4625 20.1557 56.5341 20.2994Z" fill="#68696D"/>
<path d="M52.2016 19.9401C52.2613 19.9521 52.321 19.976 52.3568 20.0239C52.4522 20.1437 52.3806 20.4671 52.309 20.5748C52.0942 20.8742 51.5094 20.7904 51.1872 20.7904C50.7575 20.7904 50.4114 20.6347 50.0295 20.479C49.767 20.3712 49.4686 20.2515 49.2776 20.0359C49.1464 19.8802 48.9435 19.3653 49.2418 19.2575C49.4567 19.1856 49.7789 19.5928 49.934 19.6886C50.4472 20.0359 51.0559 20.0359 51.6407 19.988C51.7839 19.976 52.0226 19.9162 52.2016 19.9401Z" fill="#68696D"/>
<path d="M67.9911 15.7844C67.9911 15.7844 68.7549 15.8443 68.3372 16.1437C67.9195 16.4431 68.1104 16.8383 67.5256 16.8623C66.9409 16.8982 66.368 16.503 66.3441 16.3233C66.3203 16.1437 66.3799 15.8683 66.6544 15.7844C66.9289 15.7006 67.9911 15.7844 67.9911 15.7844Z" fill="#68696D"/>
<path d="M68.6717 15.3652C68.433 16.5509 70.9512 15.976 71.4525 15.7844C71.5838 15.7365 71.715 15.6766 71.8224 15.5928C72.0611 15.4012 72.1566 14.8623 72.0611 14.5748C72.0611 14.5748 68.7075 15.1976 68.6717 15.3652Z" fill="#68696D"/>
<path d="M73.2064 14.1916C73.1348 14.2036 73.0751 14.2275 73.0274 14.2874C72.92 14.4192 73.0035 14.7784 73.0871 14.9102C73.3258 15.2455 73.9822 15.1497 74.3402 15.1497C74.8176 15.1497 75.1995 14.9701 75.6411 14.7904C75.9275 14.6707 76.2736 14.5389 76.4765 14.2874C76.6197 14.1078 76.8465 13.5329 76.5123 13.4132C76.2736 13.3293 75.9156 13.7844 75.7365 13.9042C75.1637 14.2874 74.4834 14.2874 73.827 14.2395C73.6599 14.2275 73.3974 14.1557 73.2064 14.1916Z" fill="#68696D"/>
<path d="M68.3611 18.2635C68.1224 19.4491 70.6407 18.8743 71.1419 18.6827C71.2732 18.6348 71.4045 18.5749 71.5119 18.491C71.7506 18.2994 71.8461 17.7605 71.7506 17.4731C71.7387 17.4611 68.3969 18.0839 68.3611 18.2635Z" fill="#68696D"/>
<path d="M72.8964 17.0778C72.8248 17.0898 72.7651 17.1138 72.7173 17.1737C72.6099 17.3054 72.6935 17.6647 72.777 17.7964C73.0157 18.1317 73.6721 18.0359 74.0301 18.0359C74.5075 18.0359 74.8894 17.8563 75.331 17.6766C75.6174 17.5569 75.9636 17.4252 76.1664 17.1737C76.3097 16.994 76.5364 16.4192 76.2022 16.2994C75.9635 16.2156 75.6055 16.6707 75.4265 16.7904C74.8536 17.1737 74.1734 17.1737 73.517 17.1258C73.3499 17.1258 73.0873 17.0539 72.8964 17.0778Z" fill="#68696D"/>
<path d="M68.8624 20.3473C68.3612 21.3054 70.6645 21.4371 71.1538 21.4012C71.2732 21.3892 71.4044 21.3772 71.5119 21.3293C71.7625 21.2215 71.9773 20.7784 71.9654 20.515C71.9654 20.515 68.934 20.2156 68.8624 20.3473Z" fill="#68696D"/>
<path d="M73.1948 20C73.1351 20.0119 73.0755 20.0359 73.0397 20.0838C72.9442 20.2036 73.0158 20.5269 73.0874 20.6347C73.3022 20.9341 73.887 20.8503 74.2093 20.8503C74.6389 20.8503 74.985 20.6946 75.3669 20.5389C75.6295 20.4311 75.9278 20.3114 76.1188 20.0958C76.2501 19.9401 76.453 19.4251 76.1546 19.3173C75.9398 19.2455 75.6175 19.6527 75.4624 19.7485C74.9492 20.0958 74.3405 20.0958 73.7557 20.0479C73.6006 20.0359 73.3619 19.964 73.1948 20Z" fill="#68696D"/>
<path d="M2.50643 40.2275L0.716249 44.1317V56.9461C0.716249 56.9461 -0.131105 60.8982 1.61134 61.497C3.35379 62.0958 8.31856 63.2455 8.31856 63.2455L50.7459 68L61.1409 69.1617L67.2156 68.7066L108.736 64.0239L121.446 62.2874C121.446 62.2874 123.272 60.491 123.272 59.0778C123.272 57.6647 123.272 47.3653 123.272 47.3653L122.938 44.0958L121.303 39.5808L2.50643 40.2275Z" fill="white"/>
<path d="M57.4293 40.4791H3.12703C2.63771 40.4791 2.23193 40.0719 2.23193 39.5809C2.23193 39.0898 2.63771 38.6826 3.12703 38.6826H57.4293C57.9186 38.6826 58.3243 39.0898 58.3243 39.5809C58.3243 40.0719 57.9186 40.4791 57.4293 40.4791Z" fill="#696A6F"/>
<path d="M120.563 40.4791H66.2608C65.7715 40.4791 65.3657 40.0719 65.3657 39.5809C65.3657 39.0898 65.7715 38.6826 66.2608 38.6826H120.563C121.052 38.6826 121.458 39.0898 121.458 39.5809C121.458 40.0719 121.052 40.4791 120.563 40.4791Z" fill="#696A6F"/>
<path d="M116.457 60.0599H7.42329C5.38248 60.0599 3.69971 58.3832 3.69971 56.3234V48.5868C3.69971 46.5389 5.37054 44.8503 7.42329 44.8503H116.457C118.498 44.8503 120.181 46.527 120.181 48.5868V56.3234C120.181 58.3832 118.51 60.0599 116.457 60.0599Z" fill="#DF7F1B"/>
<path d="M62.1551 70L62.0716 69.988L4.39192 63.521C1.9692 63.509 0 61.5209 0 59.0778V46.3114C0 43.8563 1.99307 41.8563 4.43965 41.8563H119.56C122.007 41.8563 124 43.8563 124 46.3114V59.0778C124 61.5209 122.031 63.509 119.608 63.5329L62.1551 70ZM4.43965 43.2934C2.78075 43.2934 1.43215 44.6467 1.43215 46.3114V59.0778C1.43215 60.7425 2.78075 62.0958 4.43965 62.0958H4.5232L62.1551 68.5509L119.525 62.0838H119.56C121.219 62.0838 122.568 60.7305 122.568 59.0659V46.3114C122.568 44.6467 121.219 43.2934 119.56 43.2934H4.43965Z" fill="#68696D"/>
<path d="M61.8924 65.509C60.1977 65.509 12.3998 60.491 6.95766 59.9162C6.20578 59.8324 5.6568 59.1617 5.74034 58.4072C5.82388 57.6527 6.49221 57.1018 7.24409 57.1857C28.3921 59.4132 60.3528 62.7306 61.8924 62.7665C63.4319 62.7306 95.1779 59.4132 116.183 57.1857C116.935 57.1018 117.615 57.6527 117.686 58.4072C117.77 59.1617 117.221 59.8443 116.469 59.9162C111.075 60.491 63.5871 65.509 61.8924 65.509Z" fill="#DF7F1B"/>
<path d="M11.3379 55.9281V49.2216H12.5313V54.8383H17.0665V55.9281H11.3379Z" fill="white"/>
<path d="M19.1074 55.9281V49.2216H20.3009V55.9281H19.1074Z" fill="white"/>
<path d="M22.6875 54.5629V50.6108C22.6875 50.1198 22.7949 49.7605 23.0097 49.5569C23.2246 49.3413 23.5707 49.2336 24.06 49.2336H28.0342C28.5235 49.2336 28.8815 49.3413 29.0844 49.5569C29.2992 49.7725 29.4067 50.1198 29.4067 50.6108V51.3054H28.2132V50.3234H23.881V54.8503H28.2132V53.7725H29.4067V54.5629C29.4067 55.0539 29.2992 55.4132 29.0844 55.6168C28.8696 55.8324 28.5235 55.9401 28.0342 55.9401H24.06C23.5707 55.9401 23.2126 55.8324 23.0097 55.6168C22.7949 55.3892 22.6875 55.0419 22.6875 54.5629Z" fill="white"/>
<path d="M31.6504 55.9281V49.2216H38.2144V50.3114L32.8438 50.2994V51.976H36.102V53.0659H32.8438V54.8383H38.2144V55.9281H31.6504Z" fill="white"/>
<path d="M46.3777 55.9281V50.3114H43.6924V49.2216H50.2564V50.3114H47.5711V55.9281H46.3777Z" fill="white"/>
<path d="M57.5602 55.9281L55.4717 53.1856H53.2638V55.9281H52.0703V49.2216H57.3573C57.8466 49.2216 58.2047 49.3293 58.4076 49.5449C58.6224 49.7605 58.7298 50.1078 58.7298 50.5988V51.8084C58.7298 52.2994 58.6224 52.6587 58.4076 52.8623C58.1927 53.0778 57.8466 53.1856 57.3573 53.1856H56.868L59.0043 55.9281H57.5602ZM56.9873 52.0958C57.1902 52.0958 57.3215 52.0479 57.417 51.9641C57.5005 51.8802 57.5483 51.7365 57.5483 51.5329V50.8623C57.5483 50.6587 57.5005 50.5269 57.417 50.4311C57.3335 50.3473 57.1902 50.2994 56.9873 50.2994H53.2638V52.0958H56.9873Z" fill="white"/>
<path d="M62.3822 55.9281C61.8929 55.9281 61.5349 55.8204 61.332 55.6048C61.1172 55.3892 61.0098 55.0419 61.0098 54.5509V50.5988C61.0098 50.1078 61.1172 49.7485 61.332 49.5449C61.5468 49.3293 61.8929 49.2216 62.3822 49.2216H66.9651C67.4544 49.2216 67.8125 49.3293 68.0153 49.5449C68.2302 49.7605 68.3376 50.1078 68.3376 50.5988V54.5509C68.3376 55.0419 68.2302 55.4012 68.0153 55.6048C67.8005 55.8204 67.4544 55.9281 66.9651 55.9281H62.3822ZM67.1441 54.8503V50.2994H62.2032V54.8503H67.1441Z" fill="white"/>
<path d="M72.0014 55.9281C71.5121 55.9281 71.154 55.8204 70.9511 55.6048C70.7363 55.3892 70.6289 55.0419 70.6289 54.5509V50.5988C70.6289 50.1078 70.7363 49.7485 70.9511 49.5449C71.166 49.3293 71.5121 49.2216 72.0014 49.2216H76.5842C77.0736 49.2216 77.4316 49.3293 77.6345 49.5449C77.8493 49.7605 77.9567 50.1078 77.9567 50.5988V54.5509C77.9567 55.0419 77.8493 55.4012 77.6345 55.6048C77.4197 55.8204 77.0736 55.9281 76.5842 55.9281H72.0014ZM76.7752 54.8503V50.2994H71.8343V54.8503H76.7752Z" fill="white"/>
<path d="M80.2598 55.9281V49.2216H85.7377C86.227 49.2216 86.5851 49.3293 86.788 49.5449C87.0028 49.7605 87.1102 50.1078 87.1102 50.5988V51.8084C87.1102 52.2994 87.0028 52.6587 86.788 52.8623C86.5732 53.0778 86.227 53.1856 85.7377 53.1856H81.4532V55.9281H80.2598ZM85.3678 52.0958C85.5706 52.0958 85.7019 52.0479 85.7974 51.9641C85.8929 51.8802 85.9287 51.7365 85.9287 51.5329V50.8623C85.9287 50.6587 85.8809 50.5269 85.7974 50.4311C85.7139 50.3353 85.5706 50.2994 85.3678 50.2994H81.4532V52.0958H85.3678Z" fill="white"/>
<path d="M89.3062 55.9281V49.2216H95.8701V50.3114L90.4996 50.2994V51.976H93.7577V53.0659H90.4996V54.8383H95.8701V55.9281H89.3062Z" fill="white"/>
<path d="M103.508 55.9281L101.42 53.1856H99.212V55.9281H98.0186V49.2216H103.306C103.795 49.2216 104.153 49.3293 104.356 49.5449C104.571 49.7605 104.678 50.1078 104.678 50.5988V51.8084C104.678 52.2994 104.571 52.6587 104.356 52.8623C104.141 53.0778 103.795 53.1856 103.306 53.1856H102.816L104.953 55.9281H103.508ZM102.936 52.0958C103.138 52.0958 103.27 52.0479 103.365 51.9641C103.449 51.8802 103.497 51.7365 103.497 51.5329V50.8623C103.497 50.6587 103.449 50.5269 103.365 50.4311C103.282 50.3473 103.138 50.2994 102.936 50.2994H99.212V52.0958H102.936Z" fill="white"/>
<path d="M112.137 51.0419V50.3114H108.151V51.509C108.151 51.6766 108.187 51.7964 108.258 51.8683C108.33 51.9401 108.449 51.976 108.616 51.976H112.161C112.65 51.976 113.008 52.0838 113.211 52.2994C113.426 52.515 113.533 52.8623 113.533 53.3533V54.5509C113.533 55.0419 113.426 55.4012 113.211 55.6048C112.996 55.8204 112.65 55.9281 112.161 55.9281H108.342C107.853 55.9281 107.495 55.8204 107.292 55.6048C107.077 55.3892 106.969 55.0419 106.969 54.5509V54H108.163V54.8383H112.34V53.521C112.34 53.3533 112.304 53.2335 112.233 53.1617C112.161 53.0898 112.042 53.0539 111.875 53.0539H108.33C107.841 53.0539 107.483 52.9461 107.28 52.7305C107.065 52.515 106.958 52.1677 106.958 51.6766V50.5988C106.958 50.1078 107.065 49.7485 107.28 49.5449C107.495 49.3293 107.841 49.2216 108.33 49.2216H111.958C112.447 49.2216 112.805 49.3293 113.008 49.5449C113.223 49.7605 113.331 50.1078 113.331 50.5988V51.0419H112.137Z" fill="white"/>
<path d="M6.05078 59.7964C6.05078 59.7964 6.50429 60.0599 8.65251 60.4192C10.8007 60.7784 61.8925 65.509 61.8925 65.509L57.4648 63.9162L28.0223 60.7186L6.62364 57.7006L6.05078 59.7964Z" fill="#DF7F1B"/>
<path d="M4.42771 58.5389C4.42771 58.5389 5.08412 59.7006 6.86236 60.0599C8.64061 60.4192 5.89567 61.3413 5.89567 61.3413L3.69971 60.4551L4.42771 58.5389Z" fill="white"/>
<path d="M117.161 59.988C117.161 59.988 114.93 60.2635 113.342 60.4431C111.755 60.6228 78.5532 63.8563 78.5532 63.8563L104.069 59.1617H116.338L117.161 59.988Z" fill="#DF7F1B"/>
</svg>
