<svg width="75" height="42" viewBox="0 0 75 42" fill="none" xmlns="http://www.w3.org/2000/svg">
<path d="M37.5215 30.4384C45.7859 30.4384 52.4854 23.7693 52.4854 15.5425C52.4854 7.31581 45.7859 0.646729 37.5215 0.646729C29.2572 0.646729 22.5576 7.31581 22.5576 15.5425C22.5576 23.7693 29.2572 30.4384 37.5215 30.4384Z" fill="white"/>
<path d="M37.5214 31.0778C33.3491 31.0778 29.4295 29.4611 26.4843 26.5293C23.5392 23.5976 21.915 19.6958 21.915 15.5425C21.915 11.3892 23.532 7.48743 26.4771 4.5485C29.4295 1.61677 33.3491 0 37.5214 0C41.6937 0 45.6133 1.61677 48.5584 4.5485C51.5036 7.48024 53.1277 11.382 53.1277 15.5353C53.1277 19.6886 51.5036 23.5904 48.5584 26.5222C45.6061 29.4611 41.6864 31.0778 37.5214 31.0778ZM37.5214 1.29341C29.6316 1.29341 23.2071 7.68144 23.2071 15.5425C23.2071 23.4036 29.6244 29.7916 37.5214 29.7916C45.4184 29.7916 51.8284 23.3964 51.8284 15.5425C51.8284 7.68862 45.4112 1.29341 37.5214 1.29341Z" fill="black"/>
<path d="M27.3076 22.5198L46.3716 6.4671L47.9452 8.47908L29.8341 23.5761H27.7768L27.3076 22.5198Z" fill="black"/>
<path d="M37.5356 29.0659C30.05 29.0659 23.9648 23.0084 23.9648 15.5569C23.9648 8.1054 30.05 2.04791 37.5356 2.04791C45.0211 2.04791 51.1063 8.1054 51.1063 15.5569C51.1063 23.0084 45.0211 29.0659 37.5356 29.0659ZM37.5356 3.34133C30.7719 3.34133 25.2642 8.82396 25.2642 15.5569C25.2642 22.2898 30.7719 27.7725 37.5356 27.7725C44.2993 27.7725 49.807 22.2898 49.807 15.5569C49.807 8.82396 44.2993 3.34133 37.5356 3.34133Z" fill="black"/>
<path d="M37.8681 6.4671L37.666 7.2144H38.6766C38.6766 7.2144 38.3734 6.50303 37.8681 6.4671Z" fill="black"/>
<path d="M39.651 7.47306C39.7882 7.65989 40.0408 7.72456 40.2574 7.67426C40.3729 7.64552 40.474 7.58803 40.5461 7.49462C40.5822 7.44432 40.7194 7.19282 40.5967 7.17127C40.3368 7.12097 40.0769 7.09941 39.8171 7.09222C39.7593 7.09222 39.6943 7.09222 39.6438 7.12815C39.6077 7.1569 39.5861 7.20719 39.5861 7.25031C39.5788 7.33654 39.6077 7.40839 39.651 7.47306Z" fill="black"/>
<path d="M40.9787 6.94854C40.9426 6.99166 40.9282 7.04914 40.9354 7.11381C40.9498 7.23597 41.0509 7.40842 41.1953 7.3725C41.3685 7.33657 41.585 7.30783 41.7438 7.23597C41.8521 7.19286 41.9532 7.09226 41.9604 6.9701C41.9965 6.55334 41.3541 6.76172 41.1519 6.82639C41.0798 6.86232 41.022 6.89824 40.9787 6.94854Z" fill="black"/>
<path d="M42.0835 6.56768C42.0618 6.61798 42.0546 6.66109 42.069 6.69702C42.2351 6.98445 43.5921 6.32337 42.7259 6.00001C42.6248 5.9569 42.1845 6.33774 42.0835 6.56768Z" fill="black"/>
<path d="M37.9261 6.4671L37.9911 7.2144H36.9805C36.9805 7.2144 37.4208 6.50303 37.9261 6.4671Z" fill="black"/>
<path d="M35.9986 7.47306C35.8614 7.65989 35.6088 7.72456 35.3922 7.67426C35.2767 7.64552 35.1757 7.58803 35.1035 7.49462C35.0674 7.44432 34.9302 7.19282 35.053 7.17127C35.3128 7.12097 35.5727 7.09941 35.8325 7.09222C35.8903 7.09222 35.9553 7.09222 36.0058 7.12815C36.0419 7.1569 36.0635 7.20719 36.0635 7.25031C36.0708 7.33654 36.0491 7.40839 35.9986 7.47306Z" fill="black"/>
<path d="M34.6697 6.94854C34.7058 6.99166 34.7202 7.04914 34.713 7.11381C34.6986 7.23597 34.5975 7.40842 34.4532 7.3725C34.2799 7.33657 34.0634 7.30783 33.9045 7.23597C33.7963 7.19286 33.6952 7.09226 33.688 6.9701C33.6519 6.55334 34.2943 6.76172 34.4965 6.82639C34.5686 6.86232 34.6336 6.89824 34.6697 6.94854Z" fill="black"/>
<path d="M33.5727 6.56768C33.5944 6.61798 33.6016 6.66109 33.5871 6.69702C33.4211 6.98445 32.064 6.32337 32.9303 6.00001C33.0313 5.9569 33.4644 6.33774 33.5727 6.56768Z" fill="black"/>
<path d="M39.2683 7.68146C39.0517 7.58804 38.5753 7.68864 38.3371 7.68864C38.1638 7.68864 37.9906 7.68864 37.8246 7.69583C37.5503 7.69583 37.2687 7.68864 36.9944 7.68864C36.8068 7.68864 36.3303 7.54493 36.2509 7.79643C36.2221 7.88265 36.2437 7.96888 36.2726 8.04792C36.4025 8.41439 36.684 8.62277 36.9656 8.86708C37.0522 8.94612 37.3554 9.27666 37.4853 9.27666H37.6297V7.9617L37.8246 7.95451L38.0195 7.9617V9.27666H38.1638C38.3732 9.27666 38.9001 8.73056 39.0445 8.57247C39.2249 8.38565 39.6147 7.82517 39.2683 7.68146Z" fill="black"/>
<path d="M39.5283 10.0742C39.3262 9.82993 38.9941 9.57843 38.6909 9.59999C38.5177 9.61436 38.4022 9.75807 38.2723 9.88023C38.1351 10.0096 37.9835 10.0742 37.8247 10.1317C37.6659 10.0742 37.5143 10.0096 37.3772 9.88023C37.2472 9.75807 37.139 9.61436 36.9585 9.59999C36.6553 9.57843 36.3233 9.82993 36.1212 10.0742C35.6953 10.5916 35.0239 11.8635 35.5292 12.5605C35.7314 12.8407 36.3594 12.5533 36.6337 12.5748C36.9729 12.5964 37.24 12.7114 37.4855 12.3521C37.6226 12.2156 37.7381 12.1509 37.8247 12.1221C37.9113 12.1509 38.0268 12.2156 38.164 12.3521C38.4094 12.7186 38.6693 12.6036 39.0158 12.5748C39.2901 12.5533 39.9181 12.8479 40.1202 12.5605C40.6255 11.8635 39.9542 10.5916 39.5283 10.0742Z" fill="black"/>
<path d="M37.991 12.9988C37.9333 12.9916 37.8827 12.9916 37.825 12.9988C37.7745 12.9988 37.7167 12.9988 37.659 12.9988V13.006C34.3818 13.0778 34.5045 13.9257 34.5045 13.9257H37.659H37.9838H41.1455C41.1455 13.9257 41.261 13.0778 37.991 12.9988Z" fill="black"/>
<path d="M37.7169 14.4934C33.8406 14.4791 33.4941 15.5353 33.4941 15.5353H37.5509H37.8685H41.9398C41.9398 15.5353 41.5933 14.4862 37.7169 14.4934Z" fill="black"/>
<path d="M41.8016 16.218C41.1014 16.1964 38.6255 16.0958 37.752 16.0527V16.0383C37.752 16.0383 37.6943 16.0383 37.6004 16.0455C37.4994 16.0383 37.4488 16.0383 37.4488 16.0383V16.0527C36.5754 16.0886 34.0923 16.1964 33.3993 16.218C32.5475 16.2467 32.8723 17.5258 32.8723 17.5258H37.4561H37.7665H42.3502C42.3285 17.5258 42.6533 16.2467 41.8016 16.218Z" fill="black"/>
<path d="M41.3398 18.0432H37.6873C37.6656 18.0432 37.644 18.0432 37.6223 18.0503C37.6007 18.0503 37.579 18.0432 37.5573 18.0432H33.9048C33.5727 18.0432 33.3057 18.3449 33.3057 18.7114C33.3057 19.0779 33.5727 19.3797 33.9048 19.3797H37.5573C37.579 19.3797 37.6007 19.3797 37.6223 19.3725C37.644 19.3725 37.6656 19.3797 37.6873 19.3797H41.3398C41.6719 19.3797 41.939 19.0779 41.939 18.7114C41.939 18.3449 41.6647 18.0432 41.3398 18.0432Z" fill="black"/>
<path d="M40.1348 19.897H37.4278H34.7209C34.4322 19.897 34.2012 20.1988 34.2012 20.5652C34.2012 20.9317 34.4394 21.2335 34.7209 21.2335H37.4278H40.1348C40.4235 21.2335 40.6545 20.9317 40.6545 20.5652C40.6545 20.1916 40.4163 19.897 40.1348 19.897Z" fill="black"/>
<path d="M39.4051 21.9593H37.7665H36.9003H35.2617L35.2256 22.0527C35.2256 22.2539 36.5466 23.0228 36.5466 23.0228C36.5466 23.0228 36.727 22.8359 36.8931 22.491C37.0013 22.2683 37.1746 22.1677 37.3406 22.1317C37.5066 22.1677 37.6799 22.2683 37.7881 22.491C37.9542 22.8359 38.1346 23.0228 38.1346 23.0228C38.1346 23.0228 39.4556 22.2467 39.4556 22.0527L39.4051 21.9593Z" fill="black"/>
<path d="M34.7136 9.44193C34.7136 9.44193 34.2516 9.47786 34.5043 9.6575C34.7569 9.83714 34.6414 10.0743 34.9951 10.0886C35.3488 10.103 35.6953 9.87307 35.7097 9.76528C35.7242 9.6575 35.6881 9.49223 35.5221 9.44193C35.3705 9.38445 34.7136 9.44193 34.7136 9.44193Z" fill="black"/>
<path d="M34.3095 9.19042C34.4539 9.90179 32.9308 9.55688 32.6276 9.44191C32.5482 9.41317 32.4688 9.37724 32.4038 9.32694C32.2594 9.21197 32.2017 8.88862 32.2594 8.71617C32.2594 8.70898 34.2878 9.08263 34.3095 9.19042Z" fill="black"/>
<path d="M31.5585 8.47907C31.6018 8.48625 31.6379 8.50063 31.6667 8.53655C31.7317 8.6156 31.6812 8.83117 31.6306 8.91021C31.4863 9.11141 31.0893 9.05392 30.8727 9.05392C30.584 9.05392 30.353 8.94614 30.0859 8.83835C29.9126 8.76649 29.7033 8.68745 29.5806 8.53655C29.494 8.42877 29.3568 8.08386 29.5589 8.012C29.7033 7.9617 29.9199 8.23476 30.0281 8.30661C30.3746 8.53655 30.7861 8.53655 31.1831 8.50781C31.2842 8.50781 31.443 8.4647 31.5585 8.47907Z" fill="black"/>
<path d="M34.497 10.9221C34.6414 11.6335 33.1183 11.2886 32.8151 11.1736C32.7357 11.1449 32.6563 11.109 32.5913 11.0587C32.4469 10.9437 32.3892 10.6203 32.4469 10.4479C32.4469 10.4479 34.4753 10.8215 34.497 10.9221Z" fill="black"/>
<path d="M31.7538 10.218C31.7971 10.2251 31.8332 10.2395 31.862 10.2754C31.927 10.3545 31.8765 10.5701 31.8259 10.6491C31.6816 10.8503 31.2846 10.7928 31.068 10.7928C30.7793 10.7928 30.5483 10.685 30.2812 10.5772C30.1079 10.5054 29.8986 10.4263 29.7759 10.2754C29.6893 10.1677 29.5521 9.82275 29.7542 9.75089C29.8986 9.70059 30.1152 9.97365 30.2234 10.0455C30.5699 10.2754 30.9814 10.2754 31.3784 10.2467C31.4722 10.2395 31.6383 10.1964 31.7538 10.218Z" fill="black"/>
<path d="M34.1935 12.1796C34.4967 12.7545 33.1035 12.8335 32.8076 12.812C32.7354 12.8048 32.656 12.7976 32.591 12.7688C32.4394 12.7042 32.3095 12.4383 32.3167 12.2802C32.3095 12.273 34.1502 12.0934 34.1935 12.1796Z" fill="black"/>
<path d="M31.573 11.9641C31.6091 11.9713 31.6452 11.9856 31.6669 12.0144C31.7246 12.0862 31.6813 12.2803 31.638 12.3449C31.5081 12.5246 31.1544 12.4743 30.9595 12.4743C30.6996 12.4743 30.4903 12.3809 30.2593 12.2874C30.1005 12.2228 29.92 12.1509 29.8045 12.0216C29.7251 11.9282 29.6024 11.6192 29.7829 11.5545C29.9128 11.5114 30.1077 11.7557 30.2015 11.8132C30.5119 12.0216 30.8801 12.0216 31.2338 11.9928C31.3204 11.9856 31.4648 11.9497 31.573 11.9641Z" fill="black"/>
<path d="M41.1231 9.47066C41.1231 9.47066 41.585 9.50659 41.3324 9.68623C41.0797 9.86587 41.1952 10.103 40.8415 10.1174C40.4878 10.1389 40.1414 9.90179 40.1269 9.79401C40.1125 9.68623 40.1486 9.52096 40.3146 9.47066C40.4806 9.42036 41.1231 9.47066 41.1231 9.47066Z" fill="black"/>
<path d="M41.535 9.21913C41.3906 9.9305 42.9138 9.58559 43.217 9.47062C43.2964 9.44188 43.3758 9.40595 43.4407 9.35565C43.5851 9.24068 43.6428 8.91733 43.5851 8.74487C43.5851 8.74487 41.5567 9.11853 41.535 9.21913Z" fill="black"/>
<path d="M44.2777 8.51495C44.2344 8.52214 44.1983 8.53651 44.1694 8.57244C44.1045 8.65148 44.155 8.86705 44.2055 8.94609C44.3499 9.14729 44.7469 9.0898 44.9635 9.0898C45.2522 9.0898 45.4832 8.98202 45.7503 8.87424C45.9235 8.80238 46.1329 8.72334 46.2556 8.57244C46.3422 8.46466 46.4793 8.11975 46.2772 8.04789C46.1329 7.99759 45.9163 8.27064 45.808 8.3425C45.4615 8.57244 45.0501 8.57244 44.6531 8.5437C44.552 8.53651 44.3932 8.4934 44.2777 8.51495Z" fill="black"/>
<path d="M41.3475 10.9581C41.2031 11.6695 42.7263 11.3246 43.0294 11.2096C43.1089 11.1809 43.1883 11.1449 43.2532 11.0946C43.3976 10.9797 43.4554 10.6563 43.3976 10.4839C43.3904 10.4767 41.3692 10.8503 41.3475 10.9581Z" fill="black"/>
<path d="M44.0902 10.2467C44.0469 10.2539 44.0108 10.2683 43.9819 10.3042C43.917 10.3832 43.9675 10.5988 44.018 10.6778C44.1624 10.879 44.5594 10.8216 44.776 10.8216C45.0647 10.8216 45.2957 10.7138 45.5628 10.606C45.736 10.5341 45.9454 10.4551 46.0681 10.3042C46.1547 10.1964 46.2918 9.8515 46.0897 9.77964C45.9454 9.72934 45.7288 10.0024 45.6205 10.0742C45.274 10.3042 44.8626 10.3042 44.4656 10.2754C44.3645 10.2754 44.2057 10.2323 44.0902 10.2467Z" fill="black"/>
<path d="M41.6503 12.2084C41.3471 12.7832 42.7403 12.8623 43.0362 12.8407C43.1084 12.8335 43.1878 12.8264 43.2528 12.7976C43.4044 12.7329 43.5343 12.4671 43.5271 12.309C43.5271 12.309 41.6936 12.1293 41.6503 12.2084Z" fill="black"/>
<path d="M44.2711 12C44.235 12.0072 44.1989 12.0215 44.1772 12.0503C44.1195 12.1221 44.1628 12.3161 44.2061 12.3808C44.3361 12.5605 44.6898 12.5102 44.8847 12.5102C45.1445 12.5102 45.3539 12.4167 45.5849 12.3233C45.7437 12.2587 45.9241 12.1868 46.0396 12.0575C46.119 11.9641 46.2417 11.6551 46.0613 11.5904C45.9313 11.5473 45.7364 11.7916 45.6426 11.8491C45.3322 12.0575 44.9641 12.0575 44.6104 12.0287C44.5165 12.0215 44.3721 11.9784 44.2711 12Z" fill="black"/>
<path d="M1.51596 24.1366L0.433187 26.4791V34.1677C0.433187 34.1677 -0.0793248 36.539 0.974573 36.8982C2.02847 37.2575 5.03136 37.9473 5.03136 37.9473L30.6931 40.8L36.9804 41.497L40.6546 41.224L65.7677 38.4144L73.4553 37.3725C73.4553 37.3725 74.5598 36.2946 74.5598 35.4467C74.5598 34.5988 74.5598 28.4192 74.5598 28.4192L74.3577 26.4575L73.3687 23.7485L1.51596 24.1366Z" fill="white"/>
<path d="M34.7351 24.2874H1.891C1.59504 24.2874 1.34961 24.0431 1.34961 23.7485C1.34961 23.4539 1.59504 23.2096 1.891 23.2096H34.7351C35.031 23.2096 35.2765 23.4539 35.2765 23.7485C35.2765 24.0431 35.031 24.2874 34.7351 24.2874Z" fill="black"/>
<path d="M72.9216 24.2874H40.0775C39.7816 24.2874 39.5361 24.0431 39.5361 23.7485C39.5361 23.4539 39.7816 23.2096 40.0775 23.2096H72.9216C73.2176 23.2096 73.463 23.4539 73.463 23.7485C73.463 24.0431 73.2176 24.2874 72.9216 24.2874Z" fill="black"/>
<path d="M70.4375 36.036H4.48947C3.25511 36.036 2.2373 35.03 2.2373 33.794V29.1521C2.2373 27.9234 3.24789 26.9102 4.48947 26.9102H70.4375C71.6719 26.9102 72.6897 27.9162 72.6897 29.1521V33.794C72.6897 35.03 71.6791 36.036 70.4375 36.036Z" fill="black"/>
<path d="M37.5938 42L37.5433 41.9928L2.6564 38.1126C1.19105 38.1054 0 36.9126 0 35.4467V27.7868C0 26.3138 1.20549 25.1138 2.68527 25.1138H72.3147C73.7945 25.1138 75 26.3138 75 27.7868V35.4467C75 36.9126 73.809 38.1054 72.3436 38.1198L37.5938 42ZM2.68527 25.976C1.68191 25.976 0.866217 26.788 0.866217 27.7868V35.4467C0.866217 36.4455 1.68191 37.2575 2.68527 37.2575H2.7358L37.5938 41.1305L72.2931 37.2503H72.3147C73.3181 37.2503 74.1338 36.4383 74.1338 35.4395V27.7868C74.1338 26.788 73.3181 25.976 72.3147 25.976H2.68527Z" fill="black"/>
<path d="M37.4348 39.3054C36.4098 39.3054 7.49979 36.2946 4.20816 35.9497C3.7534 35.8994 3.42135 35.497 3.47188 35.0443C3.52241 34.5916 3.92664 34.2611 4.38141 34.3114C17.1726 35.6479 36.5036 37.6383 37.4348 37.6599C38.366 37.6383 57.5672 35.6479 70.2717 34.3114C70.7264 34.2611 71.1379 34.5916 71.1812 35.0443C71.2317 35.497 70.8997 35.9066 70.4449 35.9497C67.1822 36.2946 38.4598 39.3054 37.4348 39.3054Z" fill="black"/>
<path d="M6.85742 33.5569V29.533H7.57927V32.903H10.3223V33.5569H6.85742Z" fill="white"/>
<path d="M11.5566 33.5569V29.533H12.2785V33.5569H11.5566Z" fill="white"/>
<path d="M13.7227 32.7378V30.3665C13.7227 30.0719 13.7876 29.8563 13.9176 29.7342C14.0475 29.6048 14.2568 29.5402 14.5528 29.5402H16.9565C17.2525 29.5402 17.469 29.6048 17.5918 29.7342C17.7217 29.8635 17.7867 30.0719 17.7867 30.3665V30.7833H17.0648V30.1941H14.4445V32.9102H17.0648V32.2635H17.7867V32.7378C17.7867 33.0324 17.7217 33.2479 17.5918 33.3701C17.4618 33.4994 17.2525 33.5641 16.9565 33.5641H14.5528C14.2568 33.5641 14.0403 33.4994 13.9176 33.3701C13.7876 33.2336 13.7227 33.0252 13.7227 32.7378Z" fill="white"/>
<path d="M19.1436 33.5569V29.533H23.1137V30.1869L19.8654 30.1797V31.1857H21.836V31.8395H19.8654V32.903H23.1137V33.5569H19.1436Z" fill="white"/>
<path d="M28.0509 33.5569V30.1869H26.4268V29.533H30.3969V30.1869H28.7728V33.5569H28.0509Z" fill="white"/>
<path d="M34.8146 33.5569L33.5514 31.9114H32.216V33.5569H31.4941V29.533H34.6919C34.9879 29.533 35.2044 29.5976 35.3271 29.727C35.4571 29.8563 35.522 30.0647 35.522 30.3593V31.0851C35.522 31.3797 35.4571 31.5952 35.3271 31.7174C35.1972 31.8467 34.9879 31.9114 34.6919 31.9114H34.396L35.6881 33.5569H34.8146ZM34.4682 31.2575C34.5909 31.2575 34.6703 31.2288 34.728 31.1785C34.7785 31.1282 34.8074 31.0419 34.8074 30.9198V30.5174C34.8074 30.3952 34.7785 30.3162 34.728 30.2587C34.6775 30.2084 34.5909 30.1797 34.4682 30.1797H32.216V31.2575H34.4682Z" fill="white"/>
<path d="M37.7305 33.5569C37.4346 33.5569 37.218 33.4922 37.0953 33.3629C36.9654 33.2336 36.9004 33.0252 36.9004 32.7306V30.3593C36.9004 30.0647 36.9654 29.8491 37.0953 29.727C37.2252 29.5976 37.4346 29.533 37.7305 29.533H40.5024C40.7984 29.533 41.0149 29.5976 41.1376 29.727C41.2676 29.8563 41.3325 30.0647 41.3325 30.3593V32.7306C41.3325 33.0252 41.2676 33.2407 41.1376 33.3629C41.0077 33.4922 40.7984 33.5569 40.5024 33.5569H37.7305ZM40.6107 32.9102V30.1797H37.6222V32.9102H40.6107Z" fill="white"/>
<path d="M43.5489 33.5569C43.2529 33.5569 43.0364 33.4922 42.9136 33.3629C42.7837 33.2336 42.7188 33.0252 42.7188 32.7306V30.3593C42.7188 30.0647 42.7837 29.8491 42.9136 29.727C43.0436 29.5976 43.2529 29.533 43.5489 29.533H46.3208C46.6167 29.533 46.8333 29.5976 46.956 29.727C47.0859 29.8563 47.1509 30.0647 47.1509 30.3593V32.7306C47.1509 33.0252 47.0859 33.2407 46.956 33.3629C46.8261 33.4922 46.6167 33.5569 46.3208 33.5569H43.5489ZM46.4363 32.9102V30.1797H43.4478V32.9102H46.4363Z" fill="white"/>
<path d="M48.5439 33.5569V29.533H51.8572C52.1532 29.533 52.3697 29.5976 52.4925 29.727C52.6224 29.8563 52.6874 30.0647 52.6874 30.3593V31.0851C52.6874 31.3797 52.6224 31.5952 52.4925 31.7174C52.3625 31.8467 52.1532 31.9114 51.8572 31.9114H49.2658V33.5569H48.5439ZM51.6335 31.2575C51.7562 31.2575 51.8356 31.2288 51.8933 31.1785C51.9511 31.1282 51.9727 31.0419 51.9727 30.9198V30.5174C51.9727 30.3952 51.9439 30.3162 51.8933 30.2587C51.8428 30.2012 51.7562 30.1797 51.6335 30.1797H49.2658V31.2575H51.6335Z" fill="white"/>
<path d="M54.0156 33.5569V29.533H57.9858V30.1869L54.7375 30.1797V31.1857H56.7081V31.8395H54.7375V32.903H57.9858V33.5569H54.0156Z" fill="white"/>
<path d="M62.6057 33.5569L61.3424 31.9114H60.007V33.5569H59.2852V29.533H62.4829C62.7789 29.533 62.9955 29.5976 63.1182 29.727C63.2481 29.8563 63.3131 30.0647 63.3131 30.3593V31.0851C63.3131 31.3797 63.2481 31.5952 63.1182 31.7174C62.9882 31.8467 62.7789 31.9114 62.4829 31.9114H62.187L63.4791 33.5569H62.6057ZM62.2592 31.2575C62.3819 31.2575 62.4613 31.2288 62.519 31.1785C62.5696 31.1282 62.5984 31.0419 62.5984 30.9198V30.5174C62.5984 30.3952 62.5696 30.3162 62.519 30.2587C62.4685 30.2084 62.3819 30.1797 62.2592 30.1797H60.007V31.2575H62.2592Z" fill="white"/>
<path d="M67.8252 30.6252V30.1869H65.4142V30.9054C65.4142 31.006 65.4359 31.0779 65.4792 31.121C65.5225 31.1641 65.5947 31.1857 65.6957 31.1857H67.8396C68.1356 31.1857 68.3521 31.2503 68.4749 31.3797C68.6048 31.509 68.6698 31.7174 68.6698 32.012V32.7306C68.6698 33.0252 68.6048 33.2407 68.4749 33.3629C68.3449 33.4922 68.1356 33.5569 67.8396 33.5569H65.5297C65.2338 33.5569 65.0172 33.4922 64.8945 33.3629C64.7646 33.2336 64.6996 33.0252 64.6996 32.7306V32.4H65.4214V32.903H67.9479V32.1126C67.9479 32.012 67.9263 31.9401 67.8829 31.897C67.8396 31.8539 67.7674 31.8324 67.6664 31.8324H65.5225C65.2265 31.8324 65.01 31.7677 64.8873 31.6383C64.7573 31.509 64.6924 31.3006 64.6924 31.006V30.3593C64.6924 30.0647 64.7573 29.8491 64.8873 29.727C65.0172 29.5976 65.2265 29.533 65.5225 29.533H67.7169C68.0129 29.533 68.2294 29.5976 68.3521 29.727C68.4821 29.8563 68.547 30.0647 68.547 30.3593V30.6252H67.8252Z" fill="white"/>
<path d="M3.66016 35.8778C3.66016 35.8778 3.93446 36.0359 5.23378 36.2515C6.53311 36.4671 37.4354 39.3054 37.4354 39.3054L34.7574 38.3497L16.9494 36.4311L4.00664 34.6204L3.66016 35.8778Z" fill="black"/>
<path d="M2.67763 35.1234C2.67763 35.1234 3.07465 35.8204 4.1502 36.0359C5.22576 36.2515 3.56551 36.8048 3.56551 36.8048L2.2373 36.2731L2.67763 35.1234Z" fill="white"/>
<path d="M70.8635 35.9928C70.8635 35.9928 69.5136 36.1581 68.5536 36.2659C67.5935 36.3737 47.5117 38.3138 47.5117 38.3138L62.9448 35.497H70.3654L70.8635 35.9928Z" fill="black"/>
</svg>
