<svg width="14" height="14" viewBox="0 0 14 14" fill="none" xmlns="http://www.w3.org/2000/svg">
<g clip-path="url(#clip0)">
<path d="M7.19016 0C3.35242 0.000583333 1.3125 2.45933 1.3125 5.14033C1.3125 6.38341 2.00725 7.9345 3.11967 8.42625C3.437 8.56916 3.395 8.39475 3.668 7.35058C3.68958 7.26366 3.6785 7.18841 3.6085 7.10733C2.01833 5.26808 3.29817 1.48692 6.96325 1.48692C12.2675 1.48692 11.2764 8.82641 7.88608 8.82641C7.01225 8.82641 6.36125 8.14041 6.56716 7.29166C6.81683 6.28075 7.30566 5.194 7.30566 4.46542C7.30566 2.62908 4.56983 2.9015 4.56983 5.33458C4.56983 6.0865 4.83583 6.594 4.83583 6.594C4.83583 6.594 3.95558 10.15 3.79225 10.8144C3.51575 11.9391 3.82958 13.7597 3.857 13.9166C3.87392 14.0029 3.97075 14.0303 4.025 13.9592C4.11192 13.8454 5.17592 12.3276 5.474 11.2303C5.5825 10.8307 6.02758 9.20908 6.02758 9.20908C6.321 9.73875 7.16683 10.1821 8.06808 10.1821C10.7491 10.1821 12.6869 7.82541 12.6869 4.90116C12.6776 2.09767 10.2783 0 7.19016 0V0Z" fill="#2A2D33"/>
</g>
<defs>
<clipPath id="clip0">
<rect width="14" height="14" fill="white"/>
</clipPath>
</defs>
</svg>
