<svg width="22px" height="22px" viewBox="0 0 22 22" fill="none" xmlns="http://www.w3.org/2000/svg">
<path d="M21.8097 20.878L16.4622 15.5317C17.8967 13.8829 18.7651 11.7317 18.7651 9.38049C18.7651 4.20488 14.5544 0 9.38257 0C4.20581 0 0 4.20976 0 9.38049C0 14.5512 4.21069 18.761 9.38257 18.761C11.7343 18.761 13.886 17.8927 15.5352 16.4585L20.8827 21.8049C21.0095 21.9317 21.1803 22 21.3462 22C21.5121 22 21.6829 21.9366 21.8097 21.8049C22.0634 21.5512 22.0634 21.1317 21.8097 20.878ZM1.31249 9.38049C1.31249 4.93171 4.9328 1.31707 9.37769 1.31707C13.8275 1.31707 17.4429 4.93659 17.4429 9.38049C17.4429 13.8244 13.8275 17.4488 9.37769 17.4488C4.9328 17.4488 1.31249 13.8293 1.31249 9.38049Z" fill="white"/>
</svg>
