<svg width="18" height="18" viewBox="0 0 18 18" fill="none" xmlns="http://www.w3.org/2000/svg">
<path d="M17.9529 6.51761C17.8344 6.15313 17.5111 5.89509 17.1302 5.86062L11.9341 5.38888L9.88058 0.581186C9.72897 0.22797 9.38399 0 9.00001 0C8.61604 0 8.27092 0.22797 8.12027 0.581186L6.06676 5.38888L0.869867 5.86062C0.48891 5.89577 0.166319 6.15382 0.0471155 6.51761C-0.0714014 6.88209 0.0380516 7.28186 0.326173 7.53455L4.25398 10.9787L3.09587 16.0794C3.01114 16.4545 3.15671 16.8423 3.4679 17.0673C3.63517 17.1888 3.83169 17.2495 4.0289 17.2495C4.19836 17.2495 4.36797 17.2045 4.51944 17.1138L9.00001 14.4348L13.4798 17.1138C13.8084 17.3102 14.2216 17.2922 14.5321 17.0673C14.8433 16.8423 14.9889 16.4545 14.9042 16.0794L13.746 10.9787L17.6739 7.53455C17.9618 7.28186 18.0714 6.88291 17.9529 6.51761Z" fill="#FBD267"/>
</svg>
