<svg width="118" height="18" viewBox="0 0 118 18" fill="none" xmlns="http://www.w3.org/2000/svg">
<path d="M17.9529 6.51761C17.8344 6.15313 17.5111 5.89509 17.1302 5.86062L11.9341 5.38888L9.88058 0.581186C9.72897 0.22797 9.38399 0 9.00001 0C8.61604 0 8.27092 0.22797 8.12027 0.581186L6.06676 5.38888L0.869867 5.86062C0.48891 5.89577 0.166319 6.15382 0.0471155 6.51761C-0.0714014 6.88209 0.0380516 7.28186 0.326173 7.53455L4.25398 10.9787L3.09587 16.0794C3.01114 16.4545 3.15671 16.8423 3.4679 17.0673C3.63517 17.1888 3.83169 17.2495 4.0289 17.2495C4.19836 17.2495 4.36797 17.2045 4.51944 17.1138L9.00001 14.4348L13.4798 17.1138C13.8084 17.3102 14.2216 17.2922 14.5321 17.0673C14.8433 16.8423 14.9889 16.4545 14.9042 16.0794L13.746 10.9787L17.6739 7.53455C17.9618 7.28186 18.0714 6.88291 17.9529 6.51761Z" fill="#FBD267"/>
<path d="M42.9529 6.51761C42.8344 6.15313 42.5111 5.89509 42.1302 5.86062L36.9341 5.38888L34.8806 0.581186C34.729 0.22797 34.384 0 34 0C33.616 0 33.2709 0.22797 33.1203 0.581186L31.0668 5.38888L25.8699 5.86062C25.4889 5.89577 25.1663 6.15382 25.0471 6.51761C24.9286 6.88209 25.0381 7.28186 25.3262 7.53455L29.254 10.9787L28.0959 16.0794C28.0111 16.4545 28.1567 16.8423 28.4679 17.0673C28.6352 17.1888 28.8317 17.2495 29.0289 17.2495C29.1984 17.2495 29.368 17.2045 29.5194 17.1138L34 14.4348L38.4798 17.1138C38.8084 17.3102 39.2216 17.2922 39.5321 17.0673C39.8433 16.8423 39.9889 16.4545 39.9042 16.0794L38.746 10.9787L42.6739 7.53455C42.9618 7.28186 43.0714 6.88291 42.9529 6.51761Z" fill="#FBD267"/>
<path d="M67.9529 6.51761C67.8344 6.15313 67.5111 5.89509 67.1302 5.86062L61.9341 5.38888L59.8806 0.581186C59.729 0.22797 59.384 0 59 0C58.616 0 58.2709 0.22797 58.1203 0.581186L56.0668 5.38888L50.8699 5.86062C50.4889 5.89577 50.1663 6.15382 50.0471 6.51761C49.9286 6.88209 50.0381 7.28186 50.3262 7.53455L54.254 10.9787L53.0959 16.0794C53.0111 16.4545 53.1567 16.8423 53.4679 17.0673C53.6352 17.1888 53.8317 17.2495 54.0289 17.2495C54.1984 17.2495 54.368 17.2045 54.5194 17.1138L59 14.4348L63.4798 17.1138C63.8084 17.3102 64.2216 17.2922 64.5321 17.0673C64.8433 16.8423 64.9889 16.4545 64.9042 16.0794L63.746 10.9787L67.6739 7.53455C67.9618 7.28186 68.0714 6.88291 67.9529 6.51761Z" fill="#FBD267"/>
<path d="M92.9529 6.51761C92.8344 6.15313 92.5111 5.89509 92.1302 5.86062L86.9341 5.38888L84.8806 0.581186C84.729 0.22797 84.384 0 84 0C83.616 0 83.2709 0.22797 83.1203 0.581186L81.0668 5.38888L75.8699 5.86062C75.4889 5.89577 75.1663 6.15382 75.0471 6.51761C74.9286 6.88209 75.0381 7.28186 75.3262 7.53455L79.254 10.9787L78.0959 16.0794C78.0111 16.4545 78.1567 16.8423 78.4679 17.0673C78.6352 17.1888 78.8317 17.2495 79.0289 17.2495C79.1984 17.2495 79.368 17.2045 79.5194 17.1138L84 14.4348L88.4798 17.1138C88.8084 17.3102 89.2216 17.2922 89.5321 17.0673C89.8433 16.8423 89.9889 16.4545 89.9042 16.0794L88.746 10.9787L92.6739 7.53455C92.9618 7.28186 93.0714 6.88291 92.9529 6.51761Z" fill="#FBD267"/>
<path d="M117.953 6.51761C117.834 6.15313 117.511 5.89509 117.13 5.86062L111.934 5.38888L109.881 0.581186C109.729 0.22797 109.384 0 109 0C108.616 0 108.271 0.22797 108.12 0.581186L106.067 5.38888L100.87 5.86062C100.489 5.89577 100.166 6.15382 100.047 6.51761C99.9286 6.88209 100.038 7.28186 100.326 7.53455L104.254 10.9787L103.096 16.0794C103.011 16.4545 103.157 16.8423 103.468 17.0673C103.635 17.1888 103.832 17.2495 104.029 17.2495C104.198 17.2495 104.368 17.2045 104.519 17.1138L109 14.4348L113.48 17.1138C113.808 17.3102 114.222 17.2922 114.532 17.0673C114.843 16.8423 114.989 16.4545 114.904 16.0794L113.746 10.9787L117.674 7.53455C117.962 7.28186 118.071 6.88291 117.953 6.51761Z" fill="#FBD267"/>
</svg>
