<svg width="17" height="18" viewBox="0 0 17 18" fill="none" xmlns="http://www.w3.org/2000/svg">
<path d="M15.6359 11.8382C14.5951 11.8382 13.5732 11.6755 12.6047 11.3554C12.1302 11.1936 11.5469 11.3421 11.2572 11.6395L9.34575 13.0825C7.12898 11.8992 5.76349 10.5341 4.59633 8.33398L5.99684 6.4723C6.3607 6.10893 6.49121 5.57812 6.33485 5.08008C6.01344 4.10656 5.85017 3.0851 5.85017 2.04385C5.85021 1.29164 5.23826 0.679688 4.4861 0.679688H1.36412C0.611956 0.679688 0 1.29164 0 2.0438C0 10.6655 7.01418 17.6797 15.6359 17.6797C16.3881 17.6797 17 17.0677 17 16.3156V13.2023C17 12.4502 16.388 11.8382 15.6359 11.8382Z" fill="#2A2D33"/>
</svg>
