<svg width="44" height="44" viewBox="0 0 44 44" fill="none" xmlns="http://www.w3.org/2000/svg">
<g clip-path="url(#clip0)">
<path d="M27.6937 34.5498C26.3516 33.2078 25.2438 31.6802 24.4077 30.0188C24.0046 29.1982 23.0609 28.6375 22.3039 28.6476L17.9786 28.0435C16.646 23.6593 16.6454 20.1384 17.9774 15.7966L22.1837 15.2019C23.1215 15.2026 23.9742 14.6864 24.4148 13.8426C25.2556 12.1729 26.3622 10.6452 27.7048 9.30262C28.6748 8.33276 28.6748 6.75461 27.7049 5.78475L23.6793 1.75918C22.7095 0.789318 21.1313 0.789318 20.1615 1.75918C9.04434 12.8763 9.0444 30.9649 20.1615 42.082C21.1314 43.0518 22.7095 43.0518 23.6794 42.082L27.6937 38.0677C28.6635 37.0978 28.6635 35.5197 27.6937 34.5498Z" fill="black"/>
</g>
<defs>
<clipPath id="clip0">
<rect x="21.9204" y="0.000244141" width="31" height="31" transform="rotate(45 21.9204 0.000244141)" fill="white"/>
</clipPath>
</defs>
</svg>
