<svg width="46" height="46" viewBox="0 0 46 46" fill="none" xmlns="http://www.w3.org/2000/svg">
<g clip-path="url(#clip0)">
<path d="M45.7192 44.3641L31.7228 30.3676C34.63 27.1398 36.4167 22.884 36.4167 18.2083C36.4166 8.16832 28.2484 0 18.2084 0C8.16832 0 0 8.16832 0 18.2084C0 28.2484 8.16832 36.4167 18.2084 36.4167C22.8841 36.4167 27.1398 34.63 30.3677 31.7228L44.3641 45.7192C44.5513 45.9064 44.7965 46 45.0417 46C45.2869 46 45.5321 45.9064 45.7193 45.7192C46.0936 45.3449 46.0936 44.7384 45.7192 44.3641ZM18.2084 34.5C9.22489 34.5 1.91673 27.1917 1.91673 18.2084C1.91673 9.22498 9.22489 1.91664 18.2084 1.91664C27.1918 1.91664 34.5 9.22489 34.5 18.2084C34.5 27.1918 27.1917 34.5 18.2084 34.5Z" fill="black"/>
<path d="M27.7915 17.2499H19.1665V8.62487C19.1665 8.09515 18.7379 7.6665 18.2081 7.6665C17.6785 7.6665 17.2499 8.09515 17.2499 8.62487V17.2499H8.62487C8.09515 17.2499 7.6665 17.6785 7.6665 18.2082C7.6665 18.7379 8.09515 19.1666 8.62487 19.1666H17.2499V27.7916C17.2499 28.3213 17.6785 28.75 18.2082 28.75C18.738 28.75 19.1666 28.3213 19.1666 27.7916V19.1666H27.7916C28.3213 19.1666 28.75 18.7379 28.75 18.2082C28.7499 17.6785 28.3212 17.2499 27.7915 17.2499Z" fill="black"/>
</g>
<defs>
<clipPath id="clip0">
<rect width="46" height="46" fill="white"/>
</clipPath>
</defs>
</svg>
