<svg width="20" height="21" viewBox="0 0 20 21" fill="none" xmlns="http://www.w3.org/2000/svg">
<g clip-path="url(#clip0)">
<path d="M12.5458 8.04202L12.5458 8.04204C12.6402 8.23751 12.5582 8.47241 12.3628 8.56677L12.3193 8.47672L12.3628 8.56677L10.393 9.51769V19.2914L18.6878 15.2871V5.51334L16.1859 6.72117V10.1934C16.1859 10.3442 16.0996 10.4817 15.9638 10.5472L15.9638 10.5472M12.5458 8.04202L15.9203 10.4572L15.9638 10.5472M12.5458 8.04202C12.4514 7.84667 12.2166 7.76458 12.021 7.85902L10 8.8347L9.2312 8.46352C9.23119 8.46351 9.23118 8.46351 9.23117 8.4635C9.03564 8.36903 8.80076 8.45114 8.70642 8.64652C8.61206 8.84196 8.69401 9.0769 8.88944 9.17126L8.88945 9.17127M12.5458 8.04202L8.88945 9.17127M15.9638 10.5472L13.7719 11.6054M15.9638 10.5472L13.7719 11.6054M13.7719 11.6054C13.7719 11.6054 13.7719 11.6054 13.7719 11.6054M13.7719 11.6054L13.7719 11.6054M8.88945 9.17127L9.60706 9.51769M8.88945 9.17127L9.60706 9.51769M7.97917 7.85912L7.97918 7.85913C8.17461 7.95349 8.25656 8.18842 8.1622 8.38386C8.1622 8.38386 8.1622 8.38387 8.16219 8.38387L8.07214 8.34039L7.97917 7.85912ZM7.97917 7.85912L1.82313 4.88723L4.50347 3.59327L13.2081 7.79551V11.2515C13.2081 11.3868 13.2776 11.5125 13.3921 11.5844L13.3921 11.5844M7.97917 7.85912L13.3921 11.5844M13.3921 11.5844C13.4558 11.6243 13.5284 11.6445 13.6011 11.6445M13.3921 11.5844L13.6011 11.6445M9.60706 9.51769V19.2914L1.31222 15.287V5.5133L7.63745 8.56687C7.63747 8.56688 7.63748 8.56688 7.6375 8.56689L9.60706 9.51769ZM13.6011 11.6445C13.6593 11.6445 13.7178 11.6316 13.7719 11.6054M13.6011 11.6445L13.7719 11.6054M19.2517 4.53336L19.2517 4.53334L10.1709 0.149515L10.1709 0.149499C10.0629 0.0974358 9.93716 0.0974269 9.82923 0.149507L9.82921 0.149515L0.748402 4.53334C0.748399 4.53334 0.748396 4.53334 0.748393 4.53334C0.612565 4.5989 0.526282 4.73644 0.526282 4.88723V15.5337C0.526282 15.6845 0.612564 15.822 0.748393 15.8876C0.748396 15.8876 0.748399 15.8876 0.748402 15.8876L9.82917 20.2714L9.82919 20.2714C9.88313 20.2974 9.9416 20.3105 10 20.3105C10.0585 20.3105 10.1169 20.2974 10.1708 20.2714L10.1709 20.2714L19.2517 15.8876C19.3875 15.822 19.4738 15.6845 19.4738 15.5337V4.88727C19.4738 4.73636 19.3874 4.59894 19.2517 4.53336ZM10.1274 0.239568L10.1274 0.23957L10.1274 0.239568ZM15.9638 5.9424L7.80056 2.0016L10 0.939793L18.1769 4.88723L15.9771 5.94921C15.9728 5.94688 15.9684 5.9446 15.9638 5.94241C15.9638 5.9424 15.9638 5.9424 15.9638 5.9424ZM13.5843 7.10443L5.42268 3.16435L6.90899 2.44394L15.0736 6.38543L13.5843 7.10443ZM13.994 7.77929L15.4 7.10053V9.94665L13.994 10.6254V7.77929Z" fill="#0FD9B1" stroke="#0FD9B1" stroke-width="0.2"/>
<path d="M3.6734 14.1235L3.67343 14.1235C3.86882 14.2179 3.9508 14.4528 3.8564 14.6483L3.6734 14.1235ZM3.6734 14.1235L2.34081 13.4802C2.3408 13.4802 2.34079 13.4802 2.34079 13.4802C2.14522 13.3857 1.91039 13.4678 1.81605 13.6632C1.72168 13.8587 1.80363 14.0936 1.99907 14.188L1.99907 14.188M3.6734 14.1235L1.99907 14.188M1.99907 14.188L3.33165 14.8313M1.99907 14.188L3.33165 14.8313M3.33165 14.8313C3.33166 14.8313 3.33168 14.8313 3.33169 14.8313M3.33165 14.8313L3.33169 14.8313M3.33169 14.8313C3.38662 14.8578 3.44492 14.8704 3.50231 14.8704M3.33169 14.8313L3.50231 14.8704M3.50231 14.8704C3.64812 14.8704 3.78856 14.7888 3.85638 14.6483L3.50231 14.8704Z" fill="#0FD9B1" stroke="#0FD9B1" stroke-width="0.2"/>
<path d="M2.34259 12.0905L2.34259 12.0905C2.14711 11.9962 1.91221 12.0781 1.81785 12.2736L1.81785 12.2736C1.72354 12.469 1.80548 12.704 2.00091 12.7983L2.00092 12.7983L4.55814 14.0329L4.55817 14.0329C4.61302 14.0593 4.67129 14.072 4.72877 14.072C4.87459 14.072 5.01503 13.9903 5.08285 13.8498L5.08285 13.8498C5.17719 13.6543 5.09529 13.4194 4.89982 13.3251C4.89981 13.325 4.89981 13.325 4.89981 13.325L2.34259 12.0905Z" fill="#0FD9B1" stroke="#0FD9B1" stroke-width="0.2"/>
</g>
<defs>
<clipPath id="clip0">
<rect width="20" height="20" fill="white" transform="translate(0 0.210449)"/>
</clipPath>
</defs>
</svg>
