<svg width="20" height="21" viewBox="0 0 20 21" fill="none" xmlns="http://www.w3.org/2000/svg">
<g clip-path="url(#clip0)">
<path d="M16.875 5.78955H14.375V5.16455C14.375 2.75217 12.4124 0.789551 10 0.789551C7.58762 0.789551 5.625 2.75217 5.625 5.16455V5.78955H3.125C2.7798 5.78955 2.5 6.06939 2.5 6.41455V18.9146C2.5 19.9484 3.34113 20.7896 4.375 20.7896H15.625C16.6589 20.7896 17.5 19.9484 17.5 18.9146V6.41455C17.5 6.06939 17.2202 5.78955 16.875 5.78955ZM6.875 5.16455C6.875 3.44143 8.27688 2.03955 10 2.03955C11.7231 2.03955 13.125 3.44143 13.125 5.16455V5.78955H6.875V5.16455ZM16.25 18.9146C16.25 19.2592 15.9696 19.5396 15.625 19.5396H4.375C4.03039 19.5396 3.75 19.2592 3.75 18.9146V7.03955H5.625V8.28955C5.625 8.63471 5.9048 8.91455 6.25 8.91455C6.5952 8.91455 6.875 8.63471 6.875 8.28955V7.03955H13.125V8.28955C13.125 8.63471 13.4048 8.91455 13.75 8.91455C14.0952 8.91455 14.375 8.63471 14.375 8.28955V7.03955H16.25V18.9146Z" fill="#0FD9B1"/>
<path d="M8.92286 17.288L6.15918 14.163C6.04499 14.0339 5.98665 13.8645 5.99699 13.6921C6.00211 13.6067 6.02394 13.5232 6.06122 13.4462C6.09851 13.3693 6.15053 13.3004 6.21431 13.2436C6.27809 13.1868 6.35238 13.1431 6.43294 13.1151C6.5135 13.087 6.59876 13.0752 6.68384 13.0802C6.85566 13.0903 7.01634 13.1685 7.13053 13.2976L8.97922 15.3884L13.3601 10.9805C13.4202 10.9194 13.4918 10.8708 13.5706 10.8375C13.6494 10.8042 13.734 10.7868 13.8195 10.7864C13.9051 10.786 13.9898 10.8026 14.0688 10.8351C14.1479 10.8677 14.2197 10.9156 14.2802 10.9762C14.3407 11.0367 14.3887 11.1087 14.4213 11.1879C14.454 11.2671 14.4707 11.3521 14.4706 11.4379C14.4704 11.5237 14.4533 11.6086 14.4203 11.6878C14.3873 11.767 14.3391 11.8389 14.2783 11.8994L8.92286 17.288Z" fill="#0FD9B1"/>
</g>
<defs>
<clipPath id="clip0">
<rect width="20" height="20" fill="white" transform="translate(0 0.789551)"/>
</clipPath>
</defs>
</svg>
